<svg xmlns="http://www.w3.org/2000/svg" viewBox="0 0 1200 900" width="1200" height="900" role="img" aria-label="skyline view">
  <defs>
    <linearGradient id="sky1789" x1="0" y1="0" x2="0" y2="1">
      <stop offset="0%" stop-color="#101d33"/>
      <stop offset="55%" stop-color="#101d33"/>
      <stop offset="100%" stop-color="#d0916e"/>
    </linearGradient>
    <radialGradient id="glow1789" cx="0.5675" cy="0.5755555555555556" r="0.55">
      <stop offset="0%" stop-color="#ffe1b4" stop-opacity="0.95"/>
      <stop offset="35%" stop-color="#d0916e" stop-opacity="0.55"/>
      <stop offset="100%" stop-color="#d0916e" stop-opacity="0"/>
    </radialGradient>
    <linearGradient id="water1789" x1="0" y1="0" x2="0" y2="1">
      <stop offset="0%" stop-color="#16334c" stop-opacity="0.95"/>
      <stop offset="100%" stop-color="#08162a"/>
    </linearGradient>
  </defs>
  <rect width="1200" height="900" fill="url(#sky1789)"/>
  <rect width="1200" height="900" fill="url(#glow1789)"/>
  <circle cx="681" cy="518" r="40" fill="#ffe1b4" opacity="0.9"/><rect x="728" y="294" width="272" height="14" rx="7" fill="#ffffff" opacity="0.14"/><rect x="742" y="203" width="201" height="11" rx="5" fill="#ffffff" opacity="0.8"/><rect x="770" y="275" width="408" height="22" rx="11" fill="#ffffff" opacity="0.7"/><rect x="937" y="314" width="400" height="22" rx="11" fill="#ffffff" opacity="0.7"/><rect x="606" y="234" width="187" height="10" rx="5" fill="#ffffff" opacity="0.10"/><path d="M0 540 L0 459 Q 144 414 312 504 L 408 540 Z" fill="#08162a" opacity="0.75"/><rect x="0" y="540" width="1200" height="360" fill="url(#water1789)"/><rect x="492" y="572" width="330" height="3" fill="#ffe1b4" opacity="0.20"/><rect x="511" y="605" width="295" height="3" fill="#ffe1b4" opacity="0.13"/><rect x="451" y="638" width="454" height="3" fill="#ffe1b4" opacity="0.13"/><rect x="402" y="670" width="600" height="3" fill="#ffe1b4" opacity="0.17"/><rect x="380" y="703" width="567" height="3" fill="#ffe1b4" opacity="0.34"/><rect x="436" y="736" width="577" height="3" fill="#ffe1b4" opacity="0.15"/><rect x="568" y="769" width="240" height="3" fill="#ffe1b4" opacity="0.17"/><rect x="450" y="801" width="397" height="3" fill="#ffe1b4" opacity="0.25"/><rect x="381" y="834" width="561" height="3" fill="#ffe1b4" opacity="0.17"/><rect x="96" y="241" width="98" height="317" fill="#08162a" opacity="0.95"/><rect x="106" y="253" width="11" height="10" fill="#ffe1b4" opacity="0.41"/><rect x="106" y="278" width="11" height="10" fill="#ffe1b4" opacity="0.52"/><rect x="106" y="402" width="11" height="10" fill="#ffe1b4" opacity="0.58"/><rect x="106" y="452" width="11" height="10" fill="#ffe1b4" opacity="0.57"/><rect x="106" y="527" width="11" height="10" fill="#ffe1b4" opacity="0.50"/><rect x="126" y="253" width="11" height="10" fill="#ffe1b4" opacity="0.39"/><rect x="126" y="328" width="11" height="10" fill="#ffe1b4" opacity="0.55"/><rect x="126" y="378" width="11" height="10" fill="#ffe1b4" opacity="0.52"/><rect x="126" y="402" width="11" height="10" fill="#ffe1b4" opacity="0.51"/><rect x="126" y="427" width="11" height="10" fill="#ffe1b4" opacity="0.44"/><rect x="126" y="452" width="11" height="10" fill="#ffe1b4" opacity="0.36"/><rect x="126" y="477" width="11" height="10" fill="#ffe1b4" opacity="0.41"/><rect x="126" y="502" width="11" height="10" fill="#ffe1b4" opacity="0.52"/><rect x="147" y="328" width="11" height="10" fill="#ffe1b4" opacity="0.58"/><rect x="147" y="378" width="11" height="10" fill="#ffe1b4" opacity="0.57"/><rect x="147" y="452" width="11" height="10" fill="#ffe1b4" opacity="0.50"/><rect x="147" y="477" width="11" height="10" fill="#ffe1b4" opacity="0.39"/><rect x="168" y="253" width="11" height="10" fill="#ffe1b4" opacity="0.55"/><rect x="168" y="303" width="11" height="10" fill="#ffe1b4" opacity="0.52"/><rect x="168" y="328" width="11" height="10" fill="#ffe1b4" opacity="0.51"/><rect x="168" y="353" width="11" height="10" fill="#ffe1b4" opacity="0.44"/><rect x="168" y="378" width="11" height="10" fill="#ffe1b4" opacity="0.36"/><rect x="168" y="402" width="11" height="10" fill="#ffe1b4" opacity="0.41"/><rect x="168" y="427" width="11" height="10" fill="#ffe1b4" opacity="0.52"/><rect x="205" y="288" width="125" height="270" fill="#08162a" opacity="0.95"/><rect x="215" y="300" width="12" height="11" fill="#ffe1b4" opacity="0.57"/><rect x="215" y="376" width="12" height="11" fill="#ffe1b4" opacity="0.50"/><rect x="215" y="401" width="12" height="11" fill="#ffe1b4" opacity="0.39"/><rect x="215" y="476" width="12" height="11" fill="#ffe1b4" opacity="0.55"/><rect x="215" y="527" width="12" height="11" fill="#ffe1b4" opacity="0.52"/><rect x="237" y="300" width="12" height="11" fill="#ffe1b4" opacity="0.51"/><rect x="237" y="325" width="12" height="11" fill="#ffe1b4" opacity="0.44"/><rect x="237" y="350" width="12" height="11" fill="#ffe1b4" opacity="0.36"/><rect x="237" y="376" width="12" height="11" fill="#ffe1b4" opacity="0.41"/><rect x="237" y="401" width="12" height="11" fill="#ffe1b4" opacity="0.52"/><rect x="237" y="527" width="12" height="11" fill="#ffe1b4" opacity="0.58"/><rect x="259" y="325" width="12" height="11" fill="#ffe1b4" opacity="0.57"/><rect x="259" y="401" width="12" height="11" fill="#ffe1b4" opacity="0.50"/><rect x="259" y="426" width="12" height="11" fill="#ffe1b4" opacity="0.39"/><rect x="259" y="502" width="12" height="11" fill="#ffe1b4" opacity="0.55"/><rect x="280" y="300" width="12" height="11" fill="#ffe1b4" opacity="0.52"/><rect x="280" y="325" width="12" height="11" fill="#ffe1b4" opacity="0.51"/><rect x="280" y="350" width="12" height="11" fill="#ffe1b4" opacity="0.44"/><rect x="280" y="376" width="12" height="11" fill="#ffe1b4" opacity="0.36"/><rect x="280" y="401" width="12" height="11" fill="#ffe1b4" opacity="0.41"/><rect x="280" y="426" width="12" height="11" fill="#ffe1b4" opacity="0.52"/><rect x="302" y="300" width="12" height="11" fill="#ffe1b4" opacity="0.58"/><rect x="302" y="350" width="12" height="11" fill="#ffe1b4" opacity="0.57"/><rect x="302" y="426" width="12" height="11" fill="#ffe1b4" opacity="0.50"/><rect x="302" y="451" width="12" height="11" fill="#ffe1b4" opacity="0.39"/><rect x="302" y="527" width="12" height="11" fill="#ffe1b4" opacity="0.55"/><rect x="345" y="375" width="72" height="183" fill="#08162a" opacity="0.95"/><rect x="355" y="387" width="10" height="10" fill="#ffe1b4" opacity="0.51"/><rect x="355" y="411" width="10" height="10" fill="#ffe1b4" opacity="0.44"/><rect x="355" y="434" width="10" height="10" fill="#ffe1b4" opacity="0.36"/><rect x="355" y="458" width="10" height="10" fill="#ffe1b4" opacity="0.41"/><rect x="355" y="481" width="10" height="10" fill="#ffe1b4" opacity="0.52"/><rect x="374" y="434" width="10" height="10" fill="#ffe1b4" opacity="0.58"/><rect x="374" y="481" width="10" height="10" fill="#ffe1b4" opacity="0.57"/><rect x="392" y="387" width="10" height="10" fill="#ffe1b4" opacity="0.50"/><rect x="392" y="411" width="10" height="10" fill="#ffe1b4" opacity="0.39"/><rect x="392" y="481" width="10" height="10" fill="#ffe1b4" opacity="0.55"/><rect x="392" y="528" width="10" height="10" fill="#ffe1b4" opacity="0.52"/><rect x="430" y="393" width="118" height="165" fill="#08162a" opacity="0.95"/><rect x="440" y="430" width="11" height="10" fill="#ffe1b4" opacity="0.36"/><rect x="440" y="454" width="11" height="10" fill="#ffe1b4" opacity="0.41"/><rect x="440" y="478" width="11" height="10" fill="#ffe1b4" opacity="0.52"/><rect x="460" y="454" width="11" height="10" fill="#ffe1b4" opacity="0.58"/><rect x="460" y="503" width="11" height="10" fill="#ffe1b4" opacity="0.57"/><rect x="481" y="430" width="11" height="10" fill="#ffe1b4" opacity="0.50"/><rect x="481" y="454" width="11" height="10" fill="#ffe1b4" opacity="0.39"/><rect x="481" y="528" width="11" height="10" fill="#ffe1b4" opacity="0.55"/><rect x="501" y="430" width="11" height="10" fill="#ffe1b4" opacity="0.52"/><rect x="501" y="454" width="11" height="10" fill="#ffe1b4" opacity="0.51"/><rect x="501" y="478" width="11" height="10" fill="#ffe1b4" opacity="0.44"/><rect x="501" y="503" width="11" height="10" fill="#ffe1b4" opacity="0.36"/><rect x="501" y="528" width="11" height="10" fill="#ffe1b4" opacity="0.41"/><rect x="522" y="405" width="11" height="10" fill="#ffe1b4" opacity="0.52"/><rect x="522" y="528" width="11" height="10" fill="#ffe1b4" opacity="0.58"/><rect x="562" y="195" width="98" height="363" fill="#08162a" opacity="0.95"/><rect x="572" y="260" width="11" height="11" fill="#ffe1b4" opacity="0.50"/><rect x="572" y="287" width="11" height="11" fill="#ffe1b4" opacity="0.39"/><rect x="572" y="366" width="11" height="11" fill="#ffe1b4" opacity="0.55"/><rect x="572" y="419" width="11" height="11" fill="#ffe1b4" opacity="0.52"/><rect x="572" y="446" width="11" height="11" fill="#ffe1b4" opacity="0.51"/><rect x="572" y="472" width="11" height="11" fill="#ffe1b4" opacity="0.44"/><rect x="572" y="499" width="11" height="11" fill="#ffe1b4" opacity="0.36"/><rect x="572" y="525" width="11" height="11" fill="#ffe1b4" opacity="0.41"/><rect x="592" y="207" width="11" height="11" fill="#ffe1b4" opacity="0.52"/><rect x="592" y="340" width="11" height="11" fill="#ffe1b4" opacity="0.58"/><rect x="592" y="393" width="11" height="11" fill="#ffe1b4" opacity="0.57"/><rect x="592" y="472" width="11" height="11" fill="#ffe1b4" opacity="0.50"/><rect x="592" y="499" width="11" height="11" fill="#ffe1b4" opacity="0.39"/><rect x="613" y="234" width="11" height="11" fill="#ffe1b4" opacity="0.55"/><rect x="613" y="287" width="11" height="11" fill="#ffe1b4" opacity="0.52"/><rect x="613" y="313" width="11" height="11" fill="#ffe1b4" opacity="0.51"/><rect x="613" y="340" width="11" height="11" fill="#ffe1b4" opacity="0.44"/><rect x="613" y="366" width="11" height="11" fill="#ffe1b4" opacity="0.36"/><rect x="613" y="393" width="11" height="11" fill="#ffe1b4" opacity="0.41"/><rect x="613" y="419" width="11" height="11" fill="#ffe1b4" opacity="0.52"/><rect x="634" y="207" width="11" height="11" fill="#ffe1b4" opacity="0.58"/><rect x="634" y="260" width="11" height="11" fill="#ffe1b4" opacity="0.57"/><rect x="634" y="340" width="11" height="11" fill="#ffe1b4" opacity="0.50"/><rect x="634" y="366" width="11" height="11" fill="#ffe1b4" opacity="0.39"/><rect x="634" y="446" width="11" height="11" fill="#ffe1b4" opacity="0.55"/><rect x="634" y="499" width="11" height="11" fill="#ffe1b4" opacity="0.52"/><rect x="634" y="525" width="11" height="11" fill="#ffe1b4" opacity="0.51"/><rect x="674" y="400" width="132" height="158" fill="#08162a" opacity="0.95"/><rect x="684" y="435" width="11" height="10" fill="#ffe1b4" opacity="0.41"/><rect x="684" y="459" width="11" height="10" fill="#ffe1b4" opacity="0.52"/><rect x="703" y="435" width="11" height="10" fill="#ffe1b4" opacity="0.58"/><rect x="703" y="482" width="11" height="10" fill="#ffe1b4" opacity="0.57"/><rect x="723" y="412" width="11" height="10" fill="#ffe1b4" opacity="0.50"/><rect x="723" y="435" width="11" height="10" fill="#ffe1b4" opacity="0.39"/><rect x="723" y="505" width="11" height="10" fill="#ffe1b4" opacity="0.55"/><rect x="742" y="412" width="11" height="10" fill="#ffe1b4" opacity="0.52"/><rect x="742" y="435" width="11" height="10" fill="#ffe1b4" opacity="0.51"/><rect x="742" y="459" width="11" height="10" fill="#ffe1b4" opacity="0.44"/><rect x="742" y="482" width="11" height="10" fill="#ffe1b4" opacity="0.36"/><rect x="742" y="505" width="11" height="10" fill="#ffe1b4" opacity="0.41"/><rect x="742" y="529" width="11" height="10" fill="#ffe1b4" opacity="0.52"/><rect x="761" y="505" width="11" height="10" fill="#ffe1b4" opacity="0.58"/><rect x="781" y="412" width="11" height="10" fill="#ffe1b4" opacity="0.57"/><rect x="781" y="482" width="11" height="10" fill="#ffe1b4" opacity="0.50"/><rect x="781" y="505" width="11" height="10" fill="#ffe1b4" opacity="0.39"/><rect x="828" y="357" width="60" height="201" fill="#08162a" opacity="0.95"/><rect x="838" y="395" width="12" height="11" fill="#ffe1b4" opacity="0.52"/><rect x="838" y="421" width="12" height="11" fill="#ffe1b4" opacity="0.51"/><rect x="838" y="447" width="12" height="11" fill="#ffe1b4" opacity="0.44"/><rect x="838" y="474" width="12" height="11" fill="#ffe1b4" opacity="0.36"/><rect x="838" y="500" width="12" height="11" fill="#ffe1b4" opacity="0.41"/><rect x="838" y="526" width="12" height="11" fill="#ffe1b4" opacity="0.52"/><rect x="860" y="474" width="12" height="11" fill="#ffe1b4" opacity="0.58"/><rect x="860" y="526" width="12" height="11" fill="#ffe1b4" opacity="0.57"/><rect x="904" y="316" width="64" height="242" fill="#08162a" opacity="0.95"/><rect x="914" y="328" width="13" height="10" fill="#ffe1b4" opacity="0.51"/><rect x="914" y="428" width="13" height="10" fill="#ffe1b4" opacity="0.55"/><rect x="914" y="477" width="13" height="10" fill="#ffe1b4" opacity="0.52"/><rect x="914" y="502" width="13" height="10" fill="#ffe1b4" opacity="0.51"/><rect x="914" y="527" width="13" height="10" fill="#ffe1b4" opacity="0.44"/><rect x="938" y="328" width="13" height="10" fill="#ffe1b4" opacity="0.36"/><rect x="938" y="353" width="13" height="10" fill="#ffe1b4" opacity="0.41"/><rect x="938" y="378" width="13" height="10" fill="#ffe1b4" opacity="0.52"/><rect x="938" y="502" width="13" height="10" fill="#ffe1b4" opacity="0.58"/><rect x="986" y="231" width="116" height="327" fill="#08162a" opacity="0.95"/><rect x="996" y="269" width="11" height="11" fill="#ffe1b4" opacity="0.50"/><rect x="996" y="294" width="11" height="11" fill="#ffe1b4" opacity="0.39"/><rect x="996" y="372" width="11" height="11" fill="#ffe1b4" opacity="0.55"/><rect x="996" y="423" width="11" height="11" fill="#ffe1b4" opacity="0.52"/><rect x="996" y="449" width="11" height="11" fill="#ffe1b4" opacity="0.51"/><rect x="996" y="475" width="11" height="11" fill="#ffe1b4" opacity="0.44"/><rect x="996" y="500" width="11" height="11" fill="#ffe1b4" opacity="0.36"/><rect x="996" y="526" width="11" height="11" fill="#ffe1b4" opacity="0.41"/><rect x="1016" y="243" width="11" height="11" fill="#ffe1b4" opacity="0.52"/><rect x="1016" y="372" width="11" height="11" fill="#ffe1b4" opacity="0.58"/><rect x="1016" y="423" width="11" height="11" fill="#ffe1b4" opacity="0.57"/><rect x="1016" y="500" width="11" height="11" fill="#ffe1b4" opacity="0.50"/><rect x="1016" y="526" width="11" height="11" fill="#ffe1b4" opacity="0.39"/><rect x="1036" y="294" width="11" height="11" fill="#ffe1b4" opacity="0.55"/><rect x="1036" y="346" width="11" height="11" fill="#ffe1b4" opacity="0.52"/><rect x="1036" y="372" width="11" height="11" fill="#ffe1b4" opacity="0.51"/><rect x="1036" y="398" width="11" height="11" fill="#ffe1b4" opacity="0.44"/><rect x="1036" y="423" width="11" height="11" fill="#ffe1b4" opacity="0.36"/><rect x="1036" y="449" width="11" height="11" fill="#ffe1b4" opacity="0.41"/><rect x="1036" y="475" width="11" height="11" fill="#ffe1b4" opacity="0.52"/><rect x="1056" y="294" width="11" height="11" fill="#ffe1b4" opacity="0.58"/><rect x="1056" y="346" width="11" height="11" fill="#ffe1b4" opacity="0.57"/><rect x="1056" y="423" width="11" height="11" fill="#ffe1b4" opacity="0.50"/><rect x="1056" y="449" width="11" height="11" fill="#ffe1b4" opacity="0.39"/><rect x="1056" y="526" width="11" height="11" fill="#ffe1b4" opacity="0.55"/><rect x="1076" y="269" width="11" height="11" fill="#ffe1b4" opacity="0.52"/><rect x="1076" y="294" width="11" height="11" fill="#ffe1b4" opacity="0.51"/><rect x="1076" y="320" width="11" height="11" fill="#ffe1b4" opacity="0.44"/><rect x="1076" y="346" width="11" height="11" fill="#ffe1b4" opacity="0.36"/><rect x="1076" y="372" width="11" height="11" fill="#ffe1b4" opacity="0.41"/><rect x="1076" y="398" width="11" height="11" fill="#ffe1b4" opacity="0.52"/><rect x="1076" y="526" width="11" height="11" fill="#ffe1b4" opacity="0.58"/><rect x="1116" y="195" width="98" height="363" fill="#08162a" opacity="0.95"/><rect x="1126" y="260" width="11" height="11" fill="#ffe1b4" opacity="0.50"/><rect x="1126" y="287" width="11" height="11" fill="#ffe1b4" opacity="0.39"/><rect x="1126" y="366" width="11" height="11" fill="#ffe1b4" opacity="0.55"/><rect x="1126" y="419" width="11" height="11" fill="#ffe1b4" opacity="0.52"/><rect x="1126" y="446" width="11" height="11" fill="#ffe1b4" opacity="0.51"/><rect x="1126" y="472" width="11" height="11" fill="#ffe1b4" opacity="0.44"/><rect x="1126" y="499" width="11" height="11" fill="#ffe1b4" opacity="0.36"/><rect x="1126" y="525" width="11" height="11" fill="#ffe1b4" opacity="0.41"/><rect x="1146" y="207" width="11" height="11" fill="#ffe1b4" opacity="0.52"/><rect x="1146" y="340" width="11" height="11" fill="#ffe1b4" opacity="0.58"/><rect x="1146" y="393" width="11" height="11" fill="#ffe1b4" opacity="0.57"/><rect x="1146" y="472" width="11" height="11" fill="#ffe1b4" opacity="0.50"/><rect x="1146" y="499" width="11" height="11" fill="#ffe1b4" opacity="0.39"/><rect x="1167" y="234" width="11" height="11" fill="#ffe1b4" opacity="0.55"/><rect x="1167" y="287" width="11" height="11" fill="#ffe1b4" opacity="0.52"/><rect x="1167" y="313" width="11" height="11" fill="#ffe1b4" opacity="0.51"/><rect x="1167" y="340" width="11" height="11" fill="#ffe1b4" opacity="0.44"/><rect x="1167" y="366" width="11" height="11" fill="#ffe1b4" opacity="0.36"/><rect x="1167" y="393" width="11" height="11" fill="#ffe1b4" opacity="0.41"/><rect x="1167" y="419" width="11" height="11" fill="#ffe1b4" opacity="0.52"/><rect x="1188" y="207" width="11" height="11" fill="#ffe1b4" opacity="0.58"/><rect x="1188" y="260" width="11" height="11" fill="#ffe1b4" opacity="0.57"/><rect x="1188" y="340" width="11" height="11" fill="#ffe1b4" opacity="0.50"/><rect x="1188" y="366" width="11" height="11" fill="#ffe1b4" opacity="0.39"/><rect x="1188" y="446" width="11" height="11" fill="#ffe1b4" opacity="0.55"/><rect x="1188" y="499" width="11" height="11" fill="#ffe1b4" opacity="0.52"/><rect x="1188" y="525" width="11" height="11" fill="#ffe1b4" opacity="0.51"/><rect x="0" y="558" width="1200" height="342" fill="#08162a"/><defs>
      <linearGradient id="hz1789" x1="0" y1="0" x2="0" y2="1">
        <stop offset="0%" stop-color="#101d33" stop-opacity="0.45"/>
        <stop offset="45%" stop-color="#101d33" stop-opacity="0"/>
        <stop offset="100%" stop-color="#08162a" stop-opacity="0.4"/>
      </linearGradient>
      <radialGradient id="vg1789" cx="0.5" cy="0.5" r="0.75">
        <stop offset="55%" stop-color="#000000" stop-opacity="0"/>
        <stop offset="100%" stop-color="#000000" stop-opacity="0.3"/>
      </radialGradient>
    </defs>
    <rect width="1200" height="900" fill="url(#hz1789)"/>
    <rect width="1200" height="900" fill="url(#vg1789)"/></svg>