<svg xmlns="http://www.w3.org/2000/svg" viewBox="0 0 1200 900" width="1200" height="900" role="img" aria-label="villa view">
  <defs>
    <linearGradient id="sky9544" x1="0" y1="0" x2="0" y2="1">
      <stop offset="0%" stop-color="#122036"/>
      <stop offset="55%" stop-color="#122036"/>
      <stop offset="100%" stop-color="#b58aa0"/>
    </linearGradient>
    <radialGradient id="glow9544" cx="0.535" cy="0.39444444444444443" r="0.55">
      <stop offset="0%" stop-color="#ffd7d0" stop-opacity="0.95"/>
      <stop offset="35%" stop-color="#b58aa0" stop-opacity="0.55"/>
      <stop offset="100%" stop-color="#b58aa0" stop-opacity="0"/>
    </radialGradient>
    <linearGradient id="water9544" x1="0" y1="0" x2="0" y2="1">
      <stop offset="0%" stop-color="#183a4d" stop-opacity="0.95"/>
      <stop offset="100%" stop-color="#0a1626"/>
    </linearGradient>
  </defs>
  <rect width="1200" height="900" fill="url(#sky9544)"/>
  <rect width="1200" height="900" fill="url(#glow9544)"/>
  <circle cx="642" cy="355" r="40" fill="#ffd7d0" opacity="0.9"/><rect x="351" y="185" width="310" height="17" rx="8" fill="#ffffff" opacity="0.10"/><rect x="664" y="134" width="190" height="10" rx="5" fill="#ffffff" opacity="0.8"/><rect x="1051" y="90" width="376" height="20" rx="10" fill="#ffffff" opacity="0.13"/><rect x="851" y="273" width="379" height="20" rx="10" fill="#ffffff" opacity="0.8"/><rect x="297" y="270" width="292" height="16" rx="8" fill="#ffffff" opacity="0.14"/><path d="M0 423 L0 342 Q 144 297 312 387 L 408 423 Z" fill="#0a1626" opacity="0.75"/><rect x="0" y="423" width="1200" height="477" fill="url(#water9544)"/><rect x="523" y="466" width="321" height="3" fill="#ffd7d0" opacity="0.34"/><rect x="370" y="509" width="582" height="3" fill="#ffd7d0" opacity="0.28"/><rect x="335" y="553" width="507" height="3" fill="#ffd7d0" opacity="0.13"/><rect x="417" y="596" width="360" height="3" fill="#ffd7d0" opacity="0.13"/><rect x="338" y="639" width="544" height="3" fill="#ffd7d0" opacity="0.15"/><rect x="390" y="683" width="492" height="3" fill="#ffd7d0" opacity="0.28"/><rect x="513" y="726" width="327" height="3" fill="#ffd7d0" opacity="0.33"/><rect x="565" y="769" width="197" height="3" fill="#ffd7d0" opacity="0.18"/><rect x="345" y="813" width="482" height="3" fill="#ffd7d0" opacity="0.18"/><rect x="0" y="423" width="1200" height="315" fill="#0a1626" opacity="0.55"/><rect x="72" y="561" width="159" height="177" rx="4" fill="#e9e2d6" opacity="0.72"/><rect x="72" y="561" width="159" height="14" fill="#0a1626" opacity="0.35"/><rect x="82" y="683" width="11" height="11" fill="#2b3a44" opacity="0.50"/><rect x="102" y="630" width="11" height="11" fill="#2b3a44" opacity="0.53"/><rect x="102" y="656" width="11" height="11" fill="#2b3a44" opacity="0.57"/><rect x="102" y="683" width="11" height="11" fill="#2b3a44" opacity="0.57"/><rect x="123" y="604" width="11" height="11" fill="#2b3a44" opacity="0.59"/><rect x="123" y="630" width="11" height="11" fill="#2b3a44" opacity="0.60"/><rect x="123" y="656" width="11" height="11" fill="#2b3a44" opacity="0.44"/><rect x="143" y="604" width="11" height="11" fill="#2b3a44" opacity="0.30"/><rect x="143" y="656" width="11" height="11" fill="#2b3a44" opacity="0.30"/><rect x="164" y="630" width="11" height="11" fill="#2b3a44" opacity="0.43"/><rect x="164" y="683" width="11" height="11" fill="#2b3a44" opacity="0.61"/><rect x="205" y="604" width="11" height="11" fill="#2b3a44" opacity="0.50"/><rect x="205" y="656" width="11" height="11" fill="#2b3a44" opacity="0.53"/><rect x="205" y="683" width="11" height="11" fill="#2b3a44" opacity="0.57"/><rect x="282" y="562" width="240" height="176" rx="4" fill="#e9e2d6" opacity="0.72"/><rect x="282" y="562" width="240" height="14" fill="#0a1626" opacity="0.35"/><rect x="292" y="631" width="12" height="11" fill="#2b3a44" opacity="0.60"/><rect x="292" y="658" width="12" height="11" fill="#2b3a44" opacity="0.44"/><rect x="314" y="605" width="12" height="11" fill="#2b3a44" opacity="0.30"/><rect x="314" y="658" width="12" height="11" fill="#2b3a44" opacity="0.30"/><rect x="337" y="631" width="12" height="11" fill="#2b3a44" opacity="0.43"/><rect x="337" y="684" width="12" height="11" fill="#2b3a44" opacity="0.61"/><rect x="382" y="605" width="12" height="11" fill="#2b3a44" opacity="0.50"/><rect x="382" y="658" width="12" height="11" fill="#2b3a44" opacity="0.53"/><rect x="382" y="684" width="12" height="11" fill="#2b3a44" opacity="0.57"/><rect x="404" y="605" width="12" height="11" fill="#2b3a44" opacity="0.57"/><rect x="404" y="631" width="12" height="11" fill="#2b3a44" opacity="0.59"/><rect x="404" y="658" width="12" height="11" fill="#2b3a44" opacity="0.60"/><rect x="404" y="684" width="12" height="11" fill="#2b3a44" opacity="0.44"/><rect x="426" y="631" width="12" height="11" fill="#2b3a44" opacity="0.30"/><rect x="426" y="684" width="12" height="11" fill="#2b3a44" opacity="0.30"/><rect x="449" y="658" width="12" height="11" fill="#2b3a44" opacity="0.43"/><rect x="471" y="605" width="12" height="11" fill="#2b3a44" opacity="0.61"/><rect x="494" y="631" width="12" height="11" fill="#2b3a44" opacity="0.50"/><rect x="494" y="684" width="12" height="11" fill="#2b3a44" opacity="0.53"/><rect x="571" y="539" width="220" height="199" rx="4" fill="#e9e2d6" opacity="0.72"/><rect x="571" y="539" width="220" height="15" fill="#0a1626" opacity="0.35"/><rect x="581" y="610" width="11" height="10" fill="#2b3a44" opacity="0.59"/><rect x="581" y="634" width="11" height="10" fill="#2b3a44" opacity="0.60"/><rect x="581" y="659" width="11" height="10" fill="#2b3a44" opacity="0.44"/><rect x="601" y="586" width="11" height="10" fill="#2b3a44" opacity="0.30"/><rect x="601" y="634" width="11" height="10" fill="#2b3a44" opacity="0.30"/><rect x="622" y="586" width="11" height="10" fill="#2b3a44" opacity="0.43"/><rect x="622" y="634" width="11" height="10" fill="#2b3a44" opacity="0.61"/><rect x="642" y="634" width="11" height="10" fill="#2b3a44" opacity="0.50"/><rect x="642" y="683" width="11" height="10" fill="#2b3a44" opacity="0.53"/><rect x="663" y="586" width="11" height="10" fill="#2b3a44" opacity="0.57"/><rect x="663" y="610" width="11" height="10" fill="#2b3a44" opacity="0.57"/><rect x="663" y="634" width="11" height="10" fill="#2b3a44" opacity="0.59"/><rect x="663" y="659" width="11" height="10" fill="#2b3a44" opacity="0.60"/><rect x="663" y="683" width="11" height="10" fill="#2b3a44" opacity="0.44"/><rect x="683" y="610" width="11" height="10" fill="#2b3a44" opacity="0.30"/><rect x="683" y="659" width="11" height="10" fill="#2b3a44" opacity="0.30"/><rect x="703" y="610" width="11" height="10" fill="#2b3a44" opacity="0.43"/><rect x="703" y="659" width="11" height="10" fill="#2b3a44" opacity="0.61"/><rect x="724" y="659" width="11" height="10" fill="#2b3a44" opacity="0.50"/><rect x="744" y="586" width="11" height="10" fill="#2b3a44" opacity="0.53"/><rect x="744" y="610" width="11" height="10" fill="#2b3a44" opacity="0.57"/><rect x="744" y="634" width="11" height="10" fill="#2b3a44" opacity="0.57"/><rect x="744" y="659" width="11" height="10" fill="#2b3a44" opacity="0.59"/><rect x="744" y="683" width="11" height="10" fill="#2b3a44" opacity="0.60"/><rect x="765" y="586" width="11" height="10" fill="#2b3a44" opacity="0.44"/><rect x="765" y="634" width="11" height="10" fill="#2b3a44" opacity="0.30"/><rect x="765" y="683" width="11" height="10" fill="#2b3a44" opacity="0.30"/><rect x="818" y="572" width="233" height="166" rx="4" fill="#e9e2d6" opacity="0.72"/><rect x="818" y="572" width="233" height="13" fill="#0a1626" opacity="0.35"/><rect x="828" y="662" width="12" height="10" fill="#2b3a44" opacity="0.61"/><rect x="850" y="686" width="12" height="10" fill="#2b3a44" opacity="0.50"/><rect x="871" y="638" width="12" height="10" fill="#2b3a44" opacity="0.53"/><rect x="871" y="662" width="12" height="10" fill="#2b3a44" opacity="0.57"/><rect x="871" y="686" width="12" height="10" fill="#2b3a44" opacity="0.57"/><rect x="893" y="613" width="12" height="10" fill="#2b3a44" opacity="0.59"/><rect x="893" y="638" width="12" height="10" fill="#2b3a44" opacity="0.60"/><rect x="893" y="662" width="12" height="10" fill="#2b3a44" opacity="0.44"/><rect x="915" y="613" width="12" height="10" fill="#2b3a44" opacity="0.30"/><rect x="915" y="662" width="12" height="10" fill="#2b3a44" opacity="0.30"/><rect x="936" y="638" width="12" height="10" fill="#2b3a44" opacity="0.43"/><rect x="936" y="686" width="12" height="10" fill="#2b3a44" opacity="0.61"/><rect x="980" y="613" width="12" height="10" fill="#2b3a44" opacity="0.50"/><rect x="980" y="662" width="12" height="10" fill="#2b3a44" opacity="0.53"/><rect x="980" y="686" width="12" height="10" fill="#2b3a44" opacity="0.57"/><rect x="1002" y="613" width="12" height="10" fill="#2b3a44" opacity="0.57"/><rect x="1002" y="638" width="12" height="10" fill="#2b3a44" opacity="0.59"/><rect x="1002" y="662" width="12" height="10" fill="#2b3a44" opacity="0.60"/><rect x="1002" y="686" width="12" height="10" fill="#2b3a44" opacity="0.44"/><rect x="1023" y="638" width="12" height="10" fill="#2b3a44" opacity="0.30"/><rect x="1023" y="686" width="12" height="10" fill="#2b3a44" opacity="0.30"/><rect x="1078" y="572" width="233" height="166" rx="4" fill="#e9e2d6" opacity="0.72"/><rect x="1078" y="572" width="233" height="13" fill="#0a1626" opacity="0.35"/><rect x="1088" y="662" width="12" height="10" fill="#2b3a44" opacity="0.61"/><rect x="1110" y="686" width="12" height="10" fill="#2b3a44" opacity="0.50"/><rect x="1131" y="638" width="12" height="10" fill="#2b3a44" opacity="0.53"/><rect x="1131" y="662" width="12" height="10" fill="#2b3a44" opacity="0.57"/><rect x="1131" y="686" width="12" height="10" fill="#2b3a44" opacity="0.57"/><rect x="1153" y="613" width="12" height="10" fill="#2b3a44" opacity="0.59"/><rect x="1153" y="638" width="12" height="10" fill="#2b3a44" opacity="0.60"/><rect x="1153" y="662" width="12" height="10" fill="#2b3a44" opacity="0.44"/><rect x="1175" y="613" width="12" height="10" fill="#2b3a44" opacity="0.30"/><rect x="1175" y="662" width="12" height="10" fill="#2b3a44" opacity="0.30"/><rect x="1196" y="638" width="12" height="10" fill="#2b3a44" opacity="0.43"/><rect x="1196" y="686" width="12" height="10" fill="#2b3a44" opacity="0.61"/><rect x="1240" y="613" width="12" height="10" fill="#2b3a44" opacity="0.50"/><rect x="1240" y="662" width="12" height="10" fill="#2b3a44" opacity="0.53"/><rect x="1240" y="686" width="12" height="10" fill="#2b3a44" opacity="0.57"/><rect x="1262" y="613" width="12" height="10" fill="#2b3a44" opacity="0.57"/><rect x="1262" y="638" width="12" height="10" fill="#2b3a44" opacity="0.59"/><rect x="1262" y="662" width="12" height="10" fill="#2b3a44" opacity="0.60"/><rect x="1262" y="686" width="12" height="10" fill="#2b3a44" opacity="0.44"/><rect x="1283" y="638" width="12" height="10" fill="#2b3a44" opacity="0.30"/><rect x="1283" y="686" width="12" height="10" fill="#2b3a44" opacity="0.30"/><rect x="0" y="738" width="1200" height="162" fill="#2b4433" opacity="0.7"/><path d="M66 764 q 12.64 -79.0 3.16 -142.20000000000002" stroke="#12301f" stroke-width="7.109999999999999" fill="none" stroke-linecap="round"/><path d="M69.16 621.8 q -50.56 -24.332000000000004 -82.16 -5.877600000000003" stroke="#12301f" stroke-width="7.9" fill="none" stroke-linecap="round"/><path d="M69.16 621.8 q -37.92 10.428 -61.620000000000005 33.3064" stroke="#12301f" stroke-width="7.9" fill="none" stroke-linecap="round"/><path d="M69.16 621.8 q 50.56 -24.332000000000004 82.16 -5.877600000000003" stroke="#12301f" stroke-width="7.9" fill="none" stroke-linecap="round"/><path d="M69.16 621.8 q 37.92 10.428 61.620000000000005 33.3064" stroke="#12301f" stroke-width="7.9" fill="none" stroke-linecap="round"/><path d="M69.16 621.8 q 5.056 -43.45 8.216000000000001 -27.428800000000003" stroke="#12301f" stroke-width="7.9" fill="none" stroke-linecap="round"/><path d="M911 774 q 11.84 -74.0 2.96 -133.20000000000002" stroke="#12301f" stroke-width="6.66" fill="none" stroke-linecap="round"/><path d="M913.96 640.8 q -47.36 -22.792000000000005 -76.96000000000001 -5.505600000000003" stroke="#12301f" stroke-width="7.4" fill="none" stroke-linecap="round"/><path d="M913.96 640.8 q -35.52 9.767999999999999 -57.72 31.198399999999996" stroke="#12301f" stroke-width="7.4" fill="none" stroke-linecap="round"/><path d="M913.96 640.8 q 47.36 -22.792000000000005 76.96000000000001 -5.505600000000003" stroke="#12301f" stroke-width="7.4" fill="none" stroke-linecap="round"/><path d="M913.96 640.8 q 35.52 9.767999999999999 57.72 31.198399999999996" stroke="#12301f" stroke-width="7.4" fill="none" stroke-linecap="round"/><path d="M913.96 640.8 q 4.736000000000001 -40.7 7.696000000000001 -25.692800000000002" stroke="#12301f" stroke-width="7.4" fill="none" stroke-linecap="round"/><path d="M771 805 q 15.68 -98.0 3.92 -176.4" stroke="#12301f" stroke-width="8.82" fill="none" stroke-linecap="round"/><path d="M774.92 628.6 q -62.72 -30.184000000000005 -101.92 -7.2912000000000035" stroke="#12301f" stroke-width="9.8" fill="none" stroke-linecap="round"/><path d="M774.92 628.6 q -47.04 12.936 -76.44 41.3168" stroke="#12301f" stroke-width="9.8" fill="none" stroke-linecap="round"/><path d="M774.92 628.6 q 62.72 -30.184000000000005 101.92 -7.2912000000000035" stroke="#12301f" stroke-width="9.8" fill="none" stroke-linecap="round"/><path d="M774.92 628.6 q 47.04 12.936 76.44 41.3168" stroke="#12301f" stroke-width="9.8" fill="none" stroke-linecap="round"/><path d="M774.92 628.6 q 6.272 -53.900000000000006 10.192000000000002 -34.025600000000004" stroke="#12301f" stroke-width="9.8" fill="none" stroke-linecap="round"/><path d="M214 758 q 13.200000000000001 -82.5 3.3000000000000003 -148.5" stroke="#12301f" stroke-width="7.425" fill="none" stroke-linecap="round"/><path d="M217.3 609.5 q -52.800000000000004 -25.410000000000004 -85.8 -6.138000000000003" stroke="#12301f" stroke-width="8.25" fill="none" stroke-linecap="round"/><path d="M217.3 609.5 q -39.6 10.89 -64.35000000000001 34.782" stroke="#12301f" stroke-width="8.25" fill="none" stroke-linecap="round"/><path d="M217.3 609.5 q 52.800000000000004 -25.410000000000004 85.8 -6.138000000000003" stroke="#12301f" stroke-width="8.25" fill="none" stroke-linecap="round"/><path d="M217.3 609.5 q 39.6 10.89 64.35000000000001 34.782" stroke="#12301f" stroke-width="8.25" fill="none" stroke-linecap="round"/><path d="M217.3 609.5 q 5.28 -45.37500000000001 8.58 -28.644000000000002" stroke="#12301f" stroke-width="8.25" fill="none" stroke-linecap="round"/><defs>
      <linearGradient id="hz9544" x1="0" y1="0" x2="0" y2="1">
        <stop offset="0%" stop-color="#122036" stop-opacity="0.45"/>
        <stop offset="45%" stop-color="#122036" stop-opacity="0"/>
        <stop offset="100%" stop-color="#0a1626" stop-opacity="0.4"/>
      </linearGradient>
      <radialGradient id="vg9544" cx="0.5" cy="0.5" r="0.75">
        <stop offset="55%" stop-color="#000000" stop-opacity="0"/>
        <stop offset="100%" stop-color="#000000" stop-opacity="0.3"/>
      </radialGradient>
    </defs>
    <rect width="1200" height="900" fill="url(#hz9544)"/>
    <rect width="1200" height="900" fill="url(#vg9544)"/></svg>