<svg xmlns="http://www.w3.org/2000/svg" viewBox="0 0 1600 1067" width="1600" height="1067" role="img" aria-label="coastal view">
  <defs>
    <linearGradient id="sky2109" x1="0" y1="0" x2="0" y2="1">
      <stop offset="0%" stop-color="#0d2a3d"/>
      <stop offset="55%" stop-color="#0d2a3d"/>
      <stop offset="100%" stop-color="#7fb4b8"/>
    </linearGradient>
    <radialGradient id="glow2109" cx="0.681875" cy="0.3936269915651359" r="0.55">
      <stop offset="0%" stop-color="#eaf3ef" stop-opacity="0.95"/>
      <stop offset="35%" stop-color="#7fb4b8" stop-opacity="0.55"/>
      <stop offset="100%" stop-color="#7fb4b8" stop-opacity="0"/>
    </radialGradient>
    <linearGradient id="water2109" x1="0" y1="0" x2="0" y2="1">
      <stop offset="0%" stop-color="#12495a" stop-opacity="0.95"/>
      <stop offset="100%" stop-color="#08202c"/>
    </linearGradient>
  </defs>
  <rect width="1600" height="1067" fill="url(#sky2109)"/>
  <rect width="1600" height="1067" fill="url(#glow2109)"/>
  <circle cx="1091" cy="420" r="48" fill="#eaf3ef" opacity="0.9"/><rect x="1404" y="323" width="433" height="23" rx="11" fill="#ffffff" opacity="0.12"/><rect x="491" y="79" width="199" height="10" rx="5" fill="#ffffff" opacity="0.13"/><rect x="525" y="328" width="300" height="16" rx="8" fill="#ffffff" opacity="0.6"/><rect x="281" y="88" width="241" height="13" rx="6" fill="#ffffff" opacity="0.8"/><rect x="1171" y="314" width="481" height="26" rx="13" fill="#ffffff" opacity="0.14"/><path d="M0 501 L0 405 Q 192 352 416 459 L 544 501 Z" fill="#08202c" opacity="0.75"/><rect x="0" y="501" width="1600" height="566" fill="url(#water2109)"/><rect x="752" y="552" width="569" height="4" fill="#eaf3ef" opacity="0.31"/><rect x="931" y="603" width="222" height="4" fill="#eaf3ef" opacity="0.23"/><rect x="790" y="655" width="484" height="4" fill="#eaf3ef" opacity="0.22"/><rect x="977" y="706" width="266" height="4" fill="#eaf3ef" opacity="0.30"/><rect x="962" y="758" width="365" height="4" fill="#eaf3ef" opacity="0.30"/><rect x="739" y="809" width="719" height="4" fill="#eaf3ef" opacity="0.19"/><rect x="955" y="861" width="240" height="4" fill="#eaf3ef" opacity="0.16"/><rect x="738" y="912" width="661" height="4" fill="#eaf3ef" opacity="0.20"/><rect x="846" y="964" width="453" height="4" fill="#eaf3ef" opacity="0.15"/><path d="M0 832 Q 560 779 1600 811 L 1600 1067 L 0 1067 Z" fill="#dccdb2" opacity="0.75"/><rect x="128" y="380" width="146" height="131" rx="3" fill="#e8e1d5" opacity="0.7"/><rect x="128" y="380" width="146" height="15" fill="#08202c" opacity="0.3"/><rect x="309" y="366" width="135" height="145" rx="3" fill="#e8e1d5" opacity="0.7"/><rect x="309" y="366" width="135" height="17" fill="#08202c" opacity="0.3"/><rect x="471" y="362" width="206" height="149" rx="3" fill="#e8e1d5" opacity="0.7"/><rect x="471" y="362" width="206" height="17" fill="#08202c" opacity="0.3"/><rect x="745" y="424" width="221" height="87" rx="3" fill="#e8e1d5" opacity="0.7"/><rect x="745" y="424" width="221" height="10" fill="#08202c" opacity="0.3"/><rect x="1040" y="352" width="150" height="159" rx="3" fill="#e8e1d5" opacity="0.7"/><rect x="1040" y="352" width="150" height="19" fill="#08202c" opacity="0.3"/><rect x="1267" y="423" width="162" height="88" rx="3" fill="#e8e1d5" opacity="0.7"/><rect x="1267" y="423" width="162" height="10" fill="#08202c" opacity="0.3"/><path d="M353 847 q 10.32 -64.5 2.58 -116.10000000000001" stroke="#1d3a2a" stroke-width="5.805" fill="none" stroke-linecap="round"/><path d="M355.58 730.9 q -41.28 -19.866000000000003 -67.08 -4.798800000000002" stroke="#1d3a2a" stroke-width="6.45" fill="none" stroke-linecap="round"/><path d="M355.58 730.9 q -30.96 8.514 -50.31 27.1932" stroke="#1d3a2a" stroke-width="6.45" fill="none" stroke-linecap="round"/><path d="M355.58 730.9 q 41.28 -19.866000000000003 67.08 -4.798800000000002" stroke="#1d3a2a" stroke-width="6.45" fill="none" stroke-linecap="round"/><path d="M355.58 730.9 q 30.96 8.514 50.31 27.1932" stroke="#1d3a2a" stroke-width="6.45" fill="none" stroke-linecap="round"/><path d="M355.58 730.9 q 4.128 -35.475 6.708 -22.3944" stroke="#1d3a2a" stroke-width="6.45" fill="none" stroke-linecap="round"/><path d="M1386 862 q 14.8 -92.5 3.7 -166.5" stroke="#1d3a2a" stroke-width="8.325" fill="none" stroke-linecap="round"/><path d="M1389.7 695.5 q -59.2 -28.490000000000006 -96.2 -6.882000000000003" stroke="#1d3a2a" stroke-width="9.25" fill="none" stroke-linecap="round"/><path d="M1389.7 695.5 q -44.4 12.21 -72.15 38.998" stroke="#1d3a2a" stroke-width="9.25" fill="none" stroke-linecap="round"/><path d="M1389.7 695.5 q 59.2 -28.490000000000006 96.2 -6.882000000000003" stroke="#1d3a2a" stroke-width="9.25" fill="none" stroke-linecap="round"/><path d="M1389.7 695.5 q 44.4 12.21 72.15 38.998" stroke="#1d3a2a" stroke-width="9.25" fill="none" stroke-linecap="round"/><path d="M1389.7 695.5 q 5.92 -50.87500000000001 9.620000000000001 -32.116" stroke="#1d3a2a" stroke-width="9.25" fill="none" stroke-linecap="round"/><path d="M1213 873 q 9.76 -61.0 2.44 -109.8" stroke="#1d3a2a" stroke-width="5.49" fill="none" stroke-linecap="round"/><path d="M1215.44 763.2 q -39.04 -18.788000000000004 -63.440000000000005 -4.538400000000002" stroke="#1d3a2a" stroke-width="6.1000000000000005" fill="none" stroke-linecap="round"/><path d="M1215.44 763.2 q -29.28 8.052 -47.58 25.717599999999997" stroke="#1d3a2a" stroke-width="6.1000000000000005" fill="none" stroke-linecap="round"/><path d="M1215.44 763.2 q 39.04 -18.788000000000004 63.440000000000005 -4.538400000000002" stroke="#1d3a2a" stroke-width="6.1000000000000005" fill="none" stroke-linecap="round"/><path d="M1215.44 763.2 q 29.28 8.052 47.58 25.717599999999997" stroke="#1d3a2a" stroke-width="6.1000000000000005" fill="none" stroke-linecap="round"/><path d="M1215.44 763.2 q 3.9040000000000004 -33.550000000000004 6.344000000000001 -21.1792" stroke="#1d3a2a" stroke-width="6.1000000000000005" fill="none" stroke-linecap="round"/><path d="M943 845 q 8.72 -54.5 2.18 -98.10000000000001" stroke="#1d3a2a" stroke-width="4.905" fill="none" stroke-linecap="round"/><path d="M945.18 746.9 q -34.88 -16.786 -56.68 -4.054800000000002" stroke="#1d3a2a" stroke-width="5.45" fill="none" stroke-linecap="round"/><path d="M945.18 746.9 q -26.16 7.194000000000001 -42.51 22.977199999999996" stroke="#1d3a2a" stroke-width="5.45" fill="none" stroke-linecap="round"/><path d="M945.18 746.9 q 34.88 -16.786 56.68 -4.054800000000002" stroke="#1d3a2a" stroke-width="5.45" fill="none" stroke-linecap="round"/><path d="M945.18 746.9 q 26.16 7.194000000000001 42.51 22.977199999999996" stroke="#1d3a2a" stroke-width="5.45" fill="none" stroke-linecap="round"/><path d="M945.18 746.9 q 3.488 -29.975 5.668 -18.922400000000003" stroke="#1d3a2a" stroke-width="5.45" fill="none" stroke-linecap="round"/><rect x="128" y="938" width="1344" height="96" rx="6" fill="#12495a" opacity="0.85"/><rect x="128" y="938" width="1344" height="8" fill="#ffffff" opacity="0.28"/><defs>
      <linearGradient id="hz2109" x1="0" y1="0" x2="0" y2="1">
        <stop offset="0%" stop-color="#0d2a3d" stop-opacity="0.45"/>
        <stop offset="45%" stop-color="#0d2a3d" stop-opacity="0"/>
        <stop offset="100%" stop-color="#08202c" stop-opacity="0.4"/>
      </linearGradient>
      <radialGradient id="vg2109" cx="0.5" cy="0.5" r="0.75">
        <stop offset="55%" stop-color="#000000" stop-opacity="0"/>
        <stop offset="100%" stop-color="#000000" stop-opacity="0.3"/>
      </radialGradient>
    </defs>
    <rect width="1600" height="1067" fill="url(#hz2109)"/>
    <rect width="1600" height="1067" fill="url(#vg2109)"/></svg>