<svg xmlns="http://www.w3.org/2000/svg" viewBox="0 0 1600 1067" width="1600" height="1067" role="img" aria-label="coastal view">
  <defs>
    <linearGradient id="sky7083" x1="0" y1="0" x2="0" y2="1">
      <stop offset="0%" stop-color="#0a2430"/>
      <stop offset="55%" stop-color="#0a2430"/>
      <stop offset="100%" stop-color="#8fc0b4"/>
    </linearGradient>
    <radialGradient id="glow7083" cx="0.616875" cy="0.44048734770384257" r="0.55">
      <stop offset="0%" stop-color="#f0efe0" stop-opacity="0.95"/>
      <stop offset="35%" stop-color="#8fc0b4" stop-opacity="0.55"/>
      <stop offset="100%" stop-color="#8fc0b4" stop-opacity="0"/>
    </radialGradient>
    <linearGradient id="water7083" x1="0" y1="0" x2="0" y2="1">
      <stop offset="0%" stop-color="#0f4450" stop-opacity="0.95"/>
      <stop offset="100%" stop-color="#061c24"/>
    </linearGradient>
  </defs>
  <rect width="1600" height="1067" fill="url(#sky7083)"/>
  <rect width="1600" height="1067" fill="url(#glow7083)"/>
  <circle cx="987" cy="470" r="48" fill="#f0efe0" opacity="0.9"/><rect x="963" y="96" width="251" height="13" rx="6" fill="#ffffff" opacity="0.11"/><rect x="684" y="265" width="484" height="26" rx="13" fill="#ffffff" opacity="0.7"/><rect x="273" y="135" width="277" height="15" rx="7" fill="#ffffff" opacity="0.13"/><rect x="820" y="363" width="444" height="24" rx="12" fill="#ffffff" opacity="0.6"/><rect x="1386" y="180" width="362" height="19" rx="9" fill="#ffffff" opacity="0.8"/><path d="M0 512 L0 416 Q 192 363 416 470 L 544 512 Z" fill="#061c24" opacity="0.75"/><rect x="0" y="512" width="1600" height="555" fill="url(#water7083)"/><rect x="717" y="562" width="603" height="4" fill="#f0efe0" opacity="0.33"/><rect x="871" y="612" width="274" height="4" fill="#f0efe0" opacity="0.21"/><rect x="719" y="663" width="499" height="4" fill="#f0efe0" opacity="0.24"/><rect x="808" y="713" width="315" height="4" fill="#f0efe0" opacity="0.23"/><rect x="813" y="764" width="352" height="4" fill="#f0efe0" opacity="0.12"/><rect x="925" y="814" width="226" height="4" fill="#f0efe0" opacity="0.31"/><rect x="600" y="865" width="758" height="4" fill="#f0efe0" opacity="0.17"/><rect x="797" y="915" width="397" height="4" fill="#f0efe0" opacity="0.15"/><rect x="873" y="966" width="227" height="4" fill="#f0efe0" opacity="0.25"/><path d="M0 821 Q 560 768 1600 800 L 1600 1067 L 0 1067 Z" fill="#dccdb2" opacity="0.75"/><rect x="128" y="414" width="175" height="108" rx="3" fill="#e8e1d5" opacity="0.7"/><rect x="128" y="414" width="175" height="12" fill="#061c24" opacity="0.3"/><rect x="337" y="436" width="214" height="86" rx="3" fill="#e8e1d5" opacity="0.7"/><rect x="337" y="436" width="214" height="10" fill="#061c24" opacity="0.3"/><rect x="582" y="413" width="184" height="109" rx="3" fill="#e8e1d5" opacity="0.7"/><rect x="582" y="413" width="184" height="13" fill="#061c24" opacity="0.3"/><rect x="801" y="362" width="188" height="160" rx="3" fill="#e8e1d5" opacity="0.7"/><rect x="801" y="362" width="188" height="19" fill="#061c24" opacity="0.3"/><rect x="1040" y="372" width="151" height="150" rx="3" fill="#e8e1d5" opacity="0.7"/><rect x="1040" y="372" width="151" height="18" fill="#061c24" opacity="0.3"/><rect x="1236" y="365" width="170" height="157" rx="3" fill="#e8e1d5" opacity="0.7"/><rect x="1236" y="365" width="170" height="18" fill="#061c24" opacity="0.3"/><rect x="1430" y="421" width="204" height="101" rx="3" fill="#e8e1d5" opacity="0.7"/><rect x="1430" y="421" width="204" height="12" fill="#061c24" opacity="0.3"/><path d="M555 930 q 9.28 -58.0 2.32 -104.4" stroke="#1d3a2a" stroke-width="5.22" fill="none" stroke-linecap="round"/><path d="M557.32 825.6 q -37.12 -17.864000000000004 -60.32 -4.315200000000002" stroke="#1d3a2a" stroke-width="5.800000000000001" fill="none" stroke-linecap="round"/><path d="M557.32 825.6 q -27.84 7.656000000000001 -45.24 24.4528" stroke="#1d3a2a" stroke-width="5.800000000000001" fill="none" stroke-linecap="round"/><path d="M557.32 825.6 q 37.12 -17.864000000000004 60.32 -4.315200000000002" stroke="#1d3a2a" stroke-width="5.800000000000001" fill="none" stroke-linecap="round"/><path d="M557.32 825.6 q 27.84 7.656000000000001 45.24 24.4528" stroke="#1d3a2a" stroke-width="5.800000000000001" fill="none" stroke-linecap="round"/><path d="M557.32 825.6 q 3.7120000000000006 -31.900000000000002 6.032000000000001 -20.137600000000003" stroke="#1d3a2a" stroke-width="5.800000000000001" fill="none" stroke-linecap="round"/><path d="M1119 968 q 12.64 -79.0 3.16 -142.20000000000002" stroke="#1d3a2a" stroke-width="7.109999999999999" fill="none" stroke-linecap="round"/><path d="M1122.16 825.8 q -50.56 -24.332000000000004 -82.16 -5.877600000000003" stroke="#1d3a2a" stroke-width="7.9" fill="none" stroke-linecap="round"/><path d="M1122.16 825.8 q -37.92 10.428 -61.620000000000005 33.3064" stroke="#1d3a2a" stroke-width="7.9" fill="none" stroke-linecap="round"/><path d="M1122.16 825.8 q 50.56 -24.332000000000004 82.16 -5.877600000000003" stroke="#1d3a2a" stroke-width="7.9" fill="none" stroke-linecap="round"/><path d="M1122.16 825.8 q 37.92 10.428 61.620000000000005 33.3064" stroke="#1d3a2a" stroke-width="7.9" fill="none" stroke-linecap="round"/><path d="M1122.16 825.8 q 5.056 -43.45 8.216000000000001 -27.428800000000003" stroke="#1d3a2a" stroke-width="7.9" fill="none" stroke-linecap="round"/><path d="M1403 931 q 12.72 -79.5 3.18 -143.1" stroke="#1d3a2a" stroke-width="7.154999999999999" fill="none" stroke-linecap="round"/><path d="M1406.18 787.9 q -50.88 -24.486000000000004 -82.68 -5.914800000000003" stroke="#1d3a2a" stroke-width="7.95" fill="none" stroke-linecap="round"/><path d="M1406.18 787.9 q -38.160000000000004 10.494 -62.010000000000005 33.517199999999995" stroke="#1d3a2a" stroke-width="7.95" fill="none" stroke-linecap="round"/><path d="M1406.18 787.9 q 50.88 -24.486000000000004 82.68 -5.914800000000003" stroke="#1d3a2a" stroke-width="7.95" fill="none" stroke-linecap="round"/><path d="M1406.18 787.9 q 38.160000000000004 10.494 62.010000000000005 33.517199999999995" stroke="#1d3a2a" stroke-width="7.95" fill="none" stroke-linecap="round"/><path d="M1406.18 787.9 q 5.088 -43.725 8.268 -27.602400000000003" stroke="#1d3a2a" stroke-width="7.95" fill="none" stroke-linecap="round"/><path d="M517 896 q 9.84 -61.5 2.46 -110.7" stroke="#1d3a2a" stroke-width="5.535" fill="none" stroke-linecap="round"/><path d="M519.46 785.3 q -39.36 -18.942000000000004 -63.96 -4.575600000000002" stroke="#1d3a2a" stroke-width="6.15" fill="none" stroke-linecap="round"/><path d="M519.46 785.3 q -29.52 8.118 -47.97 25.928399999999996" stroke="#1d3a2a" stroke-width="6.15" fill="none" stroke-linecap="round"/><path d="M519.46 785.3 q 39.36 -18.942000000000004 63.96 -4.575600000000002" stroke="#1d3a2a" stroke-width="6.15" fill="none" stroke-linecap="round"/><path d="M519.46 785.3 q 29.52 8.118 47.97 25.928399999999996" stroke="#1d3a2a" stroke-width="6.15" fill="none" stroke-linecap="round"/><path d="M519.46 785.3 q 3.9360000000000004 -33.825 6.396000000000001 -21.352800000000002" stroke="#1d3a2a" stroke-width="6.15" fill="none" stroke-linecap="round"/><rect x="128" y="938" width="1344" height="96" rx="6" fill="#0f4450" opacity="0.85"/><rect x="128" y="938" width="1344" height="8" fill="#ffffff" opacity="0.28"/><defs>
      <linearGradient id="hz7083" x1="0" y1="0" x2="0" y2="1">
        <stop offset="0%" stop-color="#0a2430" stop-opacity="0.45"/>
        <stop offset="45%" stop-color="#0a2430" stop-opacity="0"/>
        <stop offset="100%" stop-color="#061c24" stop-opacity="0.4"/>
      </linearGradient>
      <radialGradient id="vg7083" cx="0.5" cy="0.5" r="0.75">
        <stop offset="55%" stop-color="#000000" stop-opacity="0"/>
        <stop offset="100%" stop-color="#000000" stop-opacity="0.3"/>
      </radialGradient>
    </defs>
    <rect width="1600" height="1067" fill="url(#hz7083)"/>
    <rect width="1600" height="1067" fill="url(#vg7083)"/></svg>