<svg xmlns="http://www.w3.org/2000/svg" viewBox="0 0 1600 1067" width="1600" height="1067" role="img" aria-label="masterplan"><rect width="1600" height="1067" fill="#f2efe8"/><rect width="1600" height="1067" fill="#0a1c33" opacity="0.06"/><path d="M80 832 Q 560 533 880 661 T 1552 320" stroke="#8fae7f" stroke-width="96" fill="none" stroke-linecap="round" opacity="0.55"/><path d="M32 373 Q 480 213 832 448 T 1600 661" stroke="#0f2e45" stroke-width="58" fill="none" stroke-linecap="round" opacity="0.85"/><rect x="1180" y="342" width="77" height="36" rx="2" fill="#061626" opacity="0.69" transform="rotate(-3 1218 360)"/><rect x="1004" y="233" width="77" height="37" rx="2" fill="#061626" opacity="0.53" transform="rotate(-3 1042 251)"/><rect x="335" y="194" width="110" height="70" rx="2" fill="#061626" opacity="0.33" transform="rotate(5 390 229)"/><rect x="117" y="195" width="94" height="35" rx="2" fill="#061626" opacity="0.59" transform="rotate(-7 164 212)"/><rect x="214" y="706" width="86" height="64" rx="2" fill="#061626" opacity="0.62" transform="rotate(0 257 738)"/><rect x="698" y="721" width="94" height="33" rx="2" fill="#061626" opacity="0.31" transform="rotate(-8 745 737)"/><rect x="473" y="414" width="111" height="34" rx="2" fill="#061626" opacity="0.59" transform="rotate(4 528 431)"/><rect x="512" y="193" width="61" height="35" rx="2" fill="#061626" opacity="0.70" transform="rotate(1 542 210)"/><rect x="398" y="395" width="90" height="63" rx="2" fill="#061626" opacity="0.58" transform="rotate(-8 443 426)"/><rect x="1418" y="80" width="102" height="42" rx="2" fill="#061626" opacity="0.46" transform="rotate(0 1469 101)"/><rect x="872" y="758" width="97" height="72" rx="2" fill="#061626" opacity="0.42" transform="rotate(-5 920 794)"/><rect x="478" y="933" width="90" height="42" rx="2" fill="#061626" opacity="0.32" transform="rotate(-3 523 954)"/><rect x="1315" y="588" width="104" height="64" rx="2" fill="#061626" opacity="0.55" transform="rotate(3 1367 620)"/><rect x="226" y="420" width="68" height="43" rx="2" fill="#061626" opacity="0.41" transform="rotate(8 260 441)"/><rect x="1144" y="827" width="81" height="74" rx="2" fill="#061626" opacity="0.41" transform="rotate(6 1184 864)"/><rect x="850" y="924" width="70" height="63" rx="2" fill="#061626" opacity="0.59" transform="rotate(-2 885 955)"/><rect x="1180" y="342" width="77" height="36" rx="2" fill="#061626" opacity="0.69" transform="rotate(-3 1218 360)"/><rect x="1004" y="233" width="77" height="37" rx="2" fill="#061626" opacity="0.53" transform="rotate(-3 1042 251)"/><rect x="335" y="194" width="110" height="70" rx="2" fill="#061626" opacity="0.33" transform="rotate(5 390 229)"/><rect x="117" y="195" width="94" height="35" rx="2" fill="#061626" opacity="0.59" transform="rotate(-7 164 212)"/><rect x="214" y="706" width="86" height="64" rx="2" fill="#061626" opacity="0.62" transform="rotate(0 257 738)"/><rect x="698" y="721" width="94" height="33" rx="2" fill="#061626" opacity="0.31" transform="rotate(-8 745 737)"/><rect x="473" y="414" width="111" height="34" rx="2" fill="#061626" opacity="0.59" transform="rotate(4 528 431)"/><rect x="512" y="193" width="61" height="35" rx="2" fill="#061626" opacity="0.70" transform="rotate(1 542 210)"/><rect x="398" y="395" width="90" height="63" rx="2" fill="#061626" opacity="0.58" transform="rotate(-8 443 426)"/><rect x="1418" y="80" width="102" height="42" rx="2" fill="#061626" opacity="0.46" transform="rotate(0 1469 101)"/><rect x="872" y="758" width="97" height="72" rx="2" fill="#061626" opacity="0.42" transform="rotate(-5 920 794)"/><rect x="478" y="933" width="90" height="42" rx="2" fill="#061626" opacity="0.32" transform="rotate(-3 523 954)"/><rect x="1315" y="588" width="104" height="64" rx="2" fill="#061626" opacity="0.55" transform="rotate(3 1367 620)"/><rect x="226" y="420" width="68" height="43" rx="2" fill="#061626" opacity="0.41" transform="rotate(8 260 441)"/><rect x="1144" y="827" width="81" height="74" rx="2" fill="#061626" opacity="0.41" transform="rotate(6 1184 864)"/><rect x="850" y="924" width="70" height="63" rx="2" fill="#061626" opacity="0.59" transform="rotate(-2 885 955)"/><rect x="1180" y="342" width="77" height="36" rx="2" fill="#061626" opacity="0.69" transform="rotate(-3 1218 360)"/><rect x="1004" y="233" width="77" height="37" rx="2" fill="#061626" opacity="0.53" transform="rotate(-3 1042 251)"/><rect x="335" y="194" width="110" height="70" rx="2" fill="#061626" opacity="0.33" transform="rotate(5 390 229)"/><rect x="117" y="195" width="94" height="35" rx="2" fill="#061626" opacity="0.59" transform="rotate(-7 164 212)"/><rect x="214" y="706" width="86" height="64" rx="2" fill="#061626" opacity="0.62" transform="rotate(0 257 738)"/><rect x="698" y="721" width="94" height="33" rx="2" fill="#061626" opacity="0.31" transform="rotate(-8 745 737)"/><path d="M0 389 Q 800 265 1600 428" stroke="#ffffff" stroke-width="12" fill="none" opacity="0.75"/><path d="M0 861 Q 800 700 1600 899" stroke="#ffffff" stroke-width="12" fill="none" opacity="0.75"/><path d="M0 624 Q 800 488 1600 657" stroke="#ffffff" stroke-width="12" fill="none" opacity="0.75"/><path d="M0 520 Q 800 345 1600 492" stroke="#ffffff" stroke-width="12" fill="none" opacity="0.75"/></svg>