<svg xmlns="http://www.w3.org/2000/svg" viewBox="0 0 1600 1067" width="1600" height="1067" role="img" aria-label="coastal view">
  <defs>
    <linearGradient id="sky5068" x1="0" y1="0" x2="0" y2="1">
      <stop offset="0%" stop-color="#122036"/>
      <stop offset="55%" stop-color="#122036"/>
      <stop offset="100%" stop-color="#b58aa0"/>
    </linearGradient>
    <radialGradient id="glow5068" cx="0.42" cy="0.4742268041237113" r="0.55">
      <stop offset="0%" stop-color="#ffd7d0" stop-opacity="0.95"/>
      <stop offset="35%" stop-color="#b58aa0" stop-opacity="0.55"/>
      <stop offset="100%" stop-color="#b58aa0" stop-opacity="0"/>
    </radialGradient>
    <linearGradient id="water5068" x1="0" y1="0" x2="0" y2="1">
      <stop offset="0%" stop-color="#183a4d" stop-opacity="0.95"/>
      <stop offset="100%" stop-color="#0a1626"/>
    </linearGradient>
  </defs>
  <rect width="1600" height="1067" fill="url(#sky5068)"/>
  <rect width="1600" height="1067" fill="url(#glow5068)"/>
  <circle cx="672" cy="506" r="48" fill="#ffd7d0" opacity="0.9"/><rect x="1305" y="292" width="418" height="22" rx="11" fill="#ffffff" opacity="0.8"/><rect x="803" y="396" width="488" height="26" rx="13" fill="#ffffff" opacity="0.7"/><rect x="1457" y="129" width="355" height="19" rx="9" fill="#ffffff" opacity="0.14"/><rect x="1174" y="302" width="220" height="12" rx="6" fill="#ffffff" opacity="0.14"/><rect x="847" y="403" width="202" height="11" rx="5" fill="#ffffff" opacity="0.10"/><path d="M0 544 L0 448 Q 192 395 416 502 L 544 544 Z" fill="#0a1626" opacity="0.75"/><rect x="0" y="544" width="1600" height="523" fill="url(#water5068)"/><rect x="405" y="591" width="544" height="4" fill="#ffd7d0" opacity="0.17"/><rect x="523" y="639" width="223" height="4" fill="#ffd7d0" opacity="0.24"/><rect x="459" y="686" width="367" height="4" fill="#ffd7d0" opacity="0.25"/><rect x="525" y="734" width="277" height="4" fill="#ffd7d0" opacity="0.29"/><rect x="501" y="781" width="246" height="4" fill="#ffd7d0" opacity="0.16"/><rect x="325" y="829" width="642" height="4" fill="#ffd7d0" opacity="0.21"/><rect x="362" y="876" width="734" height="4" fill="#ffd7d0" opacity="0.28"/><rect x="369" y="924" width="630" height="4" fill="#ffd7d0" opacity="0.17"/><rect x="537" y="971" width="267" height="4" fill="#ffd7d0" opacity="0.23"/><path d="M0 800 Q 560 747 1600 779 L 1600 1067 L 0 1067 Z" fill="#dccdb2" opacity="0.75"/><rect x="128" y="438" width="158" height="116" rx="3" fill="#e8e1d5" opacity="0.7"/><rect x="128" y="438" width="158" height="13" fill="#0a1626" opacity="0.3"/><rect x="310" y="447" width="201" height="107" rx="3" fill="#e8e1d5" opacity="0.7"/><rect x="310" y="447" width="201" height="12" fill="#0a1626" opacity="0.3"/><rect x="537" y="448" width="143" height="106" rx="3" fill="#e8e1d5" opacity="0.7"/><rect x="537" y="448" width="143" height="12" fill="#0a1626" opacity="0.3"/><rect x="704" y="465" width="133" height="89" rx="3" fill="#e8e1d5" opacity="0.7"/><rect x="704" y="465" width="133" height="10" fill="#0a1626" opacity="0.3"/><rect x="881" y="413" width="196" height="141" rx="3" fill="#e8e1d5" opacity="0.7"/><rect x="881" y="413" width="196" height="16" fill="#0a1626" opacity="0.3"/><rect x="1109" y="394" width="205" height="160" rx="3" fill="#e8e1d5" opacity="0.7"/><rect x="1109" y="394" width="205" height="19" fill="#0a1626" opacity="0.3"/><rect x="1382" y="414" width="222" height="140" rx="3" fill="#e8e1d5" opacity="0.7"/><rect x="1382" y="414" width="222" height="16" fill="#0a1626" opacity="0.3"/><path d="M544 940 q 9.28 -58.0 2.32 -104.4" stroke="#1d3a2a" stroke-width="5.22" fill="none" stroke-linecap="round"/><path d="M546.32 835.6 q -37.12 -17.864000000000004 -60.32 -4.315200000000002" stroke="#1d3a2a" stroke-width="5.800000000000001" fill="none" stroke-linecap="round"/><path d="M546.32 835.6 q -27.84 7.656000000000001 -45.24 24.4528" stroke="#1d3a2a" stroke-width="5.800000000000001" fill="none" stroke-linecap="round"/><path d="M546.32 835.6 q 37.12 -17.864000000000004 60.32 -4.315200000000002" stroke="#1d3a2a" stroke-width="5.800000000000001" fill="none" stroke-linecap="round"/><path d="M546.32 835.6 q 27.84 7.656000000000001 45.24 24.4528" stroke="#1d3a2a" stroke-width="5.800000000000001" fill="none" stroke-linecap="round"/><path d="M546.32 835.6 q 3.7120000000000006 -31.900000000000002 6.032000000000001 -20.137600000000003" stroke="#1d3a2a" stroke-width="5.800000000000001" fill="none" stroke-linecap="round"/><path d="M983 824 q 10.16 -63.5 2.54 -114.3" stroke="#1d3a2a" stroke-width="5.715" fill="none" stroke-linecap="round"/><path d="M985.54 709.7 q -40.64 -19.558000000000003 -66.04 -4.724400000000002" stroke="#1d3a2a" stroke-width="6.3500000000000005" fill="none" stroke-linecap="round"/><path d="M985.54 709.7 q -30.48 8.382000000000001 -49.53 26.771599999999996" stroke="#1d3a2a" stroke-width="6.3500000000000005" fill="none" stroke-linecap="round"/><path d="M985.54 709.7 q 40.64 -19.558000000000003 66.04 -4.724400000000002" stroke="#1d3a2a" stroke-width="6.3500000000000005" fill="none" stroke-linecap="round"/><path d="M985.54 709.7 q 30.48 8.382000000000001 49.53 26.771599999999996" stroke="#1d3a2a" stroke-width="6.3500000000000005" fill="none" stroke-linecap="round"/><path d="M985.54 709.7 q 4.064 -34.925000000000004 6.604000000000001 -22.0472" stroke="#1d3a2a" stroke-width="6.3500000000000005" fill="none" stroke-linecap="round"/><path d="M396 885 q 15.040000000000001 -94.0 3.7600000000000002 -169.20000000000002" stroke="#1d3a2a" stroke-width="8.459999999999999" fill="none" stroke-linecap="round"/><path d="M399.76 715.8 q -60.160000000000004 -28.952000000000005 -97.76 -6.9936000000000025" stroke="#1d3a2a" stroke-width="9.4" fill="none" stroke-linecap="round"/><path d="M399.76 715.8 q -45.12 12.408 -73.32000000000001 39.630399999999995" stroke="#1d3a2a" stroke-width="9.4" fill="none" stroke-linecap="round"/><path d="M399.76 715.8 q 60.160000000000004 -28.952000000000005 97.76 -6.9936000000000025" stroke="#1d3a2a" stroke-width="9.4" fill="none" stroke-linecap="round"/><path d="M399.76 715.8 q 45.12 12.408 73.32000000000001 39.630399999999995" stroke="#1d3a2a" stroke-width="9.4" fill="none" stroke-linecap="round"/><path d="M399.76 715.8 q 6.016 -51.7 9.776000000000002 -32.63680000000001" stroke="#1d3a2a" stroke-width="9.4" fill="none" stroke-linecap="round"/><path d="M554 811 q 11.84 -74.0 2.96 -133.20000000000002" stroke="#1d3a2a" stroke-width="6.66" fill="none" stroke-linecap="round"/><path d="M556.96 677.8 q -47.36 -22.792000000000005 -76.96000000000001 -5.505600000000003" stroke="#1d3a2a" stroke-width="7.4" fill="none" stroke-linecap="round"/><path d="M556.96 677.8 q -35.52 9.767999999999999 -57.72 31.198399999999996" stroke="#1d3a2a" stroke-width="7.4" fill="none" stroke-linecap="round"/><path d="M556.96 677.8 q 47.36 -22.792000000000005 76.96000000000001 -5.505600000000003" stroke="#1d3a2a" stroke-width="7.4" fill="none" stroke-linecap="round"/><path d="M556.96 677.8 q 35.52 9.767999999999999 57.72 31.198399999999996" stroke="#1d3a2a" stroke-width="7.4" fill="none" stroke-linecap="round"/><path d="M556.96 677.8 q 4.736000000000001 -40.7 7.696000000000001 -25.692800000000002" stroke="#1d3a2a" stroke-width="7.4" fill="none" stroke-linecap="round"/><defs>
      <linearGradient id="hz5068" x1="0" y1="0" x2="0" y2="1">
        <stop offset="0%" stop-color="#122036" stop-opacity="0.45"/>
        <stop offset="45%" stop-color="#122036" stop-opacity="0"/>
        <stop offset="100%" stop-color="#0a1626" stop-opacity="0.4"/>
      </linearGradient>
      <radialGradient id="vg5068" cx="0.5" cy="0.5" r="0.75">
        <stop offset="55%" stop-color="#000000" stop-opacity="0"/>
        <stop offset="100%" stop-color="#000000" stop-opacity="0.3"/>
      </radialGradient>
    </defs>
    <rect width="1600" height="1067" fill="url(#hz5068)"/>
    <rect width="1600" height="1067" fill="url(#vg5068)"/></svg>