<svg xmlns="http://www.w3.org/2000/svg" viewBox="0 0 1600 1067" width="1600" height="1067" role="img" aria-label="masterplan"><rect width="1600" height="1067" fill="#f2efe8"/><rect width="1600" height="1067" fill="#101d33" opacity="0.06"/><path d="M80 832 Q 560 533 880 661 T 1552 320" stroke="#8fae7f" stroke-width="96" fill="none" stroke-linecap="round" opacity="0.55"/><path d="M32 373 Q 480 213 832 448 T 1600 661" stroke="#16334c" stroke-width="58" fill="none" stroke-linecap="round" opacity="0.85"/><rect x="421" y="415" width="109" height="44" rx="2" fill="#08162a" opacity="0.31" transform="rotate(4 475 437)"/><rect x="1394" y="147" width="50" height="66" rx="2" fill="#08162a" opacity="0.66" transform="rotate(5 1419 180)"/><rect x="782" y="167" width="60" height="40" rx="2" fill="#08162a" opacity="0.36" transform="rotate(-7 812 187)"/><rect x="488" y="820" width="66" height="70" rx="2" fill="#08162a" opacity="0.64" transform="rotate(6 521 855)"/><rect x="960" y="182" width="54" height="67" rx="2" fill="#08162a" opacity="0.60" transform="rotate(-1 987 215)"/><rect x="730" y="874" width="73" height="32" rx="2" fill="#08162a" opacity="0.54" transform="rotate(-7 766 890)"/><rect x="1377" y="445" width="78" height="58" rx="2" fill="#08162a" opacity="0.69" transform="rotate(8 1416 474)"/><rect x="833" y="932" width="91" height="67" rx="2" fill="#08162a" opacity="0.65" transform="rotate(4 878 965)"/><rect x="80" y="331" width="62" height="66" rx="2" fill="#08162a" opacity="0.41" transform="rotate(0 111 364)"/><rect x="1108" y="228" width="54" height="66" rx="2" fill="#08162a" opacity="0.31" transform="rotate(-1 1135 261)"/><rect x="968" y="307" width="74" height="34" rx="2" fill="#08162a" opacity="0.64" transform="rotate(-7 1005 324)"/><rect x="1449" y="525" width="107" height="54" rx="2" fill="#08162a" opacity="0.62" transform="rotate(-2 1502 552)"/><rect x="974" y="309" width="108" height="36" rx="2" fill="#08162a" opacity="0.65" transform="rotate(-8 1028 327)"/><rect x="1307" y="670" width="71" height="64" rx="2" fill="#08162a" opacity="0.59" transform="rotate(2 1342 702)"/><rect x="1008" y="566" width="64" height="56" rx="2" fill="#08162a" opacity="0.58" transform="rotate(-7 1040 594)"/><rect x="701" y="235" width="96" height="33" rx="2" fill="#08162a" opacity="0.69" transform="rotate(1 749 251)"/><rect x="421" y="415" width="109" height="44" rx="2" fill="#08162a" opacity="0.31" transform="rotate(4 475 437)"/><rect x="1394" y="147" width="50" height="66" rx="2" fill="#08162a" opacity="0.66" transform="rotate(5 1419 180)"/><rect x="782" y="167" width="60" height="40" rx="2" fill="#08162a" opacity="0.36" transform="rotate(-7 812 187)"/><rect x="488" y="820" width="66" height="70" rx="2" fill="#08162a" opacity="0.64" transform="rotate(6 521 855)"/><rect x="960" y="182" width="54" height="67" rx="2" fill="#08162a" opacity="0.60" transform="rotate(-1 987 215)"/><rect x="730" y="874" width="73" height="32" rx="2" fill="#08162a" opacity="0.54" transform="rotate(-7 766 890)"/><rect x="1377" y="445" width="78" height="58" rx="2" fill="#08162a" opacity="0.69" transform="rotate(8 1416 474)"/><rect x="833" y="932" width="91" height="67" rx="2" fill="#08162a" opacity="0.65" transform="rotate(4 878 965)"/><rect x="80" y="331" width="62" height="66" rx="2" fill="#08162a" opacity="0.41" transform="rotate(0 111 364)"/><rect x="1108" y="228" width="54" height="66" rx="2" fill="#08162a" opacity="0.31" transform="rotate(-1 1135 261)"/><rect x="968" y="307" width="74" height="34" rx="2" fill="#08162a" opacity="0.64" transform="rotate(-7 1005 324)"/><rect x="1449" y="525" width="107" height="54" rx="2" fill="#08162a" opacity="0.62" transform="rotate(-2 1502 552)"/><rect x="974" y="309" width="108" height="36" rx="2" fill="#08162a" opacity="0.65" transform="rotate(-8 1028 327)"/><rect x="1307" y="670" width="71" height="64" rx="2" fill="#08162a" opacity="0.59" transform="rotate(2 1342 702)"/><rect x="1008" y="566" width="64" height="56" rx="2" fill="#08162a" opacity="0.58" transform="rotate(-7 1040 594)"/><rect x="701" y="235" width="96" height="33" rx="2" fill="#08162a" opacity="0.69" transform="rotate(1 749 251)"/><rect x="421" y="415" width="109" height="44" rx="2" fill="#08162a" opacity="0.31" transform="rotate(4 475 437)"/><rect x="1394" y="147" width="50" height="66" rx="2" fill="#08162a" opacity="0.66" transform="rotate(5 1419 180)"/><rect x="782" y="167" width="60" height="40" rx="2" fill="#08162a" opacity="0.36" transform="rotate(-7 812 187)"/><rect x="488" y="820" width="66" height="70" rx="2" fill="#08162a" opacity="0.64" transform="rotate(6 521 855)"/><rect x="960" y="182" width="54" height="67" rx="2" fill="#08162a" opacity="0.60" transform="rotate(-1 987 215)"/><rect x="730" y="874" width="73" height="32" rx="2" fill="#08162a" opacity="0.54" transform="rotate(-7 766 890)"/><path d="M0 396 Q 800 215 1600 399" stroke="#ffffff" stroke-width="12" fill="none" opacity="0.75"/><path d="M0 832 Q 800 683 1600 849" stroke="#ffffff" stroke-width="12" fill="none" opacity="0.75"/><path d="M0 789 Q 800 659 1600 772" stroke="#ffffff" stroke-width="12" fill="none" opacity="0.75"/><path d="M0 124 Q 800 14 1600 90" stroke="#ffffff" stroke-width="12" fill="none" opacity="0.75"/></svg>