<svg xmlns="http://www.w3.org/2000/svg" viewBox="0 0 1600 1067" width="1600" height="1067" role="img" aria-label="lagoon view">
  <defs>
    <linearGradient id="sky2938" x1="0" y1="0" x2="0" y2="1">
      <stop offset="0%" stop-color="#122036"/>
      <stop offset="55%" stop-color="#122036"/>
      <stop offset="100%" stop-color="#b58aa0"/>
    </linearGradient>
    <radialGradient id="glow2938" cx="0.525" cy="0.4395501405810684" r="0.55">
      <stop offset="0%" stop-color="#ffd7d0" stop-opacity="0.95"/>
      <stop offset="35%" stop-color="#b58aa0" stop-opacity="0.55"/>
      <stop offset="100%" stop-color="#b58aa0" stop-opacity="0"/>
    </radialGradient>
    <linearGradient id="water2938" x1="0" y1="0" x2="0" y2="1">
      <stop offset="0%" stop-color="#183a4d" stop-opacity="0.95"/>
      <stop offset="100%" stop-color="#0a1626"/>
    </linearGradient>
  </defs>
  <rect width="1600" height="1067" fill="url(#sky2938)"/>
  <rect width="1600" height="1067" fill="url(#glow2938)"/>
  <circle cx="840" cy="469" r="48" fill="#ffd7d0" opacity="0.9"/><rect x="660" y="352" width="431" height="23" rx="11" fill="#ffffff" opacity="0.13"/><rect x="1045" y="159" width="435" height="23" rx="11" fill="#ffffff" opacity="0.8"/><rect x="1049" y="306" width="539" height="29" rx="14" fill="#ffffff" opacity="0.8"/><rect x="935" y="137" width="370" height="20" rx="10" fill="#ffffff" opacity="0.12"/><rect x="343" y="192" width="272" height="14" rx="7" fill="#ffffff" opacity="0.13"/><path d="M0 501 L0 405 Q 192 352 416 459 L 544 501 Z" fill="#0a1626" opacity="0.75"/><rect x="0" y="501" width="1600" height="566" fill="url(#water2938)"/><rect x="609" y="552" width="421" height="4" fill="#ffd7d0" opacity="0.19"/><rect x="705" y="603" width="189" height="4" fill="#ffd7d0" opacity="0.20"/><rect x="657" y="655" width="467" height="4" fill="#ffd7d0" opacity="0.15"/><rect x="454" y="706" width="701" height="4" fill="#ffd7d0" opacity="0.25"/><rect x="732" y="758" width="192" height="4" fill="#ffd7d0" opacity="0.29"/><rect x="442" y="809" width="758" height="4" fill="#ffd7d0" opacity="0.34"/><rect x="672" y="861" width="392" height="4" fill="#ffd7d0" opacity="0.17"/><rect x="634" y="912" width="508" height="4" fill="#ffd7d0" opacity="0.29"/><rect x="643" y="964" width="418" height="4" fill="#ffd7d0" opacity="0.14"/><path d="M0 661 Q 400 565 800 661 T 1600 629 L 1600 1067 L 0 1067 Z" fill="#183a4d" opacity="0.92"/><path d="M0 682 Q 480 608 992 693 T 1600 661 " stroke="#ffffff" stroke-opacity="0.3" stroke-width="3" fill="none"/><rect x="160" y="373" width="168" height="160" rx="3" fill="#e4ddd1" opacity="0.7"/><rect x="170" y="480" width="12" height="10" fill="#33454f" opacity="0.46"/><rect x="170" y="503" width="12" height="10" fill="#33454f" opacity="0.52"/><rect x="192" y="385" width="12" height="10" fill="#33454f" opacity="0.40"/><rect x="192" y="456" width="12" height="10" fill="#33454f" opacity="0.47"/><rect x="192" y="503" width="12" height="10" fill="#33454f" opacity="0.33"/><rect x="213" y="432" width="12" height="10" fill="#33454f" opacity="0.37"/><rect x="213" y="456" width="12" height="10" fill="#33454f" opacity="0.55"/><rect x="213" y="480" width="12" height="10" fill="#33454f" opacity="0.52"/><rect x="213" y="503" width="12" height="10" fill="#33454f" opacity="0.30"/><rect x="235" y="385" width="12" height="10" fill="#33454f" opacity="0.62"/><rect x="235" y="409" width="12" height="10" fill="#33454f" opacity="0.38"/><rect x="235" y="432" width="12" height="10" fill="#33454f" opacity="0.38"/><rect x="257" y="385" width="12" height="10" fill="#33454f" opacity="0.46"/><rect x="257" y="409" width="12" height="10" fill="#33454f" opacity="0.52"/><rect x="257" y="432" width="12" height="10" fill="#33454f" opacity="0.40"/><rect x="257" y="503" width="12" height="10" fill="#33454f" opacity="0.47"/><rect x="279" y="409" width="12" height="10" fill="#33454f" opacity="0.33"/><rect x="279" y="480" width="12" height="10" fill="#33454f" opacity="0.37"/><rect x="279" y="503" width="12" height="10" fill="#33454f" opacity="0.55"/><rect x="300" y="385" width="12" height="10" fill="#33454f" opacity="0.52"/><rect x="300" y="409" width="12" height="10" fill="#33454f" opacity="0.30"/><rect x="300" y="432" width="12" height="10" fill="#33454f" opacity="0.62"/><rect x="300" y="456" width="12" height="10" fill="#33454f" opacity="0.38"/><rect x="300" y="480" width="12" height="10" fill="#33454f" opacity="0.38"/><rect x="346" y="353" width="224" height="180" rx="3" fill="#e4ddd1" opacity="0.7"/><rect x="356" y="365" width="11" height="11" fill="#33454f" opacity="0.34"/><rect x="356" y="392" width="11" height="11" fill="#33454f" opacity="0.32"/><rect x="356" y="500" width="11" height="11" fill="#33454f" opacity="0.47"/><rect x="377" y="392" width="11" height="11" fill="#33454f" opacity="0.33"/><rect x="377" y="473" width="11" height="11" fill="#33454f" opacity="0.37"/><rect x="377" y="500" width="11" height="11" fill="#33454f" opacity="0.55"/><rect x="398" y="365" width="11" height="11" fill="#33454f" opacity="0.52"/><rect x="398" y="392" width="11" height="11" fill="#33454f" opacity="0.30"/><rect x="398" y="419" width="11" height="11" fill="#33454f" opacity="0.62"/><rect x="398" y="446" width="11" height="11" fill="#33454f" opacity="0.38"/><rect x="398" y="473" width="11" height="11" fill="#33454f" opacity="0.38"/><rect x="418" y="419" width="11" height="11" fill="#33454f" opacity="0.46"/><rect x="418" y="446" width="11" height="11" fill="#33454f" opacity="0.52"/><rect x="418" y="473" width="11" height="11" fill="#33454f" opacity="0.40"/><rect x="439" y="392" width="11" height="11" fill="#33454f" opacity="0.47"/><rect x="439" y="446" width="11" height="11" fill="#33454f" opacity="0.33"/><rect x="460" y="365" width="11" height="11" fill="#33454f" opacity="0.37"/><rect x="460" y="392" width="11" height="11" fill="#33454f" opacity="0.55"/><rect x="460" y="419" width="11" height="11" fill="#33454f" opacity="0.52"/><rect x="460" y="446" width="11" height="11" fill="#33454f" opacity="0.30"/><rect x="460" y="473" width="11" height="11" fill="#33454f" opacity="0.62"/><rect x="460" y="500" width="11" height="11" fill="#33454f" opacity="0.38"/><rect x="481" y="365" width="11" height="11" fill="#33454f" opacity="0.38"/><rect x="481" y="473" width="11" height="11" fill="#33454f" opacity="0.46"/><rect x="481" y="500" width="11" height="11" fill="#33454f" opacity="0.52"/><rect x="502" y="365" width="11" height="11" fill="#33454f" opacity="0.40"/><rect x="502" y="446" width="11" height="11" fill="#33454f" opacity="0.47"/><rect x="502" y="500" width="11" height="11" fill="#33454f" opacity="0.33"/><rect x="522" y="419" width="11" height="11" fill="#33454f" opacity="0.37"/><rect x="522" y="446" width="11" height="11" fill="#33454f" opacity="0.55"/><rect x="522" y="473" width="11" height="11" fill="#33454f" opacity="0.52"/><rect x="522" y="500" width="11" height="11" fill="#33454f" opacity="0.30"/><rect x="543" y="365" width="11" height="11" fill="#33454f" opacity="0.62"/><rect x="543" y="392" width="11" height="11" fill="#33454f" opacity="0.38"/><rect x="543" y="419" width="11" height="11" fill="#33454f" opacity="0.38"/><rect x="634" y="354" width="164" height="179" rx="3" fill="#e4ddd1" opacity="0.7"/><rect x="644" y="366" width="12" height="11" fill="#33454f" opacity="0.32"/><rect x="644" y="473" width="12" height="11" fill="#33454f" opacity="0.47"/><rect x="665" y="366" width="12" height="11" fill="#33454f" opacity="0.33"/><rect x="665" y="446" width="12" height="11" fill="#33454f" opacity="0.37"/><rect x="665" y="473" width="12" height="11" fill="#33454f" opacity="0.55"/><rect x="665" y="500" width="12" height="11" fill="#33454f" opacity="0.52"/><rect x="686" y="366" width="12" height="11" fill="#33454f" opacity="0.30"/><rect x="686" y="393" width="12" height="11" fill="#33454f" opacity="0.62"/><rect x="686" y="420" width="12" height="11" fill="#33454f" opacity="0.38"/><rect x="686" y="446" width="12" height="11" fill="#33454f" opacity="0.38"/><rect x="707" y="393" width="12" height="11" fill="#33454f" opacity="0.46"/><rect x="707" y="420" width="12" height="11" fill="#33454f" opacity="0.52"/><rect x="707" y="446" width="12" height="11" fill="#33454f" opacity="0.40"/><rect x="729" y="366" width="12" height="11" fill="#33454f" opacity="0.47"/><rect x="729" y="420" width="12" height="11" fill="#33454f" opacity="0.33"/><rect x="729" y="500" width="12" height="11" fill="#33454f" opacity="0.37"/><rect x="750" y="366" width="12" height="11" fill="#33454f" opacity="0.55"/><rect x="750" y="393" width="12" height="11" fill="#33454f" opacity="0.52"/><rect x="750" y="420" width="12" height="11" fill="#33454f" opacity="0.30"/><rect x="750" y="446" width="12" height="11" fill="#33454f" opacity="0.62"/><rect x="750" y="473" width="12" height="11" fill="#33454f" opacity="0.38"/><rect x="750" y="500" width="12" height="11" fill="#33454f" opacity="0.38"/><rect x="771" y="446" width="12" height="11" fill="#33454f" opacity="0.46"/><rect x="771" y="473" width="12" height="11" fill="#33454f" opacity="0.52"/><rect x="771" y="500" width="12" height="11" fill="#33454f" opacity="0.40"/><rect x="815" y="411" width="159" height="122" rx="3" fill="#e4ddd1" opacity="0.7"/><rect x="825" y="475" width="11" height="11" fill="#33454f" opacity="0.33"/><rect x="845" y="449" width="11" height="11" fill="#33454f" opacity="0.37"/><rect x="845" y="475" width="11" height="11" fill="#33454f" opacity="0.55"/><rect x="845" y="501" width="11" height="11" fill="#33454f" opacity="0.52"/><rect x="866" y="423" width="11" height="11" fill="#33454f" opacity="0.30"/><rect x="866" y="449" width="11" height="11" fill="#33454f" opacity="0.62"/><rect x="866" y="475" width="11" height="11" fill="#33454f" opacity="0.38"/><rect x="866" y="501" width="11" height="11" fill="#33454f" opacity="0.38"/><rect x="886" y="501" width="11" height="11" fill="#33454f" opacity="0.46"/><rect x="907" y="423" width="11" height="11" fill="#33454f" opacity="0.52"/><rect x="907" y="449" width="11" height="11" fill="#33454f" opacity="0.40"/><rect x="927" y="423" width="11" height="11" fill="#33454f" opacity="0.47"/><rect x="927" y="475" width="11" height="11" fill="#33454f" opacity="0.33"/><rect x="948" y="449" width="11" height="11" fill="#33454f" opacity="0.37"/><rect x="948" y="475" width="11" height="11" fill="#33454f" opacity="0.55"/><rect x="948" y="501" width="11" height="11" fill="#33454f" opacity="0.52"/><rect x="1011" y="376" width="155" height="157" rx="3" fill="#e4ddd1" opacity="0.7"/><rect x="1021" y="388" width="11" height="10" fill="#33454f" opacity="0.62"/><rect x="1021" y="434" width="11" height="10" fill="#33454f" opacity="0.38"/><rect x="1041" y="388" width="11" height="10" fill="#33454f" opacity="0.46"/><rect x="1041" y="411" width="11" height="10" fill="#33454f" opacity="0.52"/><rect x="1041" y="434" width="11" height="10" fill="#33454f" opacity="0.40"/><rect x="1041" y="504" width="11" height="10" fill="#33454f" opacity="0.47"/><rect x="1061" y="411" width="11" height="10" fill="#33454f" opacity="0.33"/><rect x="1061" y="481" width="11" height="10" fill="#33454f" opacity="0.37"/><rect x="1061" y="504" width="11" height="10" fill="#33454f" opacity="0.55"/><rect x="1081" y="388" width="11" height="10" fill="#33454f" opacity="0.52"/><rect x="1081" y="411" width="11" height="10" fill="#33454f" opacity="0.30"/><rect x="1081" y="434" width="11" height="10" fill="#33454f" opacity="0.62"/><rect x="1081" y="458" width="11" height="10" fill="#33454f" opacity="0.38"/><rect x="1081" y="481" width="11" height="10" fill="#33454f" opacity="0.38"/><rect x="1100" y="434" width="11" height="10" fill="#33454f" opacity="0.46"/><rect x="1100" y="458" width="11" height="10" fill="#33454f" opacity="0.52"/><rect x="1100" y="481" width="11" height="10" fill="#33454f" opacity="0.40"/><rect x="1120" y="411" width="11" height="10" fill="#33454f" opacity="0.47"/><rect x="1120" y="458" width="11" height="10" fill="#33454f" opacity="0.33"/><rect x="1140" y="388" width="11" height="10" fill="#33454f" opacity="0.37"/><rect x="1140" y="411" width="11" height="10" fill="#33454f" opacity="0.55"/><rect x="1140" y="434" width="11" height="10" fill="#33454f" opacity="0.52"/><rect x="1140" y="458" width="11" height="10" fill="#33454f" opacity="0.30"/><rect x="1140" y="481" width="11" height="10" fill="#33454f" opacity="0.62"/><rect x="1140" y="504" width="11" height="10" fill="#33454f" opacity="0.38"/><rect x="1194" y="423" width="189" height="110" rx="3" fill="#e4ddd1" opacity="0.7"/><rect x="1204" y="481" width="12" height="10" fill="#33454f" opacity="0.46"/><rect x="1204" y="504" width="12" height="10" fill="#33454f" opacity="0.52"/><rect x="1226" y="435" width="12" height="10" fill="#33454f" opacity="0.40"/><rect x="1226" y="504" width="12" height="10" fill="#33454f" opacity="0.47"/><rect x="1247" y="458" width="12" height="10" fill="#33454f" opacity="0.33"/><rect x="1269" y="435" width="12" height="10" fill="#33454f" opacity="0.37"/><rect x="1269" y="458" width="12" height="10" fill="#33454f" opacity="0.55"/><rect x="1269" y="481" width="12" height="10" fill="#33454f" opacity="0.52"/><rect x="1269" y="504" width="12" height="10" fill="#33454f" opacity="0.30"/><rect x="1290" y="435" width="12" height="10" fill="#33454f" opacity="0.62"/><rect x="1290" y="458" width="12" height="10" fill="#33454f" opacity="0.38"/><rect x="1290" y="481" width="12" height="10" fill="#33454f" opacity="0.38"/><rect x="1312" y="481" width="12" height="10" fill="#33454f" opacity="0.46"/><rect x="1312" y="504" width="12" height="10" fill="#33454f" opacity="0.52"/><rect x="1334" y="435" width="12" height="10" fill="#33454f" opacity="0.40"/><rect x="1334" y="504" width="12" height="10" fill="#33454f" opacity="0.47"/><rect x="1355" y="458" width="12" height="10" fill="#33454f" opacity="0.33"/><path d="M483 729 q 9.36 -58.5 2.34 -105.3" stroke="#11322b" stroke-width="5.265" fill="none" stroke-linecap="round"/><path d="M485.34 623.7 q -37.44 -18.018000000000004 -60.84 -4.352400000000002" stroke="#11322b" stroke-width="5.8500000000000005" fill="none" stroke-linecap="round"/><path d="M485.34 623.7 q -28.080000000000002 7.722 -45.63 24.663599999999995" stroke="#11322b" stroke-width="5.8500000000000005" fill="none" stroke-linecap="round"/><path d="M485.34 623.7 q 37.44 -18.018000000000004 60.84 -4.352400000000002" stroke="#11322b" stroke-width="5.8500000000000005" fill="none" stroke-linecap="round"/><path d="M485.34 623.7 q 28.080000000000002 7.722 45.63 24.663599999999995" stroke="#11322b" stroke-width="5.8500000000000005" fill="none" stroke-linecap="round"/><path d="M485.34 623.7 q 3.744 -32.175000000000004 6.0840000000000005 -20.311200000000003" stroke="#11322b" stroke-width="5.8500000000000005" fill="none" stroke-linecap="round"/><path d="M1508 821 q 8.88 -55.5 2.22 -99.9" stroke="#11322b" stroke-width="4.995" fill="none" stroke-linecap="round"/><path d="M1510.22 721.1 q -35.52 -17.094 -57.72 -4.129200000000002" stroke="#11322b" stroke-width="5.550000000000001" fill="none" stroke-linecap="round"/><path d="M1510.22 721.1 q -26.64 7.3260000000000005 -43.29 23.398799999999998" stroke="#11322b" stroke-width="5.550000000000001" fill="none" stroke-linecap="round"/><path d="M1510.22 721.1 q 35.52 -17.094 57.72 -4.129200000000002" stroke="#11322b" stroke-width="5.550000000000001" fill="none" stroke-linecap="round"/><path d="M1510.22 721.1 q 26.64 7.3260000000000005 43.29 23.398799999999998" stroke="#11322b" stroke-width="5.550000000000001" fill="none" stroke-linecap="round"/><path d="M1510.22 721.1 q 3.5520000000000005 -30.525000000000002 5.772000000000001 -19.2696" stroke="#11322b" stroke-width="5.550000000000001" fill="none" stroke-linecap="round"/><path d="M785 699 q 11.44 -71.5 2.86 -128.70000000000002" stroke="#11322b" stroke-width="6.435" fill="none" stroke-linecap="round"/><path d="M787.86 570.3 q -45.76 -22.022000000000006 -74.36 -5.319600000000002" stroke="#11322b" stroke-width="7.15" fill="none" stroke-linecap="round"/><path d="M787.86 570.3 q -34.32 9.438 -55.77 30.144399999999997" stroke="#11322b" stroke-width="7.15" fill="none" stroke-linecap="round"/><path d="M787.86 570.3 q 45.76 -22.022000000000006 74.36 -5.319600000000002" stroke="#11322b" stroke-width="7.15" fill="none" stroke-linecap="round"/><path d="M787.86 570.3 q 34.32 9.438 55.77 30.144399999999997" stroke="#11322b" stroke-width="7.15" fill="none" stroke-linecap="round"/><path d="M787.86 570.3 q 4.5760000000000005 -39.325 7.436000000000001 -24.824800000000003" stroke="#11322b" stroke-width="7.15" fill="none" stroke-linecap="round"/><rect x="128" y="938" width="1344" height="96" rx="6" fill="#183a4d" opacity="0.85"/><rect x="128" y="938" width="1344" height="8" fill="#ffffff" opacity="0.28"/><defs>
      <linearGradient id="hz2938" x1="0" y1="0" x2="0" y2="1">
        <stop offset="0%" stop-color="#122036" stop-opacity="0.45"/>
        <stop offset="45%" stop-color="#122036" stop-opacity="0"/>
        <stop offset="100%" stop-color="#0a1626" stop-opacity="0.4"/>
      </linearGradient>
      <radialGradient id="vg2938" cx="0.5" cy="0.5" r="0.75">
        <stop offset="55%" stop-color="#000000" stop-opacity="0"/>
        <stop offset="100%" stop-color="#000000" stop-opacity="0.3"/>
      </radialGradient>
    </defs>
    <rect width="1600" height="1067" fill="url(#hz2938)"/>
    <rect width="1600" height="1067" fill="url(#vg2938)"/></svg>