<svg xmlns="http://www.w3.org/2000/svg" viewBox="0 0 1600 1067" width="1600" height="1067" role="img" aria-label="coastal view">
  <defs>
    <linearGradient id="sky3385" x1="0" y1="0" x2="0" y2="1">
      <stop offset="0%" stop-color="#122036"/>
      <stop offset="55%" stop-color="#122036"/>
      <stop offset="100%" stop-color="#b58aa0"/>
    </linearGradient>
    <radialGradient id="glow3385" cx="0.445" cy="0.5313964386129335" r="0.55">
      <stop offset="0%" stop-color="#ffd7d0" stop-opacity="0.95"/>
      <stop offset="35%" stop-color="#b58aa0" stop-opacity="0.55"/>
      <stop offset="100%" stop-color="#b58aa0" stop-opacity="0"/>
    </radialGradient>
    <linearGradient id="water3385" x1="0" y1="0" x2="0" y2="1">
      <stop offset="0%" stop-color="#183a4d" stop-opacity="0.95"/>
      <stop offset="100%" stop-color="#0a1626"/>
    </linearGradient>
  </defs>
  <rect width="1600" height="1067" fill="url(#sky3385)"/>
  <rect width="1600" height="1067" fill="url(#glow3385)"/>
  <circle cx="712" cy="567" r="48" fill="#ffd7d0" opacity="0.9"/><rect x="1365" y="416" width="431" height="23" rx="11" fill="#ffffff" opacity="0.13"/><rect x="647" y="449" width="504" height="27" rx="13" fill="#ffffff" opacity="0.12"/><rect x="977" y="240" width="293" height="16" rx="8" fill="#ffffff" opacity="0.13"/><rect x="1331" y="384" width="244" height="13" rx="6" fill="#ffffff" opacity="0.8"/><rect x="1489" y="382" width="416" height="22" rx="11" fill="#ffffff" opacity="0.10"/><path d="M0 608 L0 512 Q 192 459 416 566 L 544 608 Z" fill="#0a1626" opacity="0.75"/><rect x="0" y="608" width="1600" height="459" fill="url(#water3385)"/><rect x="477" y="649" width="364" height="4" fill="#ffd7d0" opacity="0.34"/><rect x="359" y="691" width="605" height="4" fill="#ffd7d0" opacity="0.12"/><rect x="456" y="733" width="418" height="4" fill="#ffd7d0" opacity="0.29"/><rect x="303" y="774" width="709" height="4" fill="#ffd7d0" opacity="0.25"/><rect x="401" y="816" width="556" height="4" fill="#ffd7d0" opacity="0.28"/><rect x="668" y="858" width="174" height="4" fill="#ffd7d0" opacity="0.21"/><rect x="526" y="900" width="369" height="4" fill="#ffd7d0" opacity="0.34"/><rect x="287" y="941" width="800" height="4" fill="#ffd7d0" opacity="0.33"/><rect x="388" y="983" width="700" height="4" fill="#ffd7d0" opacity="0.30"/><path d="M0 768 Q 560 715 1600 747 L 1600 1067 L 0 1067 Z" fill="#dccdb2" opacity="0.75"/><rect x="128" y="485" width="174" height="133" rx="3" fill="#e8e1d5" opacity="0.7"/><rect x="128" y="485" width="174" height="15" fill="#0a1626" opacity="0.3"/><rect x="362" y="458" width="128" height="160" rx="3" fill="#e8e1d5" opacity="0.7"/><rect x="362" y="458" width="128" height="19" fill="#0a1626" opacity="0.3"/><rect x="540" y="496" width="214" height="122" rx="3" fill="#e8e1d5" opacity="0.7"/><rect x="540" y="496" width="214" height="14" fill="#0a1626" opacity="0.3"/><rect x="780" y="473" width="170" height="145" rx="3" fill="#e8e1d5" opacity="0.7"/><rect x="780" y="473" width="170" height="17" fill="#0a1626" opacity="0.3"/><rect x="994" y="508" width="203" height="110" rx="3" fill="#e8e1d5" opacity="0.7"/><rect x="994" y="508" width="203" height="13" fill="#0a1626" opacity="0.3"/><rect x="1252" y="532" width="182" height="86" rx="3" fill="#e8e1d5" opacity="0.7"/><rect x="1252" y="532" width="182" height="10" fill="#0a1626" opacity="0.3"/><path d="M421 811 q 11.68 -73.0 2.92 -131.4" stroke="#1d3a2a" stroke-width="6.569999999999999" fill="none" stroke-linecap="round"/><path d="M423.92 679.6 q -46.72 -22.484 -75.92 -5.431200000000002" stroke="#1d3a2a" stroke-width="7.300000000000001" fill="none" stroke-linecap="round"/><path d="M423.92 679.6 q -35.04 9.636000000000001 -56.940000000000005 30.776799999999994" stroke="#1d3a2a" stroke-width="7.300000000000001" fill="none" stroke-linecap="round"/><path d="M423.92 679.6 q 46.72 -22.484 75.92 -5.431200000000002" stroke="#1d3a2a" stroke-width="7.300000000000001" fill="none" stroke-linecap="round"/><path d="M423.92 679.6 q 35.04 9.636000000000001 56.940000000000005 30.776799999999994" stroke="#1d3a2a" stroke-width="7.300000000000001" fill="none" stroke-linecap="round"/><path d="M423.92 679.6 q 4.672000000000001 -40.150000000000006 7.592000000000001 -25.3456" stroke="#1d3a2a" stroke-width="7.300000000000001" fill="none" stroke-linecap="round"/><path d="M134 898 q 10.4 -65.0 2.6 -117.0" stroke="#1d3a2a" stroke-width="5.85" fill="none" stroke-linecap="round"/><path d="M136.6 781.0 q -41.6 -20.020000000000003 -67.60000000000001 -4.836000000000002" stroke="#1d3a2a" stroke-width="6.5" fill="none" stroke-linecap="round"/><path d="M136.6 781.0 q -31.2 8.58 -50.7 27.403999999999996" stroke="#1d3a2a" stroke-width="6.5" fill="none" stroke-linecap="round"/><path d="M136.6 781.0 q 41.6 -20.020000000000003 67.60000000000001 -4.836000000000002" stroke="#1d3a2a" stroke-width="6.5" fill="none" stroke-linecap="round"/><path d="M136.6 781.0 q 31.2 8.58 50.7 27.403999999999996" stroke="#1d3a2a" stroke-width="6.5" fill="none" stroke-linecap="round"/><path d="M136.6 781.0 q 4.16 -35.75 6.76 -22.568000000000005" stroke="#1d3a2a" stroke-width="6.5" fill="none" stroke-linecap="round"/><path d="M1362 906 q 10.16 -63.5 2.54 -114.3" stroke="#1d3a2a" stroke-width="5.715" fill="none" stroke-linecap="round"/><path d="M1364.54 791.7 q -40.64 -19.558000000000003 -66.04 -4.724400000000002" stroke="#1d3a2a" stroke-width="6.3500000000000005" fill="none" stroke-linecap="round"/><path d="M1364.54 791.7 q -30.48 8.382000000000001 -49.53 26.771599999999996" stroke="#1d3a2a" stroke-width="6.3500000000000005" fill="none" stroke-linecap="round"/><path d="M1364.54 791.7 q 40.64 -19.558000000000003 66.04 -4.724400000000002" stroke="#1d3a2a" stroke-width="6.3500000000000005" fill="none" stroke-linecap="round"/><path d="M1364.54 791.7 q 30.48 8.382000000000001 49.53 26.771599999999996" stroke="#1d3a2a" stroke-width="6.3500000000000005" fill="none" stroke-linecap="round"/><path d="M1364.54 791.7 q 4.064 -34.925000000000004 6.604000000000001 -22.0472" stroke="#1d3a2a" stroke-width="6.3500000000000005" fill="none" stroke-linecap="round"/><path d="M617 863 q 10.4 -65.0 2.6 -117.0" stroke="#1d3a2a" stroke-width="5.85" fill="none" stroke-linecap="round"/><path d="M619.6 746.0 q -41.6 -20.020000000000003 -67.60000000000001 -4.836000000000002" stroke="#1d3a2a" stroke-width="6.5" fill="none" stroke-linecap="round"/><path d="M619.6 746.0 q -31.2 8.58 -50.7 27.403999999999996" stroke="#1d3a2a" stroke-width="6.5" fill="none" stroke-linecap="round"/><path d="M619.6 746.0 q 41.6 -20.020000000000003 67.60000000000001 -4.836000000000002" stroke="#1d3a2a" stroke-width="6.5" fill="none" stroke-linecap="round"/><path d="M619.6 746.0 q 31.2 8.58 50.7 27.403999999999996" stroke="#1d3a2a" stroke-width="6.5" fill="none" stroke-linecap="round"/><path d="M619.6 746.0 q 4.16 -35.75 6.76 -22.568000000000005" stroke="#1d3a2a" stroke-width="6.5" fill="none" stroke-linecap="round"/><defs>
      <linearGradient id="hz3385" x1="0" y1="0" x2="0" y2="1">
        <stop offset="0%" stop-color="#122036" stop-opacity="0.45"/>
        <stop offset="45%" stop-color="#122036" stop-opacity="0"/>
        <stop offset="100%" stop-color="#0a1626" stop-opacity="0.4"/>
      </linearGradient>
      <radialGradient id="vg3385" cx="0.5" cy="0.5" r="0.75">
        <stop offset="55%" stop-color="#000000" stop-opacity="0"/>
        <stop offset="100%" stop-color="#000000" stop-opacity="0.3"/>
      </radialGradient>
    </defs>
    <rect width="1600" height="1067" fill="url(#hz3385)"/>
    <rect width="1600" height="1067" fill="url(#vg3385)"/></svg>