<svg xmlns="http://www.w3.org/2000/svg" viewBox="0 0 1600 1067" width="1600" height="1067" role="img" aria-label="skyline view">
  <defs>
    <linearGradient id="sky9733" x1="0" y1="0" x2="0" y2="1">
      <stop offset="0%" stop-color="#122036"/>
      <stop offset="55%" stop-color="#122036"/>
      <stop offset="100%" stop-color="#b58aa0"/>
    </linearGradient>
    <radialGradient id="glow9733" cx="0.56375" cy="0.5060918462980318" r="0.55">
      <stop offset="0%" stop-color="#ffd7d0" stop-opacity="0.95"/>
      <stop offset="35%" stop-color="#b58aa0" stop-opacity="0.55"/>
      <stop offset="100%" stop-color="#b58aa0" stop-opacity="0"/>
    </radialGradient>
    <linearGradient id="water9733" x1="0" y1="0" x2="0" y2="1">
      <stop offset="0%" stop-color="#183a4d" stop-opacity="0.95"/>
      <stop offset="100%" stop-color="#0a1626"/>
    </linearGradient>
  </defs>
  <rect width="1600" height="1067" fill="url(#sky9733)"/>
  <rect width="1600" height="1067" fill="url(#glow9733)"/>
  <circle cx="902" cy="540" r="48" fill="#ffd7d0" opacity="0.9"/><rect x="593" y="194" width="470" height="25" rx="12" fill="#ffffff" opacity="0.14"/><rect x="93" y="185" width="221" height="12" rx="6" fill="#ffffff" opacity="0.13"/><rect x="1370" y="239" width="205" height="11" rx="5" fill="#ffffff" opacity="0.8"/><rect x="611" y="107" width="229" height="12" rx="6" fill="#ffffff" opacity="0.8"/><rect x="1354" y="398" width="234" height="12" rx="6" fill="#ffffff" opacity="0.12"/><path d="M0 640 L0 544 Q 192 491 416 598 L 544 640 Z" fill="#0a1626" opacity="0.75"/><rect x="0" y="640" width="1600" height="427" fill="url(#water9733)"/><rect x="696" y="678" width="495" height="4" fill="#ffd7d0" opacity="0.17"/><rect x="712" y="717" width="417" height="4" fill="#ffd7d0" opacity="0.17"/><rect x="586" y="756" width="682" height="4" fill="#ffd7d0" opacity="0.32"/><rect x="527" y="795" width="630" height="4" fill="#ffd7d0" opacity="0.24"/><rect x="763" y="834" width="193" height="4" fill="#ffd7d0" opacity="0.18"/><rect x="797" y="872" width="268" height="4" fill="#ffd7d0" opacity="0.29"/><rect x="551" y="911" width="753" height="4" fill="#ffd7d0" opacity="0.34"/><rect x="662" y="950" width="534" height="4" fill="#ffd7d0" opacity="0.20"/><rect x="666" y="989" width="461" height="4" fill="#ffd7d0" opacity="0.29"/><rect x="128" y="240" width="134" height="421" fill="#0a1626" opacity="0.95"/><rect x="138" y="252" width="11" height="11" fill="#ffd7d0" opacity="0.53"/><rect x="138" y="277" width="11" height="11" fill="#ffd7d0" opacity="0.37"/><rect x="138" y="403" width="11" height="11" fill="#ffd7d0" opacity="0.41"/><rect x="138" y="428" width="11" height="11" fill="#ffd7d0" opacity="0.54"/><rect x="138" y="454" width="11" height="11" fill="#ffd7d0" opacity="0.29"/><rect x="138" y="479" width="11" height="11" fill="#ffd7d0" opacity="0.56"/><rect x="138" y="504" width="11" height="11" fill="#ffd7d0" opacity="0.61"/><rect x="138" y="605" width="11" height="11" fill="#ffd7d0" opacity="0.39"/><rect x="158" y="277" width="11" height="11" fill="#ffd7d0" opacity="0.50"/><rect x="158" y="328" width="11" height="11" fill="#ffd7d0" opacity="0.54"/><rect x="158" y="353" width="11" height="11" fill="#ffd7d0" opacity="0.50"/><rect x="158" y="378" width="11" height="11" fill="#ffd7d0" opacity="0.53"/><rect x="158" y="403" width="11" height="11" fill="#ffd7d0" opacity="0.37"/><rect x="158" y="529" width="11" height="11" fill="#ffd7d0" opacity="0.41"/><rect x="158" y="554" width="11" height="11" fill="#ffd7d0" opacity="0.54"/><rect x="158" y="579" width="11" height="11" fill="#ffd7d0" opacity="0.29"/><rect x="158" y="605" width="11" height="11" fill="#ffd7d0" opacity="0.56"/><rect x="158" y="630" width="11" height="11" fill="#ffd7d0" opacity="0.61"/><rect x="177" y="328" width="11" height="11" fill="#ffd7d0" opacity="0.39"/><rect x="177" y="403" width="11" height="11" fill="#ffd7d0" opacity="0.50"/><rect x="177" y="454" width="11" height="11" fill="#ffd7d0" opacity="0.54"/><rect x="177" y="479" width="11" height="11" fill="#ffd7d0" opacity="0.50"/><rect x="177" y="504" width="11" height="11" fill="#ffd7d0" opacity="0.53"/><rect x="177" y="529" width="11" height="11" fill="#ffd7d0" opacity="0.37"/><rect x="197" y="252" width="11" height="11" fill="#ffd7d0" opacity="0.41"/><rect x="197" y="277" width="11" height="11" fill="#ffd7d0" opacity="0.54"/><rect x="197" y="302" width="11" height="11" fill="#ffd7d0" opacity="0.29"/><rect x="197" y="328" width="11" height="11" fill="#ffd7d0" opacity="0.56"/><rect x="197" y="353" width="11" height="11" fill="#ffd7d0" opacity="0.61"/><rect x="197" y="454" width="11" height="11" fill="#ffd7d0" opacity="0.39"/><rect x="197" y="529" width="11" height="11" fill="#ffd7d0" opacity="0.50"/><rect x="197" y="579" width="11" height="11" fill="#ffd7d0" opacity="0.54"/><rect x="197" y="605" width="11" height="11" fill="#ffd7d0" opacity="0.50"/><rect x="197" y="630" width="11" height="11" fill="#ffd7d0" opacity="0.53"/><rect x="217" y="252" width="11" height="11" fill="#ffd7d0" opacity="0.37"/><rect x="217" y="378" width="11" height="11" fill="#ffd7d0" opacity="0.41"/><rect x="217" y="403" width="11" height="11" fill="#ffd7d0" opacity="0.54"/><rect x="217" y="428" width="11" height="11" fill="#ffd7d0" opacity="0.29"/><rect x="217" y="454" width="11" height="11" fill="#ffd7d0" opacity="0.56"/><rect x="217" y="479" width="11" height="11" fill="#ffd7d0" opacity="0.61"/><rect x="217" y="579" width="11" height="11" fill="#ffd7d0" opacity="0.39"/><rect x="236" y="252" width="11" height="11" fill="#ffd7d0" opacity="0.50"/><rect x="236" y="302" width="11" height="11" fill="#ffd7d0" opacity="0.54"/><rect x="236" y="328" width="11" height="11" fill="#ffd7d0" opacity="0.50"/><rect x="236" y="353" width="11" height="11" fill="#ffd7d0" opacity="0.53"/><rect x="236" y="378" width="11" height="11" fill="#ffd7d0" opacity="0.37"/><rect x="236" y="504" width="11" height="11" fill="#ffd7d0" opacity="0.41"/><rect x="236" y="529" width="11" height="11" fill="#ffd7d0" opacity="0.54"/><rect x="236" y="554" width="11" height="11" fill="#ffd7d0" opacity="0.29"/><rect x="236" y="579" width="11" height="11" fill="#ffd7d0" opacity="0.56"/><rect x="236" y="605" width="11" height="11" fill="#ffd7d0" opacity="0.61"/><rect x="278" y="443" width="93" height="218" fill="#0a1626" opacity="0.95"/><rect x="288" y="455" width="11" height="10" fill="#ffd7d0" opacity="0.31"/><rect x="288" y="505" width="11" height="10" fill="#ffd7d0" opacity="0.50"/><rect x="288" y="555" width="11" height="10" fill="#ffd7d0" opacity="0.54"/><rect x="288" y="580" width="11" height="10" fill="#ffd7d0" opacity="0.50"/><rect x="288" y="605" width="11" height="10" fill="#ffd7d0" opacity="0.53"/><rect x="288" y="630" width="11" height="10" fill="#ffd7d0" opacity="0.37"/><rect x="307" y="555" width="11" height="10" fill="#ffd7d0" opacity="0.41"/><rect x="307" y="580" width="11" height="10" fill="#ffd7d0" opacity="0.54"/><rect x="307" y="605" width="11" height="10" fill="#ffd7d0" opacity="0.29"/><rect x="307" y="630" width="11" height="10" fill="#ffd7d0" opacity="0.56"/><rect x="326" y="455" width="11" height="10" fill="#ffd7d0" opacity="0.61"/><rect x="326" y="555" width="11" height="10" fill="#ffd7d0" opacity="0.39"/><rect x="326" y="630" width="11" height="10" fill="#ffd7d0" opacity="0.50"/><rect x="346" y="480" width="11" height="10" fill="#ffd7d0" opacity="0.54"/><rect x="346" y="505" width="11" height="10" fill="#ffd7d0" opacity="0.50"/><rect x="346" y="530" width="11" height="10" fill="#ffd7d0" opacity="0.53"/><rect x="346" y="555" width="11" height="10" fill="#ffd7d0" opacity="0.37"/><rect x="397" y="451" width="82" height="210" fill="#0a1626" opacity="0.95"/><rect x="407" y="463" width="12" height="10" fill="#ffd7d0" opacity="0.54"/><rect x="407" y="487" width="12" height="10" fill="#ffd7d0" opacity="0.29"/><rect x="407" y="511" width="12" height="10" fill="#ffd7d0" opacity="0.56"/><rect x="407" y="535" width="12" height="10" fill="#ffd7d0" opacity="0.61"/><rect x="407" y="631" width="12" height="10" fill="#ffd7d0" opacity="0.39"/><rect x="429" y="511" width="12" height="10" fill="#ffd7d0" opacity="0.50"/><rect x="429" y="559" width="12" height="10" fill="#ffd7d0" opacity="0.54"/><rect x="429" y="583" width="12" height="10" fill="#ffd7d0" opacity="0.50"/><rect x="429" y="607" width="12" height="10" fill="#ffd7d0" opacity="0.53"/><rect x="429" y="631" width="12" height="10" fill="#ffd7d0" opacity="0.37"/><rect x="451" y="559" width="12" height="10" fill="#ffd7d0" opacity="0.41"/><rect x="451" y="583" width="12" height="10" fill="#ffd7d0" opacity="0.54"/><rect x="451" y="607" width="12" height="10" fill="#ffd7d0" opacity="0.29"/><rect x="451" y="631" width="12" height="10" fill="#ffd7d0" opacity="0.56"/><rect x="504" y="303" width="103" height="358" fill="#0a1626" opacity="0.95"/><rect x="514" y="367" width="12" height="11" fill="#ffd7d0" opacity="0.39"/><rect x="514" y="446" width="12" height="11" fill="#ffd7d0" opacity="0.50"/><rect x="514" y="498" width="12" height="11" fill="#ffd7d0" opacity="0.54"/><rect x="514" y="524" width="12" height="11" fill="#ffd7d0" opacity="0.50"/><rect x="514" y="550" width="12" height="11" fill="#ffd7d0" opacity="0.53"/><rect x="514" y="577" width="12" height="11" fill="#ffd7d0" opacity="0.37"/><rect x="536" y="367" width="12" height="11" fill="#ffd7d0" opacity="0.41"/><rect x="536" y="393" width="12" height="11" fill="#ffd7d0" opacity="0.54"/><rect x="536" y="420" width="12" height="11" fill="#ffd7d0" opacity="0.29"/><rect x="536" y="446" width="12" height="11" fill="#ffd7d0" opacity="0.56"/><rect x="536" y="472" width="12" height="11" fill="#ffd7d0" opacity="0.61"/><rect x="536" y="577" width="12" height="11" fill="#ffd7d0" opacity="0.39"/><rect x="558" y="315" width="12" height="11" fill="#ffd7d0" opacity="0.50"/><rect x="558" y="367" width="12" height="11" fill="#ffd7d0" opacity="0.54"/><rect x="558" y="393" width="12" height="11" fill="#ffd7d0" opacity="0.50"/><rect x="558" y="420" width="12" height="11" fill="#ffd7d0" opacity="0.53"/><rect x="558" y="446" width="12" height="11" fill="#ffd7d0" opacity="0.37"/><rect x="558" y="577" width="12" height="11" fill="#ffd7d0" opacity="0.41"/><rect x="558" y="603" width="12" height="11" fill="#ffd7d0" opacity="0.54"/><rect x="558" y="629" width="12" height="11" fill="#ffd7d0" opacity="0.29"/><rect x="579" y="315" width="12" height="11" fill="#ffd7d0" opacity="0.56"/><rect x="579" y="341" width="12" height="11" fill="#ffd7d0" opacity="0.61"/><rect x="579" y="446" width="12" height="11" fill="#ffd7d0" opacity="0.39"/><rect x="579" y="524" width="12" height="11" fill="#ffd7d0" opacity="0.50"/><rect x="579" y="577" width="12" height="11" fill="#ffd7d0" opacity="0.54"/><rect x="579" y="603" width="12" height="11" fill="#ffd7d0" opacity="0.50"/><rect x="579" y="629" width="12" height="11" fill="#ffd7d0" opacity="0.53"/><rect x="625" y="408" width="93" height="253" fill="#0a1626" opacity="0.95"/><rect x="635" y="498" width="11" height="11" fill="#ffd7d0" opacity="0.41"/><rect x="635" y="524" width="11" height="11" fill="#ffd7d0" opacity="0.54"/><rect x="635" y="551" width="11" height="11" fill="#ffd7d0" opacity="0.29"/><rect x="635" y="577" width="11" height="11" fill="#ffd7d0" opacity="0.56"/><rect x="635" y="603" width="11" height="11" fill="#ffd7d0" opacity="0.61"/><rect x="654" y="472" width="11" height="11" fill="#ffd7d0" opacity="0.39"/><rect x="654" y="551" width="11" height="11" fill="#ffd7d0" opacity="0.50"/><rect x="654" y="603" width="11" height="11" fill="#ffd7d0" opacity="0.54"/><rect x="654" y="629" width="11" height="11" fill="#ffd7d0" opacity="0.50"/><rect x="674" y="420" width="11" height="11" fill="#ffd7d0" opacity="0.53"/><rect x="674" y="446" width="11" height="11" fill="#ffd7d0" opacity="0.37"/><rect x="674" y="577" width="11" height="11" fill="#ffd7d0" opacity="0.41"/><rect x="674" y="603" width="11" height="11" fill="#ffd7d0" opacity="0.54"/><rect x="674" y="629" width="11" height="11" fill="#ffd7d0" opacity="0.29"/><rect x="693" y="420" width="11" height="11" fill="#ffd7d0" opacity="0.56"/><rect x="693" y="446" width="11" height="11" fill="#ffd7d0" opacity="0.61"/><rect x="693" y="551" width="11" height="11" fill="#ffd7d0" opacity="0.39"/><rect x="693" y="629" width="11" height="11" fill="#ffd7d0" opacity="0.50"/><rect x="739" y="262" width="167" height="399" fill="#0a1626" opacity="0.95"/><rect x="749" y="274" width="12" height="11" fill="#ffd7d0" opacity="0.50"/><rect x="749" y="299" width="12" height="11" fill="#ffd7d0" opacity="0.53"/><rect x="749" y="325" width="12" height="11" fill="#ffd7d0" opacity="0.37"/><rect x="749" y="452" width="12" height="11" fill="#ffd7d0" opacity="0.41"/><rect x="749" y="477" width="12" height="11" fill="#ffd7d0" opacity="0.54"/><rect x="749" y="503" width="12" height="11" fill="#ffd7d0" opacity="0.29"/><rect x="749" y="528" width="12" height="11" fill="#ffd7d0" opacity="0.56"/><rect x="749" y="553" width="12" height="11" fill="#ffd7d0" opacity="0.61"/><rect x="771" y="274" width="12" height="11" fill="#ffd7d0" opacity="0.39"/><rect x="771" y="350" width="12" height="11" fill="#ffd7d0" opacity="0.50"/><rect x="771" y="401" width="12" height="11" fill="#ffd7d0" opacity="0.54"/><rect x="771" y="426" width="12" height="11" fill="#ffd7d0" opacity="0.50"/><rect x="771" y="452" width="12" height="11" fill="#ffd7d0" opacity="0.53"/><rect x="771" y="477" width="12" height="11" fill="#ffd7d0" opacity="0.37"/><rect x="771" y="604" width="12" height="11" fill="#ffd7d0" opacity="0.41"/><rect x="771" y="630" width="12" height="11" fill="#ffd7d0" opacity="0.54"/><rect x="792" y="274" width="12" height="11" fill="#ffd7d0" opacity="0.29"/><rect x="792" y="299" width="12" height="11" fill="#ffd7d0" opacity="0.56"/><rect x="792" y="325" width="12" height="11" fill="#ffd7d0" opacity="0.61"/><rect x="792" y="426" width="12" height="11" fill="#ffd7d0" opacity="0.39"/><rect x="792" y="503" width="12" height="11" fill="#ffd7d0" opacity="0.50"/><rect x="792" y="553" width="12" height="11" fill="#ffd7d0" opacity="0.54"/><rect x="792" y="579" width="12" height="11" fill="#ffd7d0" opacity="0.50"/><rect x="792" y="604" width="12" height="11" fill="#ffd7d0" opacity="0.53"/><rect x="792" y="630" width="12" height="11" fill="#ffd7d0" opacity="0.37"/><rect x="814" y="376" width="12" height="11" fill="#ffd7d0" opacity="0.41"/><rect x="814" y="401" width="12" height="11" fill="#ffd7d0" opacity="0.54"/><rect x="814" y="426" width="12" height="11" fill="#ffd7d0" opacity="0.29"/><rect x="814" y="452" width="12" height="11" fill="#ffd7d0" opacity="0.56"/><rect x="814" y="477" width="12" height="11" fill="#ffd7d0" opacity="0.61"/><rect x="814" y="579" width="12" height="11" fill="#ffd7d0" opacity="0.39"/><rect x="835" y="274" width="12" height="11" fill="#ffd7d0" opacity="0.50"/><rect x="835" y="325" width="12" height="11" fill="#ffd7d0" opacity="0.54"/><rect x="835" y="350" width="12" height="11" fill="#ffd7d0" opacity="0.50"/><rect x="835" y="376" width="12" height="11" fill="#ffd7d0" opacity="0.53"/><rect x="835" y="401" width="12" height="11" fill="#ffd7d0" opacity="0.37"/><rect x="835" y="528" width="12" height="11" fill="#ffd7d0" opacity="0.41"/><rect x="835" y="553" width="12" height="11" fill="#ffd7d0" opacity="0.54"/><rect x="835" y="579" width="12" height="11" fill="#ffd7d0" opacity="0.29"/><rect x="835" y="604" width="12" height="11" fill="#ffd7d0" opacity="0.56"/><rect x="835" y="630" width="12" height="11" fill="#ffd7d0" opacity="0.61"/><rect x="857" y="350" width="12" height="11" fill="#ffd7d0" opacity="0.39"/><rect x="857" y="426" width="12" height="11" fill="#ffd7d0" opacity="0.50"/><rect x="857" y="477" width="12" height="11" fill="#ffd7d0" opacity="0.54"/><rect x="857" y="503" width="12" height="11" fill="#ffd7d0" opacity="0.50"/><rect x="857" y="528" width="12" height="11" fill="#ffd7d0" opacity="0.53"/><rect x="857" y="553" width="12" height="11" fill="#ffd7d0" opacity="0.37"/><rect x="878" y="299" width="12" height="11" fill="#ffd7d0" opacity="0.41"/><rect x="878" y="325" width="12" height="11" fill="#ffd7d0" opacity="0.54"/><rect x="878" y="350" width="12" height="11" fill="#ffd7d0" opacity="0.29"/><rect x="878" y="376" width="12" height="11" fill="#ffd7d0" opacity="0.56"/><rect x="878" y="401" width="12" height="11" fill="#ffd7d0" opacity="0.61"/><rect x="878" y="503" width="12" height="11" fill="#ffd7d0" opacity="0.39"/><rect x="878" y="579" width="12" height="11" fill="#ffd7d0" opacity="0.50"/><rect x="878" y="630" width="12" height="11" fill="#ffd7d0" opacity="0.54"/><rect x="920" y="245" width="168" height="416" fill="#0a1626" opacity="0.95"/><rect x="930" y="282" width="12" height="10" fill="#ffd7d0" opacity="0.37"/><rect x="930" y="406" width="12" height="10" fill="#ffd7d0" opacity="0.41"/><rect x="930" y="431" width="12" height="10" fill="#ffd7d0" opacity="0.54"/><rect x="930" y="456" width="12" height="10" fill="#ffd7d0" opacity="0.29"/><rect x="930" y="481" width="12" height="10" fill="#ffd7d0" opacity="0.56"/><rect x="930" y="506" width="12" height="10" fill="#ffd7d0" opacity="0.61"/><rect x="930" y="605" width="12" height="10" fill="#ffd7d0" opacity="0.39"/><rect x="952" y="282" width="12" height="10" fill="#ffd7d0" opacity="0.50"/><rect x="952" y="332" width="12" height="10" fill="#ffd7d0" opacity="0.54"/><rect x="952" y="356" width="12" height="10" fill="#ffd7d0" opacity="0.50"/><rect x="952" y="381" width="12" height="10" fill="#ffd7d0" opacity="0.53"/><rect x="952" y="406" width="12" height="10" fill="#ffd7d0" opacity="0.37"/><rect x="952" y="531" width="12" height="10" fill="#ffd7d0" opacity="0.41"/><rect x="952" y="556" width="12" height="10" fill="#ffd7d0" opacity="0.54"/><rect x="952" y="580" width="12" height="10" fill="#ffd7d0" opacity="0.29"/><rect x="952" y="605" width="12" height="10" fill="#ffd7d0" opacity="0.56"/><rect x="952" y="630" width="12" height="10" fill="#ffd7d0" opacity="0.61"/><rect x="973" y="332" width="12" height="10" fill="#ffd7d0" opacity="0.39"/><rect x="973" y="406" width="12" height="10" fill="#ffd7d0" opacity="0.50"/><rect x="973" y="456" width="12" height="10" fill="#ffd7d0" opacity="0.54"/><rect x="973" y="481" width="12" height="10" fill="#ffd7d0" opacity="0.50"/><rect x="973" y="506" width="12" height="10" fill="#ffd7d0" opacity="0.53"/><rect x="973" y="531" width="12" height="10" fill="#ffd7d0" opacity="0.37"/><rect x="995" y="257" width="12" height="10" fill="#ffd7d0" opacity="0.41"/><rect x="995" y="282" width="12" height="10" fill="#ffd7d0" opacity="0.54"/><rect x="995" y="307" width="12" height="10" fill="#ffd7d0" opacity="0.29"/><rect x="995" y="332" width="12" height="10" fill="#ffd7d0" opacity="0.56"/><rect x="995" y="356" width="12" height="10" fill="#ffd7d0" opacity="0.61"/><rect x="995" y="456" width="12" height="10" fill="#ffd7d0" opacity="0.39"/><rect x="995" y="531" width="12" height="10" fill="#ffd7d0" opacity="0.50"/><rect x="995" y="580" width="12" height="10" fill="#ffd7d0" opacity="0.54"/><rect x="995" y="605" width="12" height="10" fill="#ffd7d0" opacity="0.50"/><rect x="995" y="630" width="12" height="10" fill="#ffd7d0" opacity="0.53"/><rect x="1017" y="257" width="12" height="10" fill="#ffd7d0" opacity="0.37"/><rect x="1017" y="381" width="12" height="10" fill="#ffd7d0" opacity="0.41"/><rect x="1017" y="406" width="12" height="10" fill="#ffd7d0" opacity="0.54"/><rect x="1017" y="431" width="12" height="10" fill="#ffd7d0" opacity="0.29"/><rect x="1017" y="456" width="12" height="10" fill="#ffd7d0" opacity="0.56"/><rect x="1017" y="481" width="12" height="10" fill="#ffd7d0" opacity="0.61"/><rect x="1017" y="580" width="12" height="10" fill="#ffd7d0" opacity="0.39"/><rect x="1039" y="257" width="12" height="10" fill="#ffd7d0" opacity="0.50"/><rect x="1039" y="307" width="12" height="10" fill="#ffd7d0" opacity="0.54"/><rect x="1039" y="332" width="12" height="10" fill="#ffd7d0" opacity="0.50"/><rect x="1039" y="356" width="12" height="10" fill="#ffd7d0" opacity="0.53"/><rect x="1039" y="381" width="12" height="10" fill="#ffd7d0" opacity="0.37"/><rect x="1039" y="506" width="12" height="10" fill="#ffd7d0" opacity="0.41"/><rect x="1039" y="531" width="12" height="10" fill="#ffd7d0" opacity="0.54"/><rect x="1039" y="556" width="12" height="10" fill="#ffd7d0" opacity="0.29"/><rect x="1039" y="580" width="12" height="10" fill="#ffd7d0" opacity="0.56"/><rect x="1039" y="605" width="12" height="10" fill="#ffd7d0" opacity="0.61"/><rect x="1060" y="307" width="12" height="10" fill="#ffd7d0" opacity="0.39"/><rect x="1060" y="381" width="12" height="10" fill="#ffd7d0" opacity="0.50"/><rect x="1060" y="431" width="12" height="10" fill="#ffd7d0" opacity="0.54"/><rect x="1060" y="456" width="12" height="10" fill="#ffd7d0" opacity="0.50"/><rect x="1060" y="481" width="12" height="10" fill="#ffd7d0" opacity="0.53"/><rect x="1060" y="506" width="12" height="10" fill="#ffd7d0" opacity="0.37"/><rect x="1060" y="630" width="12" height="10" fill="#ffd7d0" opacity="0.41"/><rect x="1114" y="231" width="157" height="430" fill="#0a1626" opacity="0.95"/><rect x="1124" y="269" width="11" height="11" fill="#ffd7d0" opacity="0.56"/><rect x="1124" y="294" width="11" height="11" fill="#ffd7d0" opacity="0.61"/><rect x="1124" y="398" width="11" height="11" fill="#ffd7d0" opacity="0.39"/><rect x="1124" y="475" width="11" height="11" fill="#ffd7d0" opacity="0.50"/><rect x="1124" y="526" width="11" height="11" fill="#ffd7d0" opacity="0.54"/><rect x="1124" y="552" width="11" height="11" fill="#ffd7d0" opacity="0.50"/><rect x="1124" y="578" width="11" height="11" fill="#ffd7d0" opacity="0.53"/><rect x="1124" y="604" width="11" height="11" fill="#ffd7d0" opacity="0.37"/><rect x="1144" y="320" width="11" height="11" fill="#ffd7d0" opacity="0.41"/><rect x="1144" y="346" width="11" height="11" fill="#ffd7d0" opacity="0.54"/><rect x="1144" y="372" width="11" height="11" fill="#ffd7d0" opacity="0.29"/><rect x="1144" y="398" width="11" height="11" fill="#ffd7d0" opacity="0.56"/><rect x="1144" y="423" width="11" height="11" fill="#ffd7d0" opacity="0.61"/><rect x="1144" y="526" width="11" height="11" fill="#ffd7d0" opacity="0.39"/><rect x="1144" y="604" width="11" height="11" fill="#ffd7d0" opacity="0.50"/><rect x="1164" y="243" width="11" height="11" fill="#ffd7d0" opacity="0.54"/><rect x="1164" y="269" width="11" height="11" fill="#ffd7d0" opacity="0.50"/><rect x="1164" y="294" width="11" height="11" fill="#ffd7d0" opacity="0.53"/><rect x="1164" y="320" width="11" height="11" fill="#ffd7d0" opacity="0.37"/><rect x="1164" y="449" width="11" height="11" fill="#ffd7d0" opacity="0.41"/><rect x="1164" y="475" width="11" height="11" fill="#ffd7d0" opacity="0.54"/><rect x="1164" y="500" width="11" height="11" fill="#ffd7d0" opacity="0.29"/><rect x="1164" y="526" width="11" height="11" fill="#ffd7d0" opacity="0.56"/><rect x="1164" y="552" width="11" height="11" fill="#ffd7d0" opacity="0.61"/><rect x="1184" y="243" width="11" height="11" fill="#ffd7d0" opacity="0.39"/><rect x="1184" y="320" width="11" height="11" fill="#ffd7d0" opacity="0.50"/><rect x="1184" y="372" width="11" height="11" fill="#ffd7d0" opacity="0.54"/><rect x="1184" y="398" width="11" height="11" fill="#ffd7d0" opacity="0.50"/><rect x="1184" y="423" width="11" height="11" fill="#ffd7d0" opacity="0.53"/><rect x="1184" y="449" width="11" height="11" fill="#ffd7d0" opacity="0.37"/><rect x="1184" y="578" width="11" height="11" fill="#ffd7d0" opacity="0.41"/><rect x="1184" y="604" width="11" height="11" fill="#ffd7d0" opacity="0.54"/><rect x="1184" y="629" width="11" height="11" fill="#ffd7d0" opacity="0.29"/><rect x="1205" y="243" width="11" height="11" fill="#ffd7d0" opacity="0.56"/><rect x="1205" y="269" width="11" height="11" fill="#ffd7d0" opacity="0.61"/><rect x="1205" y="372" width="11" height="11" fill="#ffd7d0" opacity="0.39"/><rect x="1205" y="449" width="11" height="11" fill="#ffd7d0" opacity="0.50"/><rect x="1205" y="500" width="11" height="11" fill="#ffd7d0" opacity="0.54"/><rect x="1205" y="526" width="11" height="11" fill="#ffd7d0" opacity="0.50"/><rect x="1205" y="552" width="11" height="11" fill="#ffd7d0" opacity="0.53"/><rect x="1205" y="578" width="11" height="11" fill="#ffd7d0" opacity="0.37"/><rect x="1225" y="294" width="11" height="11" fill="#ffd7d0" opacity="0.41"/><rect x="1225" y="320" width="11" height="11" fill="#ffd7d0" opacity="0.54"/><rect x="1225" y="346" width="11" height="11" fill="#ffd7d0" opacity="0.29"/><rect x="1225" y="372" width="11" height="11" fill="#ffd7d0" opacity="0.56"/><rect x="1225" y="398" width="11" height="11" fill="#ffd7d0" opacity="0.61"/><rect x="1225" y="500" width="11" height="11" fill="#ffd7d0" opacity="0.39"/><rect x="1225" y="578" width="11" height="11" fill="#ffd7d0" opacity="0.50"/><rect x="1225" y="629" width="11" height="11" fill="#ffd7d0" opacity="0.54"/><rect x="1245" y="243" width="11" height="11" fill="#ffd7d0" opacity="0.50"/><rect x="1245" y="269" width="11" height="11" fill="#ffd7d0" opacity="0.53"/><rect x="1245" y="294" width="11" height="11" fill="#ffd7d0" opacity="0.37"/><rect x="1245" y="423" width="11" height="11" fill="#ffd7d0" opacity="0.41"/><rect x="1245" y="449" width="11" height="11" fill="#ffd7d0" opacity="0.54"/><rect x="1245" y="475" width="11" height="11" fill="#ffd7d0" opacity="0.29"/><rect x="1245" y="500" width="11" height="11" fill="#ffd7d0" opacity="0.56"/><rect x="1245" y="526" width="11" height="11" fill="#ffd7d0" opacity="0.61"/><rect x="1245" y="629" width="11" height="11" fill="#ffd7d0" opacity="0.39"/><rect x="1297" y="487" width="152" height="174" fill="#0a1626" opacity="0.95"/><rect x="1307" y="499" width="12" height="11" fill="#ffd7d0" opacity="0.39"/><rect x="1307" y="525" width="12" height="11" fill="#ffd7d0" opacity="0.54"/><rect x="1307" y="551" width="12" height="11" fill="#ffd7d0" opacity="0.50"/><rect x="1307" y="577" width="12" height="11" fill="#ffd7d0" opacity="0.53"/><rect x="1307" y="603" width="12" height="11" fill="#ffd7d0" opacity="0.37"/><rect x="1330" y="577" width="12" height="11" fill="#ffd7d0" opacity="0.41"/><rect x="1330" y="603" width="12" height="11" fill="#ffd7d0" opacity="0.54"/><rect x="1330" y="629" width="12" height="11" fill="#ffd7d0" opacity="0.29"/><rect x="1352" y="499" width="12" height="11" fill="#ffd7d0" opacity="0.56"/><rect x="1352" y="525" width="12" height="11" fill="#ffd7d0" opacity="0.61"/><rect x="1352" y="629" width="12" height="11" fill="#ffd7d0" opacity="0.39"/><rect x="1375" y="551" width="12" height="11" fill="#ffd7d0" opacity="0.50"/><rect x="1375" y="603" width="12" height="11" fill="#ffd7d0" opacity="0.54"/><rect x="1375" y="629" width="12" height="11" fill="#ffd7d0" opacity="0.50"/><rect x="1398" y="499" width="12" height="11" fill="#ffd7d0" opacity="0.53"/><rect x="1398" y="525" width="12" height="11" fill="#ffd7d0" opacity="0.37"/><rect x="1420" y="499" width="12" height="11" fill="#ffd7d0" opacity="0.41"/><rect x="1420" y="525" width="12" height="11" fill="#ffd7d0" opacity="0.54"/><rect x="1420" y="551" width="12" height="11" fill="#ffd7d0" opacity="0.29"/><rect x="1420" y="577" width="12" height="11" fill="#ffd7d0" opacity="0.56"/><rect x="1420" y="603" width="12" height="11" fill="#ffd7d0" opacity="0.61"/><rect x="1465" y="443" width="93" height="218" fill="#0a1626" opacity="0.95"/><rect x="1475" y="455" width="11" height="10" fill="#ffd7d0" opacity="0.31"/><rect x="1475" y="505" width="11" height="10" fill="#ffd7d0" opacity="0.50"/><rect x="1475" y="555" width="11" height="10" fill="#ffd7d0" opacity="0.54"/><rect x="1475" y="580" width="11" height="10" fill="#ffd7d0" opacity="0.50"/><rect x="1475" y="605" width="11" height="10" fill="#ffd7d0" opacity="0.53"/><rect x="1475" y="630" width="11" height="10" fill="#ffd7d0" opacity="0.37"/><rect x="1494" y="555" width="11" height="10" fill="#ffd7d0" opacity="0.41"/><rect x="1494" y="580" width="11" height="10" fill="#ffd7d0" opacity="0.54"/><rect x="1494" y="605" width="11" height="10" fill="#ffd7d0" opacity="0.29"/><rect x="1494" y="630" width="11" height="10" fill="#ffd7d0" opacity="0.56"/><rect x="1514" y="455" width="11" height="10" fill="#ffd7d0" opacity="0.61"/><rect x="1514" y="555" width="11" height="10" fill="#ffd7d0" opacity="0.39"/><rect x="1514" y="630" width="11" height="10" fill="#ffd7d0" opacity="0.50"/><rect x="1533" y="480" width="11" height="10" fill="#ffd7d0" opacity="0.54"/><rect x="1533" y="505" width="11" height="10" fill="#ffd7d0" opacity="0.50"/><rect x="1533" y="530" width="11" height="10" fill="#ffd7d0" opacity="0.53"/><rect x="1533" y="555" width="11" height="10" fill="#ffd7d0" opacity="0.37"/><rect x="0" y="661" width="1600" height="406" fill="#0a1626"/><defs>
      <linearGradient id="hz9733" x1="0" y1="0" x2="0" y2="1">
        <stop offset="0%" stop-color="#122036" stop-opacity="0.45"/>
        <stop offset="45%" stop-color="#122036" stop-opacity="0"/>
        <stop offset="100%" stop-color="#0a1626" stop-opacity="0.4"/>
      </linearGradient>
      <radialGradient id="vg9733" cx="0.5" cy="0.5" r="0.75">
        <stop offset="55%" stop-color="#000000" stop-opacity="0"/>
        <stop offset="100%" stop-color="#000000" stop-opacity="0.3"/>
      </radialGradient>
    </defs>
    <rect width="1600" height="1067" fill="url(#hz9733)"/>
    <rect width="1600" height="1067" fill="url(#vg9733)"/></svg>