<svg xmlns="http://www.w3.org/2000/svg" viewBox="0 0 1600 1067" width="1600" height="1067" role="img" aria-label="skyline view">
  <defs>
    <linearGradient id="sky9819" x1="0" y1="0" x2="0" y2="1">
      <stop offset="0%" stop-color="#0b2038"/>
      <stop offset="55%" stop-color="#0b2038"/>
      <stop offset="100%" stop-color="#e8a15c"/>
    </linearGradient>
    <radialGradient id="glow9819" cx="0.786875" cy="0.5201499531396439" r="0.55">
      <stop offset="0%" stop-color="#ffd9a0" stop-opacity="0.95"/>
      <stop offset="35%" stop-color="#e8a15c" stop-opacity="0.55"/>
      <stop offset="100%" stop-color="#e8a15c" stop-opacity="0"/>
    </radialGradient>
    <linearGradient id="water9819" x1="0" y1="0" x2="0" y2="1">
      <stop offset="0%" stop-color="#123449" stop-opacity="0.95"/>
      <stop offset="100%" stop-color="#07182a"/>
    </linearGradient>
  </defs>
  <rect width="1600" height="1067" fill="url(#sky9819)"/>
  <rect width="1600" height="1067" fill="url(#glow9819)"/>
  <circle cx="1259" cy="555" r="48" fill="#ffd9a0" opacity="0.9"/><rect x="1386" y="131" width="487" height="26" rx="13" fill="#ffffff" opacity="0.8"/><rect x="1344" y="236" width="535" height="29" rx="14" fill="#ffffff" opacity="0.13"/><rect x="1269" y="327" width="441" height="24" rx="12" fill="#ffffff" opacity="0.10"/><rect x="541" y="119" width="248" height="13" rx="6" fill="#ffffff" opacity="0.9"/><rect x="681" y="330" width="215" height="11" rx="5" fill="#ffffff" opacity="0.13"/><path d="M0 618 L0 522 Q 192 469 416 576 L 544 618 Z" fill="#07182a" opacity="0.75"/><rect x="0" y="618" width="1600" height="449" fill="url(#water9819)"/><rect x="1047" y="658" width="393" height="4" fill="#ffd9a0" opacity="0.13"/><rect x="993" y="699" width="598" height="4" fill="#ffd9a0" opacity="0.15"/><rect x="1007" y="740" width="592" height="4" fill="#ffd9a0" opacity="0.23"/><rect x="1010" y="781" width="465" height="4" fill="#ffd9a0" opacity="0.33"/><rect x="917" y="822" width="564" height="4" fill="#ffd9a0" opacity="0.32"/><rect x="1000" y="862" width="458" height="4" fill="#ffd9a0" opacity="0.25"/><rect x="826" y="903" width="770" height="4" fill="#ffd9a0" opacity="0.27"/><rect x="928" y="944" width="764" height="4" fill="#ffd9a0" opacity="0.31"/><rect x="897" y="985" width="718" height="4" fill="#ffd9a0" opacity="0.32"/><rect x="128" y="324" width="125" height="315" fill="#07182a" opacity="0.95"/><rect x="138" y="361" width="12" height="10" fill="#ffd9a0" opacity="0.60"/><rect x="138" y="484" width="12" height="10" fill="#ffd9a0" opacity="0.39"/><rect x="138" y="509" width="12" height="10" fill="#ffd9a0" opacity="0.51"/><rect x="138" y="584" width="12" height="10" fill="#ffd9a0" opacity="0.59"/><rect x="160" y="410" width="12" height="10" fill="#ffd9a0" opacity="0.50"/><rect x="160" y="484" width="12" height="10" fill="#ffd9a0" opacity="0.33"/><rect x="160" y="559" width="12" height="10" fill="#ffd9a0" opacity="0.44"/><rect x="160" y="584" width="12" height="10" fill="#ffd9a0" opacity="0.28"/><rect x="182" y="361" width="12" height="10" fill="#ffd9a0" opacity="0.60"/><rect x="182" y="484" width="12" height="10" fill="#ffd9a0" opacity="0.39"/><rect x="182" y="509" width="12" height="10" fill="#ffd9a0" opacity="0.51"/><rect x="182" y="584" width="12" height="10" fill="#ffd9a0" opacity="0.59"/><rect x="203" y="410" width="12" height="10" fill="#ffd9a0" opacity="0.50"/><rect x="203" y="484" width="12" height="10" fill="#ffd9a0" opacity="0.33"/><rect x="203" y="559" width="12" height="10" fill="#ffd9a0" opacity="0.44"/><rect x="203" y="584" width="12" height="10" fill="#ffd9a0" opacity="0.28"/><rect x="225" y="361" width="12" height="10" fill="#ffd9a0" opacity="0.60"/><rect x="225" y="484" width="12" height="10" fill="#ffd9a0" opacity="0.39"/><rect x="225" y="509" width="12" height="10" fill="#ffd9a0" opacity="0.51"/><rect x="225" y="584" width="12" height="10" fill="#ffd9a0" opacity="0.59"/><rect x="277" y="215" width="173" height="424" fill="#07182a" opacity="0.95"/><rect x="287" y="227" width="12" height="11" fill="#ffd9a0" opacity="0.50"/><rect x="287" y="303" width="12" height="11" fill="#ffd9a0" opacity="0.33"/><rect x="287" y="379" width="12" height="11" fill="#ffd9a0" opacity="0.44"/><rect x="287" y="405" width="12" height="11" fill="#ffd9a0" opacity="0.28"/><rect x="287" y="481" width="12" height="11" fill="#ffd9a0" opacity="0.60"/><rect x="287" y="608" width="12" height="11" fill="#ffd9a0" opacity="0.39"/><rect x="309" y="227" width="12" height="11" fill="#ffd9a0" opacity="0.51"/><rect x="309" y="303" width="12" height="11" fill="#ffd9a0" opacity="0.59"/><rect x="309" y="430" width="12" height="11" fill="#ffd9a0" opacity="0.50"/><rect x="309" y="506" width="12" height="11" fill="#ffd9a0" opacity="0.33"/><rect x="309" y="582" width="12" height="11" fill="#ffd9a0" opacity="0.44"/><rect x="309" y="608" width="12" height="11" fill="#ffd9a0" opacity="0.28"/><rect x="332" y="278" width="12" height="11" fill="#ffd9a0" opacity="0.60"/><rect x="332" y="405" width="12" height="11" fill="#ffd9a0" opacity="0.39"/><rect x="332" y="430" width="12" height="11" fill="#ffd9a0" opacity="0.51"/><rect x="332" y="506" width="12" height="11" fill="#ffd9a0" opacity="0.59"/><rect x="354" y="227" width="12" height="11" fill="#ffd9a0" opacity="0.50"/><rect x="354" y="303" width="12" height="11" fill="#ffd9a0" opacity="0.33"/><rect x="354" y="379" width="12" height="11" fill="#ffd9a0" opacity="0.44"/><rect x="354" y="405" width="12" height="11" fill="#ffd9a0" opacity="0.28"/><rect x="354" y="481" width="12" height="11" fill="#ffd9a0" opacity="0.60"/><rect x="354" y="608" width="12" height="11" fill="#ffd9a0" opacity="0.39"/><rect x="377" y="227" width="12" height="11" fill="#ffd9a0" opacity="0.51"/><rect x="377" y="303" width="12" height="11" fill="#ffd9a0" opacity="0.59"/><rect x="377" y="430" width="12" height="11" fill="#ffd9a0" opacity="0.50"/><rect x="377" y="506" width="12" height="11" fill="#ffd9a0" opacity="0.33"/><rect x="377" y="582" width="12" height="11" fill="#ffd9a0" opacity="0.44"/><rect x="377" y="608" width="12" height="11" fill="#ffd9a0" opacity="0.28"/><rect x="399" y="278" width="12" height="11" fill="#ffd9a0" opacity="0.60"/><rect x="399" y="405" width="12" height="11" fill="#ffd9a0" opacity="0.39"/><rect x="399" y="430" width="12" height="11" fill="#ffd9a0" opacity="0.51"/><rect x="399" y="506" width="12" height="11" fill="#ffd9a0" opacity="0.59"/><rect x="422" y="227" width="12" height="11" fill="#ffd9a0" opacity="0.50"/><rect x="422" y="303" width="12" height="11" fill="#ffd9a0" opacity="0.33"/><rect x="422" y="379" width="12" height="11" fill="#ffd9a0" opacity="0.44"/><rect x="422" y="405" width="12" height="11" fill="#ffd9a0" opacity="0.28"/><rect x="422" y="481" width="12" height="11" fill="#ffd9a0" opacity="0.60"/><rect x="422" y="608" width="12" height="11" fill="#ffd9a0" opacity="0.39"/><rect x="472" y="436" width="116" height="203" fill="#07182a" opacity="0.95"/><rect x="482" y="474" width="11" height="11" fill="#ffd9a0" opacity="0.59"/><rect x="482" y="607" width="11" height="11" fill="#ffd9a0" opacity="0.50"/><rect x="502" y="501" width="11" height="11" fill="#ffd9a0" opacity="0.33"/><rect x="502" y="580" width="11" height="11" fill="#ffd9a0" opacity="0.44"/><rect x="502" y="607" width="11" height="11" fill="#ffd9a0" opacity="0.28"/><rect x="522" y="501" width="11" height="11" fill="#ffd9a0" opacity="0.60"/><rect x="542" y="448" width="11" height="11" fill="#ffd9a0" opacity="0.39"/><rect x="542" y="474" width="11" height="11" fill="#ffd9a0" opacity="0.51"/><rect x="542" y="554" width="11" height="11" fill="#ffd9a0" opacity="0.59"/><rect x="562" y="501" width="11" height="11" fill="#ffd9a0" opacity="0.50"/><rect x="562" y="580" width="11" height="11" fill="#ffd9a0" opacity="0.33"/><rect x="606" y="207" width="82" height="432" fill="#07182a" opacity="0.95"/><rect x="616" y="219" width="12" height="11" fill="#ffd9a0" opacity="0.28"/><rect x="616" y="297" width="12" height="11" fill="#ffd9a0" opacity="0.60"/><rect x="616" y="426" width="12" height="11" fill="#ffd9a0" opacity="0.39"/><rect x="616" y="452" width="12" height="11" fill="#ffd9a0" opacity="0.51"/><rect x="616" y="530" width="12" height="11" fill="#ffd9a0" opacity="0.59"/><rect x="638" y="245" width="12" height="11" fill="#ffd9a0" opacity="0.50"/><rect x="638" y="322" width="12" height="11" fill="#ffd9a0" opacity="0.33"/><rect x="638" y="400" width="12" height="11" fill="#ffd9a0" opacity="0.44"/><rect x="638" y="426" width="12" height="11" fill="#ffd9a0" opacity="0.28"/><rect x="638" y="504" width="12" height="11" fill="#ffd9a0" opacity="0.60"/><rect x="660" y="219" width="12" height="11" fill="#ffd9a0" opacity="0.39"/><rect x="660" y="245" width="12" height="11" fill="#ffd9a0" opacity="0.51"/><rect x="660" y="322" width="12" height="11" fill="#ffd9a0" opacity="0.59"/><rect x="660" y="452" width="12" height="11" fill="#ffd9a0" opacity="0.50"/><rect x="660" y="530" width="12" height="11" fill="#ffd9a0" opacity="0.33"/><rect x="660" y="607" width="12" height="11" fill="#ffd9a0" opacity="0.44"/><rect x="708" y="324" width="125" height="315" fill="#07182a" opacity="0.95"/><rect x="718" y="361" width="12" height="10" fill="#ffd9a0" opacity="0.60"/><rect x="718" y="484" width="12" height="10" fill="#ffd9a0" opacity="0.39"/><rect x="718" y="509" width="12" height="10" fill="#ffd9a0" opacity="0.51"/><rect x="718" y="584" width="12" height="10" fill="#ffd9a0" opacity="0.59"/><rect x="740" y="410" width="12" height="10" fill="#ffd9a0" opacity="0.50"/><rect x="740" y="484" width="12" height="10" fill="#ffd9a0" opacity="0.33"/><rect x="740" y="559" width="12" height="10" fill="#ffd9a0" opacity="0.44"/><rect x="740" y="584" width="12" height="10" fill="#ffd9a0" opacity="0.28"/><rect x="762" y="361" width="12" height="10" fill="#ffd9a0" opacity="0.60"/><rect x="762" y="484" width="12" height="10" fill="#ffd9a0" opacity="0.39"/><rect x="762" y="509" width="12" height="10" fill="#ffd9a0" opacity="0.51"/><rect x="762" y="584" width="12" height="10" fill="#ffd9a0" opacity="0.59"/><rect x="783" y="410" width="12" height="10" fill="#ffd9a0" opacity="0.50"/><rect x="783" y="484" width="12" height="10" fill="#ffd9a0" opacity="0.33"/><rect x="783" y="559" width="12" height="10" fill="#ffd9a0" opacity="0.44"/><rect x="783" y="584" width="12" height="10" fill="#ffd9a0" opacity="0.28"/><rect x="805" y="361" width="12" height="10" fill="#ffd9a0" opacity="0.60"/><rect x="805" y="484" width="12" height="10" fill="#ffd9a0" opacity="0.39"/><rect x="805" y="509" width="12" height="10" fill="#ffd9a0" opacity="0.51"/><rect x="805" y="584" width="12" height="10" fill="#ffd9a0" opacity="0.59"/><rect x="857" y="215" width="173" height="424" fill="#07182a" opacity="0.95"/><rect x="867" y="227" width="12" height="11" fill="#ffd9a0" opacity="0.50"/><rect x="867" y="303" width="12" height="11" fill="#ffd9a0" opacity="0.33"/><rect x="867" y="379" width="12" height="11" fill="#ffd9a0" opacity="0.44"/><rect x="867" y="405" width="12" height="11" fill="#ffd9a0" opacity="0.28"/><rect x="867" y="481" width="12" height="11" fill="#ffd9a0" opacity="0.60"/><rect x="867" y="608" width="12" height="11" fill="#ffd9a0" opacity="0.39"/><rect x="889" y="227" width="12" height="11" fill="#ffd9a0" opacity="0.51"/><rect x="889" y="303" width="12" height="11" fill="#ffd9a0" opacity="0.59"/><rect x="889" y="430" width="12" height="11" fill="#ffd9a0" opacity="0.50"/><rect x="889" y="506" width="12" height="11" fill="#ffd9a0" opacity="0.33"/><rect x="889" y="582" width="12" height="11" fill="#ffd9a0" opacity="0.44"/><rect x="889" y="608" width="12" height="11" fill="#ffd9a0" opacity="0.28"/><rect x="912" y="278" width="12" height="11" fill="#ffd9a0" opacity="0.60"/><rect x="912" y="405" width="12" height="11" fill="#ffd9a0" opacity="0.39"/><rect x="912" y="430" width="12" height="11" fill="#ffd9a0" opacity="0.51"/><rect x="912" y="506" width="12" height="11" fill="#ffd9a0" opacity="0.59"/><rect x="934" y="227" width="12" height="11" fill="#ffd9a0" opacity="0.50"/><rect x="934" y="303" width="12" height="11" fill="#ffd9a0" opacity="0.33"/><rect x="934" y="379" width="12" height="11" fill="#ffd9a0" opacity="0.44"/><rect x="934" y="405" width="12" height="11" fill="#ffd9a0" opacity="0.28"/><rect x="934" y="481" width="12" height="11" fill="#ffd9a0" opacity="0.60"/><rect x="934" y="608" width="12" height="11" fill="#ffd9a0" opacity="0.39"/><rect x="957" y="227" width="12" height="11" fill="#ffd9a0" opacity="0.51"/><rect x="957" y="303" width="12" height="11" fill="#ffd9a0" opacity="0.59"/><rect x="957" y="430" width="12" height="11" fill="#ffd9a0" opacity="0.50"/><rect x="957" y="506" width="12" height="11" fill="#ffd9a0" opacity="0.33"/><rect x="957" y="582" width="12" height="11" fill="#ffd9a0" opacity="0.44"/><rect x="957" y="608" width="12" height="11" fill="#ffd9a0" opacity="0.28"/><rect x="979" y="278" width="12" height="11" fill="#ffd9a0" opacity="0.60"/><rect x="979" y="405" width="12" height="11" fill="#ffd9a0" opacity="0.39"/><rect x="979" y="430" width="12" height="11" fill="#ffd9a0" opacity="0.51"/><rect x="979" y="506" width="12" height="11" fill="#ffd9a0" opacity="0.59"/><rect x="1002" y="227" width="12" height="11" fill="#ffd9a0" opacity="0.50"/><rect x="1002" y="303" width="12" height="11" fill="#ffd9a0" opacity="0.33"/><rect x="1002" y="379" width="12" height="11" fill="#ffd9a0" opacity="0.44"/><rect x="1002" y="405" width="12" height="11" fill="#ffd9a0" opacity="0.28"/><rect x="1002" y="481" width="12" height="11" fill="#ffd9a0" opacity="0.60"/><rect x="1002" y="608" width="12" height="11" fill="#ffd9a0" opacity="0.39"/><rect x="1052" y="436" width="116" height="203" fill="#07182a" opacity="0.95"/><rect x="1062" y="474" width="11" height="11" fill="#ffd9a0" opacity="0.59"/><rect x="1062" y="607" width="11" height="11" fill="#ffd9a0" opacity="0.50"/><rect x="1082" y="501" width="11" height="11" fill="#ffd9a0" opacity="0.33"/><rect x="1082" y="580" width="11" height="11" fill="#ffd9a0" opacity="0.44"/><rect x="1082" y="607" width="11" height="11" fill="#ffd9a0" opacity="0.28"/><rect x="1102" y="501" width="11" height="11" fill="#ffd9a0" opacity="0.60"/><rect x="1122" y="448" width="11" height="11" fill="#ffd9a0" opacity="0.39"/><rect x="1122" y="474" width="11" height="11" fill="#ffd9a0" opacity="0.51"/><rect x="1122" y="554" width="11" height="11" fill="#ffd9a0" opacity="0.59"/><rect x="1142" y="501" width="11" height="11" fill="#ffd9a0" opacity="0.50"/><rect x="1142" y="580" width="11" height="11" fill="#ffd9a0" opacity="0.33"/><rect x="1186" y="207" width="82" height="432" fill="#07182a" opacity="0.95"/><rect x="1196" y="219" width="12" height="11" fill="#ffd9a0" opacity="0.28"/><rect x="1196" y="297" width="12" height="11" fill="#ffd9a0" opacity="0.60"/><rect x="1196" y="426" width="12" height="11" fill="#ffd9a0" opacity="0.39"/><rect x="1196" y="452" width="12" height="11" fill="#ffd9a0" opacity="0.51"/><rect x="1196" y="530" width="12" height="11" fill="#ffd9a0" opacity="0.59"/><rect x="1218" y="245" width="12" height="11" fill="#ffd9a0" opacity="0.50"/><rect x="1218" y="322" width="12" height="11" fill="#ffd9a0" opacity="0.33"/><rect x="1218" y="400" width="12" height="11" fill="#ffd9a0" opacity="0.44"/><rect x="1218" y="426" width="12" height="11" fill="#ffd9a0" opacity="0.28"/><rect x="1218" y="504" width="12" height="11" fill="#ffd9a0" opacity="0.60"/><rect x="1240" y="219" width="12" height="11" fill="#ffd9a0" opacity="0.39"/><rect x="1240" y="245" width="12" height="11" fill="#ffd9a0" opacity="0.51"/><rect x="1240" y="322" width="12" height="11" fill="#ffd9a0" opacity="0.59"/><rect x="1240" y="452" width="12" height="11" fill="#ffd9a0" opacity="0.50"/><rect x="1240" y="530" width="12" height="11" fill="#ffd9a0" opacity="0.33"/><rect x="1240" y="607" width="12" height="11" fill="#ffd9a0" opacity="0.44"/><rect x="1288" y="324" width="125" height="315" fill="#07182a" opacity="0.95"/><rect x="1298" y="361" width="12" height="10" fill="#ffd9a0" opacity="0.60"/><rect x="1298" y="484" width="12" height="10" fill="#ffd9a0" opacity="0.39"/><rect x="1298" y="509" width="12" height="10" fill="#ffd9a0" opacity="0.51"/><rect x="1298" y="584" width="12" height="10" fill="#ffd9a0" opacity="0.59"/><rect x="1320" y="410" width="12" height="10" fill="#ffd9a0" opacity="0.50"/><rect x="1320" y="484" width="12" height="10" fill="#ffd9a0" opacity="0.33"/><rect x="1320" y="559" width="12" height="10" fill="#ffd9a0" opacity="0.44"/><rect x="1320" y="584" width="12" height="10" fill="#ffd9a0" opacity="0.28"/><rect x="1342" y="361" width="12" height="10" fill="#ffd9a0" opacity="0.60"/><rect x="1342" y="484" width="12" height="10" fill="#ffd9a0" opacity="0.39"/><rect x="1342" y="509" width="12" height="10" fill="#ffd9a0" opacity="0.51"/><rect x="1342" y="584" width="12" height="10" fill="#ffd9a0" opacity="0.59"/><rect x="1363" y="410" width="12" height="10" fill="#ffd9a0" opacity="0.50"/><rect x="1363" y="484" width="12" height="10" fill="#ffd9a0" opacity="0.33"/><rect x="1363" y="559" width="12" height="10" fill="#ffd9a0" opacity="0.44"/><rect x="1363" y="584" width="12" height="10" fill="#ffd9a0" opacity="0.28"/><rect x="1385" y="361" width="12" height="10" fill="#ffd9a0" opacity="0.60"/><rect x="1385" y="484" width="12" height="10" fill="#ffd9a0" opacity="0.39"/><rect x="1385" y="509" width="12" height="10" fill="#ffd9a0" opacity="0.51"/><rect x="1385" y="584" width="12" height="10" fill="#ffd9a0" opacity="0.59"/><rect x="1437" y="215" width="173" height="424" fill="#07182a" opacity="0.95"/><rect x="1447" y="227" width="12" height="11" fill="#ffd9a0" opacity="0.50"/><rect x="1447" y="303" width="12" height="11" fill="#ffd9a0" opacity="0.33"/><rect x="1447" y="379" width="12" height="11" fill="#ffd9a0" opacity="0.44"/><rect x="1447" y="405" width="12" height="11" fill="#ffd9a0" opacity="0.28"/><rect x="1447" y="481" width="12" height="11" fill="#ffd9a0" opacity="0.60"/><rect x="1447" y="608" width="12" height="11" fill="#ffd9a0" opacity="0.39"/><rect x="1469" y="227" width="12" height="11" fill="#ffd9a0" opacity="0.51"/><rect x="1469" y="303" width="12" height="11" fill="#ffd9a0" opacity="0.59"/><rect x="1469" y="430" width="12" height="11" fill="#ffd9a0" opacity="0.50"/><rect x="1469" y="506" width="12" height="11" fill="#ffd9a0" opacity="0.33"/><rect x="1469" y="582" width="12" height="11" fill="#ffd9a0" opacity="0.44"/><rect x="1469" y="608" width="12" height="11" fill="#ffd9a0" opacity="0.28"/><rect x="1492" y="278" width="12" height="11" fill="#ffd9a0" opacity="0.60"/><rect x="1492" y="405" width="12" height="11" fill="#ffd9a0" opacity="0.39"/><rect x="1492" y="430" width="12" height="11" fill="#ffd9a0" opacity="0.51"/><rect x="1492" y="506" width="12" height="11" fill="#ffd9a0" opacity="0.59"/><rect x="1514" y="227" width="12" height="11" fill="#ffd9a0" opacity="0.50"/><rect x="1514" y="303" width="12" height="11" fill="#ffd9a0" opacity="0.33"/><rect x="1514" y="379" width="12" height="11" fill="#ffd9a0" opacity="0.44"/><rect x="1514" y="405" width="12" height="11" fill="#ffd9a0" opacity="0.28"/><rect x="1514" y="481" width="12" height="11" fill="#ffd9a0" opacity="0.60"/><rect x="1514" y="608" width="12" height="11" fill="#ffd9a0" opacity="0.39"/><rect x="1537" y="227" width="12" height="11" fill="#ffd9a0" opacity="0.51"/><rect x="1537" y="303" width="12" height="11" fill="#ffd9a0" opacity="0.59"/><rect x="1537" y="430" width="12" height="11" fill="#ffd9a0" opacity="0.50"/><rect x="1537" y="506" width="12" height="11" fill="#ffd9a0" opacity="0.33"/><rect x="1537" y="582" width="12" height="11" fill="#ffd9a0" opacity="0.44"/><rect x="1537" y="608" width="12" height="11" fill="#ffd9a0" opacity="0.28"/><rect x="1559" y="278" width="12" height="11" fill="#ffd9a0" opacity="0.60"/><rect x="1559" y="405" width="12" height="11" fill="#ffd9a0" opacity="0.39"/><rect x="1559" y="430" width="12" height="11" fill="#ffd9a0" opacity="0.51"/><rect x="1559" y="506" width="12" height="11" fill="#ffd9a0" opacity="0.59"/><rect x="1582" y="227" width="12" height="11" fill="#ffd9a0" opacity="0.50"/><rect x="1582" y="303" width="12" height="11" fill="#ffd9a0" opacity="0.33"/><rect x="1582" y="379" width="12" height="11" fill="#ffd9a0" opacity="0.44"/><rect x="1582" y="405" width="12" height="11" fill="#ffd9a0" opacity="0.28"/><rect x="1582" y="481" width="12" height="11" fill="#ffd9a0" opacity="0.60"/><rect x="1582" y="608" width="12" height="11" fill="#ffd9a0" opacity="0.39"/><rect x="0" y="639" width="1600" height="428" fill="#07182a"/><defs>
      <linearGradient id="hz9819" x1="0" y1="0" x2="0" y2="1">
        <stop offset="0%" stop-color="#0b2038" stop-opacity="0.45"/>
        <stop offset="45%" stop-color="#0b2038" stop-opacity="0"/>
        <stop offset="100%" stop-color="#07182a" stop-opacity="0.4"/>
      </linearGradient>
      <radialGradient id="vg9819" cx="0.5" cy="0.5" r="0.75">
        <stop offset="55%" stop-color="#000000" stop-opacity="0"/>
        <stop offset="100%" stop-color="#000000" stop-opacity="0.3"/>
      </radialGradient>
    </defs>
    <rect width="1600" height="1067" fill="url(#hz9819)"/>
    <rect width="1600" height="1067" fill="url(#vg9819)"/></svg>