<svg xmlns="http://www.w3.org/2000/svg" viewBox="0 0 1600 1067" width="1600" height="1067" role="img" aria-label="coastal view">
  <defs>
    <linearGradient id="sky5334" x1="0" y1="0" x2="0" y2="1">
      <stop offset="0%" stop-color="#0b2038"/>
      <stop offset="55%" stop-color="#0b2038"/>
      <stop offset="100%" stop-color="#e8a15c"/>
    </linearGradient>
    <radialGradient id="glow5334" cx="0.625625" cy="0.43580131208997186" r="0.55">
      <stop offset="0%" stop-color="#ffd9a0" stop-opacity="0.95"/>
      <stop offset="35%" stop-color="#e8a15c" stop-opacity="0.55"/>
      <stop offset="100%" stop-color="#e8a15c" stop-opacity="0"/>
    </radialGradient>
    <linearGradient id="water5334" x1="0" y1="0" x2="0" y2="1">
      <stop offset="0%" stop-color="#123449" stop-opacity="0.95"/>
      <stop offset="100%" stop-color="#07182a"/>
    </linearGradient>
  </defs>
  <rect width="1600" height="1067" fill="url(#sky5334)"/>
  <rect width="1600" height="1067" fill="url(#glow5334)"/>
  <circle cx="1001" cy="465" r="48" fill="#ffd9a0" opacity="0.9"/><rect x="351" y="244" width="496" height="27" rx="13" fill="#ffffff" opacity="0.10"/><rect x="1525" y="174" width="514" height="28" rx="14" fill="#ffffff" opacity="0.8"/><rect x="1571" y="340" width="304" height="16" rx="8" fill="#ffffff" opacity="0.13"/><rect x="789" y="295" width="478" height="26" rx="13" fill="#ffffff" opacity="0.11"/><rect x="405" y="273" width="487" height="26" rx="13" fill="#ffffff" opacity="0.11"/><path d="M0 490 L0 394 Q 192 341 416 448 L 544 490 Z" fill="#07182a" opacity="0.75"/><rect x="0" y="490" width="1600" height="577" fill="url(#water5334)"/><rect x="791" y="542" width="384" height="4" fill="#ffd9a0" opacity="0.30"/><rect x="881" y="594" width="344" height="4" fill="#ffd9a0" opacity="0.27"/><rect x="700" y="647" width="651" height="4" fill="#ffd9a0" opacity="0.13"/><rect x="711" y="699" width="681" height="4" fill="#ffd9a0" opacity="0.30"/><rect x="708" y="752" width="705" height="4" fill="#ffd9a0" opacity="0.12"/><rect x="636" y="804" width="779" height="4" fill="#ffd9a0" opacity="0.15"/><rect x="716" y="857" width="638" height="4" fill="#ffd9a0" opacity="0.33"/><rect x="664" y="909" width="759" height="4" fill="#ffd9a0" opacity="0.12"/><rect x="683" y="962" width="629" height="4" fill="#ffd9a0" opacity="0.17"/><path d="M0 885 Q 560 832 1600 864 L 1600 1067 L 0 1067 Z" fill="#dccdb2" opacity="0.75"/><rect x="128" y="402" width="150" height="98" rx="3" fill="#e8e1d5" opacity="0.7"/><rect x="128" y="402" width="150" height="11" fill="#07182a" opacity="0.3"/><rect x="307" y="348" width="140" height="152" rx="3" fill="#e8e1d5" opacity="0.7"/><rect x="307" y="348" width="140" height="18" fill="#07182a" opacity="0.3"/><rect x="481" y="379" width="149" height="121" rx="3" fill="#e8e1d5" opacity="0.7"/><rect x="481" y="379" width="149" height="14" fill="#07182a" opacity="0.3"/><rect x="697" y="350" width="152" height="150" rx="3" fill="#e8e1d5" opacity="0.7"/><rect x="697" y="350" width="152" height="18" fill="#07182a" opacity="0.3"/><rect x="905" y="376" width="197" height="124" rx="3" fill="#e8e1d5" opacity="0.7"/><rect x="905" y="376" width="197" height="14" fill="#07182a" opacity="0.3"/><rect x="1146" y="363" width="150" height="137" rx="3" fill="#e8e1d5" opacity="0.7"/><rect x="1146" y="363" width="150" height="16" fill="#07182a" opacity="0.3"/><rect x="1374" y="409" width="143" height="91" rx="3" fill="#e8e1d5" opacity="0.7"/><rect x="1374" y="409" width="143" height="10" fill="#07182a" opacity="0.3"/><path d="M500 906 q 8.64 -54.0 2.16 -97.2" stroke="#1d3a2a" stroke-width="4.859999999999999" fill="none" stroke-linecap="round"/><path d="M502.16 808.8 q -34.56 -16.632 -56.160000000000004 -4.017600000000002" stroke="#1d3a2a" stroke-width="5.4" fill="none" stroke-linecap="round"/><path d="M502.16 808.8 q -25.92 7.128 -42.120000000000005 22.7664" stroke="#1d3a2a" stroke-width="5.4" fill="none" stroke-linecap="round"/><path d="M502.16 808.8 q 34.56 -16.632 56.160000000000004 -4.017600000000002" stroke="#1d3a2a" stroke-width="5.4" fill="none" stroke-linecap="round"/><path d="M502.16 808.8 q 25.92 7.128 42.120000000000005 22.7664" stroke="#1d3a2a" stroke-width="5.4" fill="none" stroke-linecap="round"/><path d="M502.16 808.8 q 3.4560000000000004 -29.700000000000003 5.6160000000000005 -18.748800000000003" stroke="#1d3a2a" stroke-width="5.4" fill="none" stroke-linecap="round"/><path d="M1511 913 q 15.36 -96.0 3.84 -172.8" stroke="#1d3a2a" stroke-width="8.64" fill="none" stroke-linecap="round"/><path d="M1514.84 740.2 q -61.44 -29.568000000000005 -99.84 -7.142400000000003" stroke="#1d3a2a" stroke-width="9.600000000000001" fill="none" stroke-linecap="round"/><path d="M1514.84 740.2 q -46.08 12.672 -74.88 40.4736" stroke="#1d3a2a" stroke-width="9.600000000000001" fill="none" stroke-linecap="round"/><path d="M1514.84 740.2 q 61.44 -29.568000000000005 99.84 -7.142400000000003" stroke="#1d3a2a" stroke-width="9.600000000000001" fill="none" stroke-linecap="round"/><path d="M1514.84 740.2 q 46.08 12.672 74.88 40.4736" stroke="#1d3a2a" stroke-width="9.600000000000001" fill="none" stroke-linecap="round"/><path d="M1514.84 740.2 q 6.144000000000001 -52.800000000000004 9.984000000000002 -33.3312" stroke="#1d3a2a" stroke-width="9.600000000000001" fill="none" stroke-linecap="round"/><path d="M104 977 q 8.72 -54.5 2.18 -98.10000000000001" stroke="#1d3a2a" stroke-width="4.905" fill="none" stroke-linecap="round"/><path d="M106.18 878.9 q -34.88 -16.786 -56.68 -4.054800000000002" stroke="#1d3a2a" stroke-width="5.45" fill="none" stroke-linecap="round"/><path d="M106.18 878.9 q -26.16 7.194000000000001 -42.51 22.977199999999996" stroke="#1d3a2a" stroke-width="5.45" fill="none" stroke-linecap="round"/><path d="M106.18 878.9 q 34.88 -16.786 56.68 -4.054800000000002" stroke="#1d3a2a" stroke-width="5.45" fill="none" stroke-linecap="round"/><path d="M106.18 878.9 q 26.16 7.194000000000001 42.51 22.977199999999996" stroke="#1d3a2a" stroke-width="5.45" fill="none" stroke-linecap="round"/><path d="M106.18 878.9 q 3.488 -29.975 5.668 -18.922400000000003" stroke="#1d3a2a" stroke-width="5.45" fill="none" stroke-linecap="round"/><path d="M263 1031 q 15.200000000000001 -95.0 3.8000000000000003 -171.0" stroke="#1d3a2a" stroke-width="8.549999999999999" fill="none" stroke-linecap="round"/><path d="M266.8 860.0 q -60.800000000000004 -29.260000000000005 -98.8 -7.068000000000003" stroke="#1d3a2a" stroke-width="9.5" fill="none" stroke-linecap="round"/><path d="M266.8 860.0 q -45.6 12.540000000000001 -74.10000000000001 40.052" stroke="#1d3a2a" stroke-width="9.5" fill="none" stroke-linecap="round"/><path d="M266.8 860.0 q 60.800000000000004 -29.260000000000005 98.8 -7.068000000000003" stroke="#1d3a2a" stroke-width="9.5" fill="none" stroke-linecap="round"/><path d="M266.8 860.0 q 45.6 12.540000000000001 74.10000000000001 40.052" stroke="#1d3a2a" stroke-width="9.5" fill="none" stroke-linecap="round"/><path d="M266.8 860.0 q 6.08 -52.25000000000001 9.88 -32.984" stroke="#1d3a2a" stroke-width="9.5" fill="none" stroke-linecap="round"/><defs>
      <linearGradient id="hz5334" x1="0" y1="0" x2="0" y2="1">
        <stop offset="0%" stop-color="#0b2038" stop-opacity="0.45"/>
        <stop offset="45%" stop-color="#0b2038" stop-opacity="0"/>
        <stop offset="100%" stop-color="#07182a" stop-opacity="0.4"/>
      </linearGradient>
      <radialGradient id="vg5334" cx="0.5" cy="0.5" r="0.75">
        <stop offset="55%" stop-color="#000000" stop-opacity="0"/>
        <stop offset="100%" stop-color="#000000" stop-opacity="0.3"/>
      </radialGradient>
    </defs>
    <rect width="1600" height="1067" fill="url(#hz5334)"/>
    <rect width="1600" height="1067" fill="url(#vg5334)"/></svg>