<svg xmlns="http://www.w3.org/2000/svg" viewBox="0 0 1600 1067" width="1600" height="1067" role="img" aria-label="lagoon view">
  <defs>
    <linearGradient id="sky9037" x1="0" y1="0" x2="0" y2="1">
      <stop offset="0%" stop-color="#0a1c33"/>
      <stop offset="55%" stop-color="#0a1c33"/>
      <stop offset="100%" stop-color="#c98a63"/>
    </linearGradient>
    <radialGradient id="glow9037" cx="0.54875" cy="0.44892221180880976" r="0.55">
      <stop offset="0%" stop-color="#ffcf9b" stop-opacity="0.95"/>
      <stop offset="35%" stop-color="#c98a63" stop-opacity="0.55"/>
      <stop offset="100%" stop-color="#c98a63" stop-opacity="0"/>
    </radialGradient>
    <linearGradient id="water9037" x1="0" y1="0" x2="0" y2="1">
      <stop offset="0%" stop-color="#0f2e45" stop-opacity="0.95"/>
      <stop offset="100%" stop-color="#061626"/>
    </linearGradient>
  </defs>
  <rect width="1600" height="1067" fill="url(#sky9037)"/>
  <rect width="1600" height="1067" fill="url(#glow9037)"/>
  <circle cx="878" cy="479" r="48" fill="#ffcf9b" opacity="0.9"/><rect x="249" y="84" width="237" height="13" rx="6" fill="#ffffff" opacity="0.12"/><rect x="974" y="235" width="268" height="14" rx="7" fill="#ffffff" opacity="0.9"/><rect x="112" y="296" width="476" height="26" rx="13" fill="#ffffff" opacity="0.12"/><rect x="391" y="259" width="438" height="24" rx="12" fill="#ffffff" opacity="0.7"/><rect x="254" y="355" width="378" height="20" rx="10" fill="#ffffff" opacity="0.12"/><path d="M0 522 L0 426 Q 192 373 416 480 L 544 522 Z" fill="#061626" opacity="0.75"/><rect x="0" y="522" width="1600" height="545" fill="url(#water9037)"/><rect x="638" y="571" width="484" height="4" fill="#ffcf9b" opacity="0.20"/><rect x="510" y="621" width="651" height="4" fill="#ffcf9b" opacity="0.33"/><rect x="634" y="670" width="530" height="4" fill="#ffcf9b" opacity="0.14"/><rect x="515" y="720" width="637" height="4" fill="#ffcf9b" opacity="0.33"/><rect x="757" y="769" width="252" height="4" fill="#ffcf9b" opacity="0.21"/><rect x="630" y="819" width="418" height="4" fill="#ffcf9b" opacity="0.34"/><rect x="805" y="868" width="215" height="4" fill="#ffcf9b" opacity="0.19"/><rect x="713" y="918" width="236" height="4" fill="#ffcf9b" opacity="0.23"/><rect x="815" y="967" width="178" height="4" fill="#ffcf9b" opacity="0.18"/><path d="M0 661 Q 400 565 800 661 T 1600 629 L 1600 1067 L 0 1067 Z" fill="#0f2e45" opacity="0.92"/><path d="M0 682 Q 480 608 992 693 T 1600 661 " stroke="#ffffff" stroke-opacity="0.3" stroke-width="3" fill="none"/><rect x="160" y="401" width="145" height="153" rx="3" fill="#e4ddd1" opacity="0.7"/><rect x="170" y="413" width="12" height="11" fill="#33454f" opacity="0.61"/><rect x="170" y="440" width="12" height="11" fill="#33454f" opacity="0.59"/><rect x="170" y="467" width="12" height="11" fill="#33454f" opacity="0.34"/><rect x="170" y="494" width="12" height="11" fill="#33454f" opacity="0.40"/><rect x="170" y="521" width="12" height="11" fill="#33454f" opacity="0.59"/><rect x="192" y="440" width="12" height="11" fill="#33454f" opacity="0.58"/><rect x="192" y="494" width="12" height="11" fill="#33454f" opacity="0.60"/><rect x="192" y="521" width="12" height="11" fill="#33454f" opacity="0.55"/><rect x="213" y="413" width="12" height="11" fill="#33454f" opacity="0.55"/><rect x="213" y="440" width="12" height="11" fill="#33454f" opacity="0.45"/><rect x="213" y="467" width="12" height="11" fill="#33454f" opacity="0.50"/><rect x="234" y="440" width="12" height="11" fill="#33454f" opacity="0.62"/><rect x="234" y="467" width="12" height="11" fill="#33454f" opacity="0.41"/><rect x="234" y="521" width="12" height="11" fill="#33454f" opacity="0.61"/><rect x="256" y="413" width="12" height="11" fill="#33454f" opacity="0.59"/><rect x="256" y="440" width="12" height="11" fill="#33454f" opacity="0.34"/><rect x="256" y="467" width="12" height="11" fill="#33454f" opacity="0.40"/><rect x="256" y="494" width="12" height="11" fill="#33454f" opacity="0.59"/><rect x="278" y="413" width="12" height="11" fill="#33454f" opacity="0.58"/><rect x="278" y="467" width="12" height="11" fill="#33454f" opacity="0.60"/><rect x="278" y="494" width="12" height="11" fill="#33454f" opacity="0.55"/><rect x="278" y="521" width="12" height="11" fill="#33454f" opacity="0.55"/><rect x="323" y="434" width="203" height="120" rx="3" fill="#e4ddd1" opacity="0.7"/><rect x="333" y="446" width="11" height="11" fill="#33454f" opacity="0.29"/><rect x="333" y="522" width="11" height="11" fill="#33454f" opacity="0.62"/><rect x="354" y="446" width="11" height="11" fill="#33454f" opacity="0.41"/><rect x="354" y="497" width="11" height="11" fill="#33454f" opacity="0.61"/><rect x="354" y="522" width="11" height="11" fill="#33454f" opacity="0.59"/><rect x="375" y="446" width="11" height="11" fill="#33454f" opacity="0.34"/><rect x="375" y="472" width="11" height="11" fill="#33454f" opacity="0.40"/><rect x="375" y="497" width="11" height="11" fill="#33454f" opacity="0.59"/><rect x="395" y="446" width="11" height="11" fill="#33454f" opacity="0.58"/><rect x="395" y="497" width="11" height="11" fill="#33454f" opacity="0.60"/><rect x="395" y="522" width="11" height="11" fill="#33454f" opacity="0.55"/><rect x="416" y="446" width="11" height="11" fill="#33454f" opacity="0.55"/><rect x="416" y="472" width="11" height="11" fill="#33454f" opacity="0.45"/><rect x="416" y="497" width="11" height="11" fill="#33454f" opacity="0.50"/><rect x="437" y="497" width="11" height="11" fill="#33454f" opacity="0.62"/><rect x="437" y="522" width="11" height="11" fill="#33454f" opacity="0.41"/><rect x="458" y="472" width="11" height="11" fill="#33454f" opacity="0.61"/><rect x="458" y="497" width="11" height="11" fill="#33454f" opacity="0.59"/><rect x="458" y="522" width="11" height="11" fill="#33454f" opacity="0.34"/><rect x="478" y="446" width="11" height="11" fill="#33454f" opacity="0.40"/><rect x="478" y="472" width="11" height="11" fill="#33454f" opacity="0.59"/><rect x="478" y="522" width="11" height="11" fill="#33454f" opacity="0.58"/><rect x="499" y="472" width="11" height="11" fill="#33454f" opacity="0.60"/><rect x="499" y="497" width="11" height="11" fill="#33454f" opacity="0.55"/><rect x="499" y="522" width="11" height="11" fill="#33454f" opacity="0.55"/><rect x="544" y="434" width="203" height="120" rx="3" fill="#e4ddd1" opacity="0.7"/><rect x="554" y="446" width="11" height="11" fill="#33454f" opacity="0.29"/><rect x="554" y="522" width="11" height="11" fill="#33454f" opacity="0.62"/><rect x="575" y="446" width="11" height="11" fill="#33454f" opacity="0.41"/><rect x="575" y="497" width="11" height="11" fill="#33454f" opacity="0.61"/><rect x="575" y="522" width="11" height="11" fill="#33454f" opacity="0.59"/><rect x="596" y="446" width="11" height="11" fill="#33454f" opacity="0.34"/><rect x="596" y="472" width="11" height="11" fill="#33454f" opacity="0.40"/><rect x="596" y="497" width="11" height="11" fill="#33454f" opacity="0.59"/><rect x="616" y="446" width="11" height="11" fill="#33454f" opacity="0.58"/><rect x="616" y="497" width="11" height="11" fill="#33454f" opacity="0.60"/><rect x="616" y="522" width="11" height="11" fill="#33454f" opacity="0.55"/><rect x="637" y="446" width="11" height="11" fill="#33454f" opacity="0.55"/><rect x="637" y="472" width="11" height="11" fill="#33454f" opacity="0.45"/><rect x="637" y="497" width="11" height="11" fill="#33454f" opacity="0.50"/><rect x="658" y="497" width="11" height="11" fill="#33454f" opacity="0.62"/><rect x="658" y="522" width="11" height="11" fill="#33454f" opacity="0.41"/><rect x="679" y="472" width="11" height="11" fill="#33454f" opacity="0.61"/><rect x="679" y="497" width="11" height="11" fill="#33454f" opacity="0.59"/><rect x="679" y="522" width="11" height="11" fill="#33454f" opacity="0.34"/><rect x="699" y="446" width="11" height="11" fill="#33454f" opacity="0.40"/><rect x="699" y="472" width="11" height="11" fill="#33454f" opacity="0.59"/><rect x="699" y="522" width="11" height="11" fill="#33454f" opacity="0.58"/><rect x="720" y="472" width="11" height="11" fill="#33454f" opacity="0.60"/><rect x="720" y="497" width="11" height="11" fill="#33454f" opacity="0.55"/><rect x="720" y="522" width="11" height="11" fill="#33454f" opacity="0.55"/><rect x="765" y="434" width="203" height="120" rx="3" fill="#e4ddd1" opacity="0.7"/><rect x="775" y="446" width="11" height="11" fill="#33454f" opacity="0.29"/><rect x="775" y="522" width="11" height="11" fill="#33454f" opacity="0.62"/><rect x="796" y="446" width="11" height="11" fill="#33454f" opacity="0.41"/><rect x="796" y="497" width="11" height="11" fill="#33454f" opacity="0.61"/><rect x="796" y="522" width="11" height="11" fill="#33454f" opacity="0.59"/><rect x="817" y="446" width="11" height="11" fill="#33454f" opacity="0.34"/><rect x="817" y="472" width="11" height="11" fill="#33454f" opacity="0.40"/><rect x="817" y="497" width="11" height="11" fill="#33454f" opacity="0.59"/><rect x="837" y="446" width="11" height="11" fill="#33454f" opacity="0.58"/><rect x="837" y="497" width="11" height="11" fill="#33454f" opacity="0.60"/><rect x="837" y="522" width="11" height="11" fill="#33454f" opacity="0.55"/><rect x="858" y="446" width="11" height="11" fill="#33454f" opacity="0.55"/><rect x="858" y="472" width="11" height="11" fill="#33454f" opacity="0.45"/><rect x="858" y="497" width="11" height="11" fill="#33454f" opacity="0.50"/><rect x="879" y="497" width="11" height="11" fill="#33454f" opacity="0.62"/><rect x="879" y="522" width="11" height="11" fill="#33454f" opacity="0.41"/><rect x="900" y="472" width="11" height="11" fill="#33454f" opacity="0.61"/><rect x="900" y="497" width="11" height="11" fill="#33454f" opacity="0.59"/><rect x="900" y="522" width="11" height="11" fill="#33454f" opacity="0.34"/><rect x="920" y="446" width="11" height="11" fill="#33454f" opacity="0.40"/><rect x="920" y="472" width="11" height="11" fill="#33454f" opacity="0.59"/><rect x="920" y="522" width="11" height="11" fill="#33454f" opacity="0.58"/><rect x="941" y="472" width="11" height="11" fill="#33454f" opacity="0.60"/><rect x="941" y="497" width="11" height="11" fill="#33454f" opacity="0.55"/><rect x="941" y="522" width="11" height="11" fill="#33454f" opacity="0.55"/><rect x="986" y="434" width="203" height="120" rx="3" fill="#e4ddd1" opacity="0.7"/><rect x="996" y="446" width="11" height="11" fill="#33454f" opacity="0.29"/><rect x="996" y="522" width="11" height="11" fill="#33454f" opacity="0.62"/><rect x="1017" y="446" width="11" height="11" fill="#33454f" opacity="0.41"/><rect x="1017" y="497" width="11" height="11" fill="#33454f" opacity="0.61"/><rect x="1017" y="522" width="11" height="11" fill="#33454f" opacity="0.59"/><rect x="1038" y="446" width="11" height="11" fill="#33454f" opacity="0.34"/><rect x="1038" y="472" width="11" height="11" fill="#33454f" opacity="0.40"/><rect x="1038" y="497" width="11" height="11" fill="#33454f" opacity="0.59"/><rect x="1058" y="446" width="11" height="11" fill="#33454f" opacity="0.58"/><rect x="1058" y="497" width="11" height="11" fill="#33454f" opacity="0.60"/><rect x="1058" y="522" width="11" height="11" fill="#33454f" opacity="0.55"/><rect x="1079" y="446" width="11" height="11" fill="#33454f" opacity="0.55"/><rect x="1079" y="472" width="11" height="11" fill="#33454f" opacity="0.45"/><rect x="1079" y="497" width="11" height="11" fill="#33454f" opacity="0.50"/><rect x="1100" y="497" width="11" height="11" fill="#33454f" opacity="0.62"/><rect x="1100" y="522" width="11" height="11" fill="#33454f" opacity="0.41"/><rect x="1121" y="472" width="11" height="11" fill="#33454f" opacity="0.61"/><rect x="1121" y="497" width="11" height="11" fill="#33454f" opacity="0.59"/><rect x="1121" y="522" width="11" height="11" fill="#33454f" opacity="0.34"/><rect x="1141" y="446" width="11" height="11" fill="#33454f" opacity="0.40"/><rect x="1141" y="472" width="11" height="11" fill="#33454f" opacity="0.59"/><rect x="1141" y="522" width="11" height="11" fill="#33454f" opacity="0.58"/><rect x="1162" y="472" width="11" height="11" fill="#33454f" opacity="0.60"/><rect x="1162" y="497" width="11" height="11" fill="#33454f" opacity="0.55"/><rect x="1162" y="522" width="11" height="11" fill="#33454f" opacity="0.55"/><rect x="1207" y="434" width="203" height="120" rx="3" fill="#e4ddd1" opacity="0.7"/><rect x="1217" y="446" width="11" height="11" fill="#33454f" opacity="0.29"/><rect x="1217" y="522" width="11" height="11" fill="#33454f" opacity="0.62"/><rect x="1238" y="446" width="11" height="11" fill="#33454f" opacity="0.41"/><rect x="1238" y="497" width="11" height="11" fill="#33454f" opacity="0.61"/><rect x="1238" y="522" width="11" height="11" fill="#33454f" opacity="0.59"/><rect x="1259" y="446" width="11" height="11" fill="#33454f" opacity="0.34"/><rect x="1259" y="472" width="11" height="11" fill="#33454f" opacity="0.40"/><rect x="1259" y="497" width="11" height="11" fill="#33454f" opacity="0.59"/><rect x="1279" y="446" width="11" height="11" fill="#33454f" opacity="0.58"/><rect x="1279" y="497" width="11" height="11" fill="#33454f" opacity="0.60"/><rect x="1279" y="522" width="11" height="11" fill="#33454f" opacity="0.55"/><rect x="1300" y="446" width="11" height="11" fill="#33454f" opacity="0.55"/><rect x="1300" y="472" width="11" height="11" fill="#33454f" opacity="0.45"/><rect x="1300" y="497" width="11" height="11" fill="#33454f" opacity="0.50"/><rect x="1321" y="497" width="11" height="11" fill="#33454f" opacity="0.62"/><rect x="1321" y="522" width="11" height="11" fill="#33454f" opacity="0.41"/><rect x="1342" y="472" width="11" height="11" fill="#33454f" opacity="0.61"/><rect x="1342" y="497" width="11" height="11" fill="#33454f" opacity="0.59"/><rect x="1342" y="522" width="11" height="11" fill="#33454f" opacity="0.34"/><rect x="1362" y="446" width="11" height="11" fill="#33454f" opacity="0.40"/><rect x="1362" y="472" width="11" height="11" fill="#33454f" opacity="0.59"/><rect x="1362" y="522" width="11" height="11" fill="#33454f" opacity="0.58"/><rect x="1383" y="472" width="11" height="11" fill="#33454f" opacity="0.60"/><rect x="1383" y="497" width="11" height="11" fill="#33454f" opacity="0.55"/><rect x="1383" y="522" width="11" height="11" fill="#33454f" opacity="0.55"/><path d="M1467 724 q 14.8 -92.5 3.7 -166.5" stroke="#11322b" stroke-width="8.325" fill="none" stroke-linecap="round"/><path d="M1470.7 557.5 q -59.2 -28.490000000000006 -96.2 -6.882000000000003" stroke="#11322b" stroke-width="9.25" fill="none" stroke-linecap="round"/><path d="M1470.7 557.5 q -44.4 12.21 -72.15 38.998" stroke="#11322b" stroke-width="9.25" fill="none" stroke-linecap="round"/><path d="M1470.7 557.5 q 59.2 -28.490000000000006 96.2 -6.882000000000003" stroke="#11322b" stroke-width="9.25" fill="none" stroke-linecap="round"/><path d="M1470.7 557.5 q 44.4 12.21 72.15 38.998" stroke="#11322b" stroke-width="9.25" fill="none" stroke-linecap="round"/><path d="M1470.7 557.5 q 5.92 -50.87500000000001 9.620000000000001 -32.116" stroke="#11322b" stroke-width="9.25" fill="none" stroke-linecap="round"/><path d="M1150 711 q 15.200000000000001 -95.0 3.8000000000000003 -171.0" stroke="#11322b" stroke-width="8.549999999999999" fill="none" stroke-linecap="round"/><path d="M1153.8 540.0 q -60.800000000000004 -29.260000000000005 -98.8 -7.068000000000003" stroke="#11322b" stroke-width="9.5" fill="none" stroke-linecap="round"/><path d="M1153.8 540.0 q -45.6 12.540000000000001 -74.10000000000001 40.052" stroke="#11322b" stroke-width="9.5" fill="none" stroke-linecap="round"/><path d="M1153.8 540.0 q 60.800000000000004 -29.260000000000005 98.8 -7.068000000000003" stroke="#11322b" stroke-width="9.5" fill="none" stroke-linecap="round"/><path d="M1153.8 540.0 q 45.6 12.540000000000001 74.10000000000001 40.052" stroke="#11322b" stroke-width="9.5" fill="none" stroke-linecap="round"/><path d="M1153.8 540.0 q 6.08 -52.25000000000001 9.88 -32.984" stroke="#11322b" stroke-width="9.5" fill="none" stroke-linecap="round"/><path d="M1266 751 q 13.68 -85.5 3.42 -153.9" stroke="#11322b" stroke-width="7.694999999999999" fill="none" stroke-linecap="round"/><path d="M1269.42 597.1 q -54.72 -26.334000000000003 -88.92 -6.361200000000003" stroke="#11322b" stroke-width="8.55" fill="none" stroke-linecap="round"/><path d="M1269.42 597.1 q -41.04 11.286000000000001 -66.69 36.0468" stroke="#11322b" stroke-width="8.55" fill="none" stroke-linecap="round"/><path d="M1269.42 597.1 q 54.72 -26.334000000000003 88.92 -6.361200000000003" stroke="#11322b" stroke-width="8.55" fill="none" stroke-linecap="round"/><path d="M1269.42 597.1 q 41.04 11.286000000000001 66.69 36.0468" stroke="#11322b" stroke-width="8.55" fill="none" stroke-linecap="round"/><path d="M1269.42 597.1 q 5.472 -47.025000000000006 8.892000000000001 -29.6856" stroke="#11322b" stroke-width="8.55" fill="none" stroke-linecap="round"/><rect x="128" y="938" width="1344" height="96" rx="6" fill="#0f2e45" opacity="0.85"/><rect x="128" y="938" width="1344" height="8" fill="#ffffff" opacity="0.28"/><defs>
      <linearGradient id="hz9037" x1="0" y1="0" x2="0" y2="1">
        <stop offset="0%" stop-color="#0a1c33" stop-opacity="0.45"/>
        <stop offset="45%" stop-color="#0a1c33" stop-opacity="0"/>
        <stop offset="100%" stop-color="#061626" stop-opacity="0.4"/>
      </linearGradient>
      <radialGradient id="vg9037" cx="0.5" cy="0.5" r="0.75">
        <stop offset="55%" stop-color="#000000" stop-opacity="0"/>
        <stop offset="100%" stop-color="#000000" stop-opacity="0.3"/>
      </radialGradient>
    </defs>
    <rect width="1600" height="1067" fill="url(#hz9037)"/>
    <rect width="1600" height="1067" fill="url(#vg9037)"/></svg>