<svg xmlns="http://www.w3.org/2000/svg" viewBox="0 0 1600 1067" width="1600" height="1067" role="img" aria-label="coastal view">
  <defs>
    <linearGradient id="sky9447" x1="0" y1="0" x2="0" y2="1">
      <stop offset="0%" stop-color="#0d2a3d"/>
      <stop offset="55%" stop-color="#0d2a3d"/>
      <stop offset="100%" stop-color="#7fb4b8"/>
    </linearGradient>
    <radialGradient id="glow9447" cx="0.24625" cy="0.5164011246485474" r="0.55">
      <stop offset="0%" stop-color="#eaf3ef" stop-opacity="0.95"/>
      <stop offset="35%" stop-color="#7fb4b8" stop-opacity="0.55"/>
      <stop offset="100%" stop-color="#7fb4b8" stop-opacity="0"/>
    </radialGradient>
    <linearGradient id="water9447" x1="0" y1="0" x2="0" y2="1">
      <stop offset="0%" stop-color="#12495a" stop-opacity="0.95"/>
      <stop offset="100%" stop-color="#08202c"/>
    </linearGradient>
  </defs>
  <rect width="1600" height="1067" fill="url(#sky9447)"/>
  <rect width="1600" height="1067" fill="url(#glow9447)"/>
  <circle cx="394" cy="551" r="48" fill="#eaf3ef" opacity="0.9"/><rect x="1438" y="133" width="284" height="15" rx="7" fill="#ffffff" opacity="0.8"/><rect x="1333" y="329" width="227" height="12" rx="6" fill="#ffffff" opacity="0.9"/><rect x="0" y="301" width="225" height="12" rx="6" fill="#ffffff" opacity="0.11"/><rect x="580" y="406" width="330" height="18" rx="9" fill="#ffffff" opacity="0.9"/><rect x="1052" y="278" width="202" height="11" rx="5" fill="#ffffff" opacity="0.13"/><path d="M0 576 L0 480 Q 192 427 416 534 L 544 576 Z" fill="#08202c" opacity="0.75"/><rect x="0" y="576" width="1600" height="491" fill="url(#water9447)"/><rect x="24" y="620" width="699" height="4" fill="#eaf3ef" opacity="0.31"/><rect x="0" y="665" width="798" height="4" fill="#eaf3ef" opacity="0.32"/><rect x="160" y="709" width="430" height="4" fill="#eaf3ef" opacity="0.15"/><rect x="100" y="754" width="558" height="4" fill="#eaf3ef" opacity="0.16"/><rect x="352" y="799" width="178" height="4" fill="#eaf3ef" opacity="0.21"/><rect x="120" y="843" width="528" height="4" fill="#eaf3ef" opacity="0.15"/><rect x="293" y="888" width="315" height="4" fill="#eaf3ef" opacity="0.30"/><rect x="215" y="933" width="425" height="4" fill="#eaf3ef" opacity="0.12"/><rect x="253" y="977" width="171" height="4" fill="#eaf3ef" opacity="0.21"/><path d="M0 821 Q 560 768 1600 800 L 1600 1067 L 0 1067 Z" fill="#dccdb2" opacity="0.75"/><rect x="128" y="498" width="130" height="88" rx="3" fill="#e8e1d5" opacity="0.7"/><rect x="128" y="498" width="130" height="10" fill="#08202c" opacity="0.3"/><rect x="293" y="495" width="130" height="91" rx="3" fill="#e8e1d5" opacity="0.7"/><rect x="293" y="495" width="130" height="10" fill="#08202c" opacity="0.3"/><rect x="479" y="432" width="187" height="154" rx="3" fill="#e8e1d5" opacity="0.7"/><rect x="479" y="432" width="187" height="18" fill="#08202c" opacity="0.3"/><rect x="693" y="486" width="132" height="100" rx="3" fill="#e8e1d5" opacity="0.7"/><rect x="693" y="486" width="132" height="12" fill="#08202c" opacity="0.3"/><rect x="857" y="441" width="198" height="145" rx="3" fill="#e8e1d5" opacity="0.7"/><rect x="857" y="441" width="198" height="17" fill="#08202c" opacity="0.3"/><rect x="1104" y="437" width="222" height="149" rx="3" fill="#e8e1d5" opacity="0.7"/><rect x="1104" y="437" width="222" height="17" fill="#08202c" opacity="0.3"/><rect x="1363" y="481" width="187" height="105" rx="3" fill="#e8e1d5" opacity="0.7"/><rect x="1363" y="481" width="187" height="12" fill="#08202c" opacity="0.3"/><path d="M1011 965 q 10.16 -63.5 2.54 -114.3" stroke="#1d3a2a" stroke-width="5.715" fill="none" stroke-linecap="round"/><path d="M1013.54 850.7 q -40.64 -19.558000000000003 -66.04 -4.724400000000002" stroke="#1d3a2a" stroke-width="6.3500000000000005" fill="none" stroke-linecap="round"/><path d="M1013.54 850.7 q -30.48 8.382000000000001 -49.53 26.771599999999996" stroke="#1d3a2a" stroke-width="6.3500000000000005" fill="none" stroke-linecap="round"/><path d="M1013.54 850.7 q 40.64 -19.558000000000003 66.04 -4.724400000000002" stroke="#1d3a2a" stroke-width="6.3500000000000005" fill="none" stroke-linecap="round"/><path d="M1013.54 850.7 q 30.48 8.382000000000001 49.53 26.771599999999996" stroke="#1d3a2a" stroke-width="6.3500000000000005" fill="none" stroke-linecap="round"/><path d="M1013.54 850.7 q 4.064 -34.925000000000004 6.604000000000001 -22.0472" stroke="#1d3a2a" stroke-width="6.3500000000000005" fill="none" stroke-linecap="round"/><path d="M675 958 q 10.08 -63.0 2.52 -113.4" stroke="#1d3a2a" stroke-width="5.67" fill="none" stroke-linecap="round"/><path d="M677.52 844.6 q -40.32 -19.404000000000003 -65.52 -4.687200000000002" stroke="#1d3a2a" stroke-width="6.300000000000001" fill="none" stroke-linecap="round"/><path d="M677.52 844.6 q -30.240000000000002 8.316 -49.14 26.560799999999997" stroke="#1d3a2a" stroke-width="6.300000000000001" fill="none" stroke-linecap="round"/><path d="M677.52 844.6 q 40.32 -19.404000000000003 65.52 -4.687200000000002" stroke="#1d3a2a" stroke-width="6.300000000000001" fill="none" stroke-linecap="round"/><path d="M677.52 844.6 q 30.240000000000002 8.316 49.14 26.560799999999997" stroke="#1d3a2a" stroke-width="6.300000000000001" fill="none" stroke-linecap="round"/><path d="M677.52 844.6 q 4.032000000000001 -34.650000000000006 6.552000000000001 -21.8736" stroke="#1d3a2a" stroke-width="6.300000000000001" fill="none" stroke-linecap="round"/><path d="M180 822 q 16.32 -102.0 4.08 -183.6" stroke="#1d3a2a" stroke-width="9.18" fill="none" stroke-linecap="round"/><path d="M184.08 638.4 q -65.28 -31.416000000000004 -106.08 -7.5888000000000035" stroke="#1d3a2a" stroke-width="10.200000000000001" fill="none" stroke-linecap="round"/><path d="M184.08 638.4 q -48.96 13.464000000000002 -79.56 43.0032" stroke="#1d3a2a" stroke-width="10.200000000000001" fill="none" stroke-linecap="round"/><path d="M184.08 638.4 q 65.28 -31.416000000000004 106.08 -7.5888000000000035" stroke="#1d3a2a" stroke-width="10.200000000000001" fill="none" stroke-linecap="round"/><path d="M184.08 638.4 q 48.96 13.464000000000002 79.56 43.0032" stroke="#1d3a2a" stroke-width="10.200000000000001" fill="none" stroke-linecap="round"/><path d="M184.08 638.4 q 6.5280000000000005 -56.1 10.608000000000002 -35.4144" stroke="#1d3a2a" stroke-width="10.200000000000001" fill="none" stroke-linecap="round"/><path d="M965 905 q 10.8 -67.5 2.7 -121.5" stroke="#1d3a2a" stroke-width="6.075" fill="none" stroke-linecap="round"/><path d="M967.7 783.5 q -43.2 -20.790000000000003 -70.2 -5.022000000000002" stroke="#1d3a2a" stroke-width="6.75" fill="none" stroke-linecap="round"/><path d="M967.7 783.5 q -32.4 8.91 -52.65 28.458" stroke="#1d3a2a" stroke-width="6.75" fill="none" stroke-linecap="round"/><path d="M967.7 783.5 q 43.2 -20.790000000000003 70.2 -5.022000000000002" stroke="#1d3a2a" stroke-width="6.75" fill="none" stroke-linecap="round"/><path d="M967.7 783.5 q 32.4 8.91 52.65 28.458" stroke="#1d3a2a" stroke-width="6.75" fill="none" stroke-linecap="round"/><path d="M967.7 783.5 q 4.32 -37.125 7.0200000000000005 -23.436000000000003" stroke="#1d3a2a" stroke-width="6.75" fill="none" stroke-linecap="round"/><defs>
      <linearGradient id="hz9447" x1="0" y1="0" x2="0" y2="1">
        <stop offset="0%" stop-color="#0d2a3d" stop-opacity="0.45"/>
        <stop offset="45%" stop-color="#0d2a3d" stop-opacity="0"/>
        <stop offset="100%" stop-color="#08202c" stop-opacity="0.4"/>
      </linearGradient>
      <radialGradient id="vg9447" cx="0.5" cy="0.5" r="0.75">
        <stop offset="55%" stop-color="#000000" stop-opacity="0"/>
        <stop offset="100%" stop-color="#000000" stop-opacity="0.3"/>
      </radialGradient>
    </defs>
    <rect width="1600" height="1067" fill="url(#hz9447)"/>
    <rect width="1600" height="1067" fill="url(#vg9447)"/></svg>