<svg xmlns="http://www.w3.org/2000/svg" viewBox="0 0 1600 1067" width="1600" height="1067" role="img" aria-label="coastal view">
  <defs>
    <linearGradient id="sky3057" x1="0" y1="0" x2="0" y2="1">
      <stop offset="0%" stop-color="#101d33"/>
      <stop offset="55%" stop-color="#101d33"/>
      <stop offset="100%" stop-color="#d0916e"/>
    </linearGradient>
    <radialGradient id="glow3057" cx="0.414375" cy="0.47797563261480785" r="0.55">
      <stop offset="0%" stop-color="#ffe1b4" stop-opacity="0.95"/>
      <stop offset="35%" stop-color="#d0916e" stop-opacity="0.55"/>
      <stop offset="100%" stop-color="#d0916e" stop-opacity="0"/>
    </radialGradient>
    <linearGradient id="water3057" x1="0" y1="0" x2="0" y2="1">
      <stop offset="0%" stop-color="#16334c" stop-opacity="0.95"/>
      <stop offset="100%" stop-color="#08162a"/>
    </linearGradient>
  </defs>
  <rect width="1600" height="1067" fill="url(#sky3057)"/>
  <rect width="1600" height="1067" fill="url(#glow3057)"/>
  <circle cx="663" cy="510" r="48" fill="#ffe1b4" opacity="0.9"/><rect x="559" y="136" width="393" height="21" rx="10" fill="#ffffff" opacity="0.6"/><rect x="1431" y="350" width="373" height="20" rx="10" fill="#ffffff" opacity="0.12"/><rect x="126" y="121" width="301" height="16" rx="8" fill="#ffffff" opacity="0.6"/><rect x="1479" y="337" width="333" height="18" rx="9" fill="#ffffff" opacity="0.9"/><rect x="1107" y="97" width="506" height="27" rx="13" fill="#ffffff" opacity="0.10"/><path d="M0 576 L0 480 Q 192 427 416 534 L 544 576 Z" fill="#08162a" opacity="0.75"/><rect x="0" y="576" width="1600" height="491" fill="url(#water3057)"/><rect x="402" y="620" width="428" height="4" fill="#ffe1b4" opacity="0.13"/><rect x="292" y="665" width="703" height="4" fill="#ffe1b4" opacity="0.24"/><rect x="388" y="709" width="543" height="4" fill="#ffe1b4" opacity="0.30"/><rect x="232" y="754" width="785" height="4" fill="#ffe1b4" opacity="0.30"/><rect x="550" y="799" width="277" height="4" fill="#ffe1b4" opacity="0.27"/><rect x="436" y="843" width="464" height="4" fill="#ffe1b4" opacity="0.17"/><rect x="506" y="888" width="358" height="4" fill="#ffe1b4" opacity="0.29"/><rect x="566" y="933" width="247" height="4" fill="#ffe1b4" opacity="0.26"/><rect x="471" y="977" width="324" height="4" fill="#ffe1b4" opacity="0.27"/><path d="M0 832 Q 560 779 1600 811 L 1600 1067 L 0 1067 Z" fill="#dccdb2" opacity="0.75"/><rect x="128" y="494" width="170" height="92" rx="3" fill="#e8e1d5" opacity="0.7"/><rect x="128" y="494" width="170" height="11" fill="#08162a" opacity="0.3"/><rect x="347" y="471" width="158" height="115" rx="3" fill="#e8e1d5" opacity="0.7"/><rect x="347" y="471" width="158" height="13" fill="#08162a" opacity="0.3"/><rect x="564" y="465" width="180" height="121" rx="3" fill="#e8e1d5" opacity="0.7"/><rect x="564" y="465" width="180" height="14" fill="#08162a" opacity="0.3"/><rect x="799" y="450" width="195" height="136" rx="3" fill="#e8e1d5" opacity="0.7"/><rect x="799" y="450" width="195" height="16" fill="#08162a" opacity="0.3"/><rect x="1053" y="484" width="197" height="102" rx="3" fill="#e8e1d5" opacity="0.7"/><rect x="1053" y="484" width="197" height="12" fill="#08162a" opacity="0.3"/><rect x="1306" y="478" width="221" height="108" rx="3" fill="#e8e1d5" opacity="0.7"/><rect x="1306" y="478" width="221" height="12" fill="#08162a" opacity="0.3"/><path d="M374 865 q 12.56 -78.5 3.14 -141.3" stroke="#1d3a2a" stroke-width="7.0649999999999995" fill="none" stroke-linecap="round"/><path d="M377.14 723.7 q -50.24 -24.178 -81.64 -5.8404000000000025" stroke="#1d3a2a" stroke-width="7.8500000000000005" fill="none" stroke-linecap="round"/><path d="M377.14 723.7 q -37.68 10.362 -61.230000000000004 33.0956" stroke="#1d3a2a" stroke-width="7.8500000000000005" fill="none" stroke-linecap="round"/><path d="M377.14 723.7 q 50.24 -24.178 81.64 -5.8404000000000025" stroke="#1d3a2a" stroke-width="7.8500000000000005" fill="none" stroke-linecap="round"/><path d="M377.14 723.7 q 37.68 10.362 61.230000000000004 33.0956" stroke="#1d3a2a" stroke-width="7.8500000000000005" fill="none" stroke-linecap="round"/><path d="M377.14 723.7 q 5.024 -43.175000000000004 8.164000000000001 -27.255200000000002" stroke="#1d3a2a" stroke-width="7.8500000000000005" fill="none" stroke-linecap="round"/><path d="M1495 940 q 10.4 -65.0 2.6 -117.0" stroke="#1d3a2a" stroke-width="5.85" fill="none" stroke-linecap="round"/><path d="M1497.6 823.0 q -41.6 -20.020000000000003 -67.60000000000001 -4.836000000000002" stroke="#1d3a2a" stroke-width="6.5" fill="none" stroke-linecap="round"/><path d="M1497.6 823.0 q -31.2 8.58 -50.7 27.403999999999996" stroke="#1d3a2a" stroke-width="6.5" fill="none" stroke-linecap="round"/><path d="M1497.6 823.0 q 41.6 -20.020000000000003 67.60000000000001 -4.836000000000002" stroke="#1d3a2a" stroke-width="6.5" fill="none" stroke-linecap="round"/><path d="M1497.6 823.0 q 31.2 8.58 50.7 27.403999999999996" stroke="#1d3a2a" stroke-width="6.5" fill="none" stroke-linecap="round"/><path d="M1497.6 823.0 q 4.16 -35.75 6.76 -22.568000000000005" stroke="#1d3a2a" stroke-width="6.5" fill="none" stroke-linecap="round"/><path d="M672 884 q 11.68 -73.0 2.92 -131.4" stroke="#1d3a2a" stroke-width="6.569999999999999" fill="none" stroke-linecap="round"/><path d="M674.92 752.6 q -46.72 -22.484 -75.92 -5.431200000000002" stroke="#1d3a2a" stroke-width="7.300000000000001" fill="none" stroke-linecap="round"/><path d="M674.92 752.6 q -35.04 9.636000000000001 -56.940000000000005 30.776799999999994" stroke="#1d3a2a" stroke-width="7.300000000000001" fill="none" stroke-linecap="round"/><path d="M674.92 752.6 q 46.72 -22.484 75.92 -5.431200000000002" stroke="#1d3a2a" stroke-width="7.300000000000001" fill="none" stroke-linecap="round"/><path d="M674.92 752.6 q 35.04 9.636000000000001 56.940000000000005 30.776799999999994" stroke="#1d3a2a" stroke-width="7.300000000000001" fill="none" stroke-linecap="round"/><path d="M674.92 752.6 q 4.672000000000001 -40.150000000000006 7.592000000000001 -25.3456" stroke="#1d3a2a" stroke-width="7.300000000000001" fill="none" stroke-linecap="round"/><path d="M448 834 q 15.68 -98.0 3.92 -176.4" stroke="#1d3a2a" stroke-width="8.82" fill="none" stroke-linecap="round"/><path d="M451.92 657.6 q -62.72 -30.184000000000005 -101.92 -7.2912000000000035" stroke="#1d3a2a" stroke-width="9.8" fill="none" stroke-linecap="round"/><path d="M451.92 657.6 q -47.04 12.936 -76.44 41.3168" stroke="#1d3a2a" stroke-width="9.8" fill="none" stroke-linecap="round"/><path d="M451.92 657.6 q 62.72 -30.184000000000005 101.92 -7.2912000000000035" stroke="#1d3a2a" stroke-width="9.8" fill="none" stroke-linecap="round"/><path d="M451.92 657.6 q 47.04 12.936 76.44 41.3168" stroke="#1d3a2a" stroke-width="9.8" fill="none" stroke-linecap="round"/><path d="M451.92 657.6 q 6.272 -53.900000000000006 10.192000000000002 -34.025600000000004" stroke="#1d3a2a" stroke-width="9.8" fill="none" stroke-linecap="round"/><defs>
      <linearGradient id="hz3057" x1="0" y1="0" x2="0" y2="1">
        <stop offset="0%" stop-color="#101d33" stop-opacity="0.45"/>
        <stop offset="45%" stop-color="#101d33" stop-opacity="0"/>
        <stop offset="100%" stop-color="#08162a" stop-opacity="0.4"/>
      </linearGradient>
      <radialGradient id="vg3057" cx="0.5" cy="0.5" r="0.75">
        <stop offset="55%" stop-color="#000000" stop-opacity="0"/>
        <stop offset="100%" stop-color="#000000" stop-opacity="0.3"/>
      </radialGradient>
    </defs>
    <rect width="1600" height="1067" fill="url(#hz3057)"/>
    <rect width="1600" height="1067" fill="url(#vg3057)"/></svg>